<svg width="131" height="130" viewBox="0 0 131 130" fill="none" xmlns="http://www.w3.org/2000/svg">
<g clip-path="url(#clip0_407_2197)">
<path d="M100.459 1.29492L106.02 12.5684L118.486 14.3965L109.473 23.1816L111.605 35.5723L100.459 29.7324L89.3125 35.5723L91.4453 23.1816L82.4316 14.3965L94.8984 12.5684L100.459 1.29492Z" fill="#F8D707"/>
<path d="M100.459 1.29492V19.0176L89.3125 35.5723L91.4453 23.1816L82.4316 14.3965L94.8984 12.5684L100.459 1.29492Z" fill="#FFFA5A"/>
<path d="M72.0215 108.139H1.43555V128.705H72.0215V108.139Z" fill="#BEBF31"/>
<path d="M72.0215 108.139H29.6953V128.705H72.0215V108.139Z" fill="#A38C31"/>
<path d="M128.896 87.5723H36.7285V128.705H128.896V87.5723Z" fill="#68A1D6"/>
<path d="M128.896 87.5723H65.166V128.705H128.896V87.5723Z" fill="#3179AF"/>
<path d="M128.896 46.4395H72.0215V128.705H128.896V46.4395Z" fill="#DB3328"/>
<path d="M128.896 46.4395H119.172V128.705H128.896V46.4395Z" fill="#B5100B"/>
<path d="M79.6387 17.2656H72.0215V19.8047H79.6387V17.2656Z" fill="#F8D707"/>
<path d="M81.7745 28.7083L80.5977 26.4584L73.4431 30.2008L74.62 32.4506L81.7745 28.7083Z" fill="#F8D707"/>
<path d="M81.7698 8.36017L74.6152 4.6178L73.4384 6.86766L80.5929 10.61L81.7698 8.36017Z" fill="#F8D707"/>
<path d="M128.896 17.2656H121.279V19.8047H128.896V17.2656Z" fill="#F8D707"/>
<path d="M127.484 30.0439L120.334 26.3474L119.168 28.6028L126.318 32.2994L127.484 30.0439Z" fill="#F8D707"/>
<path d="M127.493 7.01863L126.326 4.76334L119.177 8.46079L120.343 10.7161L127.493 7.01863Z" fill="#F8D707"/>
<path d="M111.605 36.8418C111.402 36.8418 111.199 36.791 111.021 36.6895L100.459 31.1543L89.8965 36.6895C89.4648 36.918 88.957 36.8672 88.5508 36.5879C88.1699 36.3086 87.9668 35.8262 88.043 35.3438L90.0488 23.5879L81.5176 15.2598C81.1621 14.9297 81.0352 14.4219 81.1875 13.9648C81.3398 13.5078 81.7461 13.1777 82.2031 13.1016L94.0098 11.375L99.291 0.685547C99.4941 0.253906 99.9512 -0.0253906 100.434 -0.0253906C100.916 -0.0253906 101.348 0.253906 101.576 0.685547L106.883 11.4258L118.689 13.1523C119.172 13.2285 119.553 13.5586 119.705 14.0156C119.857 14.4727 119.73 14.9805 119.375 15.3105L110.844 23.6133L112.85 35.3691C112.926 35.8516 112.748 36.334 112.342 36.6133C112.113 36.7656 111.859 36.8418 111.605 36.8418ZM100.459 28.4629C100.662 28.4629 100.865 28.5137 101.043 28.6152L109.904 33.2871L108.203 23.4102C108.127 23.0039 108.279 22.5723 108.559 22.293L115.719 15.3105L105.816 13.8633C105.41 13.8125 105.055 13.5332 104.852 13.1777L100.459 4.16406L96.0156 13.1523C95.8379 13.5332 95.4824 13.7871 95.0508 13.8379L85.1484 15.2852L92.334 22.2676C92.6387 22.5469 92.7656 22.9785 92.6895 23.3848L90.9883 33.2617L99.8496 28.5898C100.053 28.5137 100.256 28.4629 100.459 28.4629ZM31.6504 129.975H1.43555C0.724609 129.975 0.166016 129.416 0.166016 128.705V108.139C0.166016 107.428 0.724609 106.869 1.43555 106.869H36.7285V109.408H2.70508V127.436H31.6504V129.975Z" fill="#060D1A"/>
<path d="M72.0215 129.975H36.7285C36.0176 129.975 35.459 129.416 35.459 128.705V87.5723C35.459 86.8613 36.0176 86.3027 36.7285 86.3027H66.9434V88.8418H37.998V127.436H72.0215V129.975Z" fill="#060D1A"/>
<path d="M128.896 129.975H72.0215C71.3105 129.975 70.752 129.416 70.752 128.705V46.4395C70.752 45.7285 71.3105 45.1699 72.0215 45.1699H128.896C129.607 45.1699 130.166 45.7285 130.166 46.4395V128.705C130.166 129.416 129.607 129.975 128.896 129.975ZM73.291 127.436H127.627V47.709H73.291V127.436Z" fill="#060D1A"/>
<path d="M79.6387 17.2656H72.0215V19.8047H79.6387V17.2656Z" fill="#060D1A"/>
<path d="M81.7745 28.7083L80.5977 26.4584L73.4431 30.2008L74.62 32.4506L81.7745 28.7083Z" fill="#060D1A"/>
<path d="M81.7698 8.36017L74.6152 4.6178L73.4384 6.86766L80.5929 10.61L81.7698 8.36017Z" fill="#060D1A"/>
<path d="M128.896 17.2656H121.279V19.8047H128.896V17.2656Z" fill="#060D1A"/>
<path d="M127.484 30.0439L120.334 26.3474L119.168 28.6028L126.318 32.2994L127.484 30.0439Z" fill="#060D1A"/>
<path d="M127.493 7.01863L126.326 4.76334L119.177 8.46079L120.343 10.7161L127.493 7.01863Z" fill="#060D1A"/>
</g>
<defs>
<clipPath id="clip0_407_2197">
<rect width="130" height="130" fill="white" transform="translate(0.166016)"/>
</clipPath>
</defs>
</svg>
