<svg width="131" height="130" viewBox="0 0 131 130" fill="none" xmlns="http://www.w3.org/2000/svg">
<g clip-path="url(#clip0_407_2143)">
<path d="M126.438 99.2063H4.5625C2.32812 99.2063 0.5 97.3781 0.5 95.1438V12.5125C0.5 10.2781 2.32812 8.45001 4.5625 8.45001H126.438C128.672 8.45001 130.5 10.2781 130.5 12.5125V95.1438C130.5 96.2212 130.072 97.2545 129.31 98.0164C128.548 98.7783 127.515 99.2063 126.438 99.2063Z" fill="#84DBFF"/>
<path d="M119.165 31.6063V76.0703C112.645 76.0703 107.343 81.3516 107.343 87.8719H23.6559C23.6559 81.3516 18.3746 76.0703 11.834 76.0703V31.6063C18.3543 31.6063 23.6559 26.325 23.6559 19.8047H107.343C107.343 26.325 112.625 31.6063 119.165 31.6063Z" fill="#F2F2F2"/>
<path d="M49.0273 29.7172H82.6242V39.9141H49.0273V29.7172Z" fill="#FF7157"/>
<path d="M28.998 47.8156H102.021V54.1734H28.998V47.8156ZM28.998 59.6984H102.021V66.0562H28.998V59.6984ZM28.998 71.6015H102.021V77.9594H28.998V71.6015Z" fill="#4BDCC5"/>
<path d="M108.277 99.7141L117.601 115.842L113.416 115.091L112.218 114.867L110.268 114.502L109.598 116.37L109.171 117.548L107.749 121.55L98.4258 105.402L108.277 99.7141Z" fill="#FF7058"/>
<path d="M105.476 101.339L113.418 115.091L110.27 114.502L109.173 117.548L101.23 103.777L105.476 101.339Z" fill="#E8533F"/>
<path d="M88.0871 99.7141L78.7637 115.842L82.948 115.091L84.1465 114.867L86.0965 114.502L86.7668 116.37L87.1934 117.548L88.6152 121.55L97.9387 105.402L88.0871 99.7141Z" fill="#FF7058"/>
<path d="M90.8914 101.339L82.9492 115.091L86.0977 114.502L87.1945 117.548L95.1367 103.777L90.8914 101.339Z" fill="#E8533F"/>
<path d="M118.536 89.05C118.536 91.5891 114.92 93.3969 114.006 95.6109C113.052 97.9063 114.291 101.725 112.564 103.452C110.837 105.178 107.019 103.939 104.723 104.894C102.509 105.808 100.702 109.423 98.1625 109.423C95.6234 109.423 93.8156 105.808 91.6016 104.894C89.3062 103.939 85.4875 105.178 83.7609 103.452C82.0344 101.725 83.2734 97.9063 82.3187 95.6109C81.4047 93.3969 77.7891 91.5891 77.7891 89.05C77.7891 86.5109 81.4047 84.7031 82.3187 82.4891C83.2734 80.1938 82.0344 76.375 83.7609 74.6484C85.4875 72.9219 89.3062 74.1609 91.6016 73.2063C93.8156 72.2922 95.6234 68.6766 98.1625 68.6766C100.702 68.6766 102.509 72.2922 104.723 73.2063C107.019 74.1609 110.837 72.9219 112.564 74.6484C114.291 76.375 113.052 80.1938 114.006 82.4891C114.92 84.7031 118.536 86.5109 118.536 89.05Z" fill="#F4C95A"/>
<path d="M113.803 89.05C113.803 91 111.041 92.3812 110.33 94.0875C109.598 95.8547 110.553 98.7797 109.233 100.1C107.912 101.42 104.987 100.466 103.22 101.197C101.534 101.908 100.133 104.67 98.1828 104.67C96.2328 104.67 94.8516 101.908 93.1453 101.197C91.3781 100.466 88.4531 101.42 87.1328 100.1C85.8125 98.7797 86.7672 95.8547 86.0359 94.0875C85.325 92.4016 82.5625 91 82.5625 89.05C82.5625 87.1 85.325 85.7187 86.0359 84.0125C86.7672 82.2656 85.8125 79.3203 87.1328 78C88.4531 76.6797 91.3781 77.6344 93.1453 76.9031C94.8312 76.1922 96.2328 73.4297 98.1828 73.4297C100.133 73.4297 101.514 76.1922 103.22 76.9031C104.967 77.6344 107.912 76.6797 109.233 78C110.553 79.3203 109.598 82.2453 110.33 84.0125C111.02 85.6984 113.803 87.1 113.803 89.05Z" fill="#E2A144"/>
<path d="M112.563 89.05C112.563 90.8375 110.004 92.1172 109.374 93.6813C108.704 95.3063 109.577 98.0078 108.359 99.2266C107.14 100.445 104.438 99.5719 102.813 100.242C101.249 100.892 99.9695 103.431 98.182 103.431C96.3945 103.431 95.1149 100.872 93.5508 100.242C91.9258 99.5719 89.2242 100.445 88.0055 99.2266C86.7867 98.0078 87.6602 95.3063 86.9899 93.6813C86.3399 92.1172 83.8008 90.8375 83.8008 89.05C83.8008 87.2625 86.3602 85.9828 86.9899 84.4188C87.6602 82.7938 86.7867 80.0922 88.0055 78.8735C89.2242 77.6547 91.9258 78.5281 93.5508 77.8578C95.1149 77.2078 96.3945 74.6688 98.182 74.6688C99.9695 74.6688 101.249 77.2281 102.813 77.8578C104.438 78.5281 107.14 77.6547 108.359 78.8735C109.577 80.0922 108.704 82.7938 109.374 84.4188C110.024 85.9625 112.563 87.2422 112.563 89.05Z" fill="#EDAF4B"/>
<path d="M94.8914 95.6516L89.8945 90.675L91.5805 88.9891L94.8914 92.3203L104.784 82.4281L106.47 84.0938L94.8914 95.6516Z" fill="white"/>
</g>
<defs>
<clipPath id="clip0_407_2143">
<rect width="130" height="130" fill="white" transform="translate(0.5)"/>
</clipPath>
</defs>
</svg>
