<svg width="117" height="118" viewBox="0 0 117 118" fill="none" xmlns="http://www.w3.org/2000/svg">
<path d="M89.0279 2.70068L74.6656 2.52075L62.2779 21.5513L53.6602 38.7862L64.2524 43.8134L79.3334 17.0629L89.0279 2.70068Z" fill="#EA6153"/>
<path d="M102.547 2.70068L88.1852 2.52075L75.7974 21.5513L67.1797 38.7862L77.7719 43.8134L92.8529 17.0629L102.547 2.70068Z" fill="#3D6591"/>
<path d="M27.5059 2.70068L41.8681 2.52075L54.2559 21.5513L62.8727 38.7862L52.2804 43.8134L37.2003 17.0629L27.5059 2.70068Z" fill="#87D4F6"/>
<path d="M13.9844 2.70068L28.3476 2.52075L40.7344 21.5513L49.3521 38.7862L38.7599 43.8134L23.6798 17.0629L13.9844 2.70068Z" fill="#F66B6F"/>
<path d="M59.5424 36.8433C40.6853 36.2353 17.8157 56.315 17.9026 75.1817C17.9947 94.8171 41.9917 115.638 61.6041 114.682C79.0444 113.831 97.072 93.4034 96.865 75.9436C96.6516 57.9269 77.551 37.4243 59.5424 36.8433Z" fill="#F49944"/>
<path d="M2.65053 26.8784C3.70226 26.8477 4.91876 28.0852 4.86119 29.1402C4.81512 30.1811 3.48036 31.2379 2.44905 31.1194C1.55699 31.0119 0.771961 29.8805 0.801594 28.979C0.832301 28.0455 1.72116 26.9028 2.65053 26.8784ZM2.67302 59.1199C3.72475 59.0892 4.94032 60.3267 4.88274 61.3817C4.83668 62.4227 3.50285 63.4794 2.47154 63.3609C1.57948 63.2534 0.794452 62.1216 0.824085 61.22C0.854792 60.2865 1.74366 59.1444 2.67302 59.1199ZM15.0608 107.773C16.1125 107.742 17.3281 108.98 17.2705 110.035C17.2244 111.076 15.8906 112.132 14.8593 112.014C13.9672 111.906 13.1813 110.775 13.2109 109.873C13.2416 108.94 14.1314 107.797 15.0608 107.773ZM113.982 72.7644C115.034 72.7337 116.25 73.9711 116.193 75.0261C116.146 76.0671 114.813 77.1238 113.781 77.0053C112.889 76.8978 112.103 75.766 112.133 74.8644C112.164 73.9309 113.053 72.7888 113.982 72.7644ZM106.801 65.7627C107.853 65.732 109.069 66.9695 109.011 68.0244C108.965 69.0654 107.632 70.1222 106.6 70.0036C105.708 69.8961 104.922 68.7643 104.952 67.8628C104.983 66.9293 105.871 65.7871 106.801 65.7627Z" fill="black"/>
<path d="M99.9424 80.4343C99.2638 80.5264 98.6772 80.9551 98.3831 81.5738C97.2622 83.9714 96.4396 86.3337 95.2943 87.9912C94.1489 89.6485 92.9027 90.684 90.1964 91.0199C87.6104 91.3147 87.8941 95.1567 90.4953 95.0683C93.2567 95.0069 94.5888 95.7332 95.5633 96.9275C96.5382 98.1221 97.1625 100.106 97.3925 102.685C97.6674 104.924 100.84 105.114 101.381 102.925C102.003 99.9282 103.148 98.8534 104.8 97.9167C106.451 96.9801 108.766 96.4612 111.127 95.2477C112.934 94.3634 112.492 91.6708 110.497 91.4093C108.052 91.0531 106.256 90.2331 104.919 88.8304C103.584 87.4286 102.617 85.3395 102.251 82.2031C102.112 81.0684 101.071 80.2697 99.9415 80.4338L99.9424 80.4343Z" fill="black"/>
<path d="M100.153 87.2719C100.773 88.7151 100.981 90.5693 101.982 91.6205C102.873 92.554 104.274 92.6769 105.401 93.2699C104.49 93.623 103.741 93.841 102.792 94.3799C101.591 95.0616 100.753 95.8843 100.153 97.545C99.7308 96.2092 99.5974 95.4317 98.7145 94.3499C97.8394 93.2782 97.7566 93.2258 96.3867 92.6556C97.721 91.8065 97.8468 91.4704 98.6545 90.3015C99.3501 89.2959 99.6728 88.3138 100.155 87.2728L100.153 87.2719Z" fill="#87D4F6"/>
<path d="M11.718 35.4225C11.2194 35.4945 10.7649 35.7492 10.4435 36.1371C10.1221 36.525 9.95669 37.0184 9.97866 37.5217L10.0396 39.7707C10.0232 40.0509 10.0649 40.3317 10.1623 40.5949C10.2598 40.8581 10.4107 41.0982 10.6056 41.3001C10.8005 41.5021 11.0358 41.6614 11.2953 41.7682C11.5549 41.875 11.8338 41.9269 12.1144 41.9205C12.3949 41.9141 12.6705 41.8496 12.925 41.7312C13.1794 41.6127 13.4067 41.4428 13.5922 41.2322C13.7777 41.0216 13.9173 40.7747 14.0026 40.5073C14.088 40.24 14.117 39.958 14.0879 39.6789L14.027 37.4298C14.0266 37.1399 13.9637 36.8535 13.8433 36.5897C13.723 36.3259 13.5476 36.0908 13.3289 35.9004C13.1101 35.7101 12.8533 35.569 12.5754 35.4862C12.2975 35.4035 12.0052 35.381 11.718 35.4206V35.4225ZM12.2877 46.9083C11.7514 46.9297 11.2454 47.1625 10.8802 47.5558C10.515 47.9492 10.3202 48.471 10.3385 49.0074L10.3994 51.286C10.3859 51.5659 10.4309 51.8456 10.5306 52.1074C10.6304 52.3693 10.7832 52.608 10.9795 52.8079C11.1759 53.0078 11.4111 53.165 11.6711 53.2694C11.9311 53.3739 12.21 53.4232 12.4901 53.4147C12.7702 53.4062 13.0457 53.3398 13.2989 53.2198C13.5521 53.0997 13.7775 52.9289 13.9614 52.7175C14.1453 52.506 14.2835 52.2586 14.3672 51.9912C14.4509 51.7238 14.4783 51.4418 14.4478 51.1633L14.3869 48.9142C14.3841 48.6435 14.3267 48.3763 14.2191 48.1279C14.1115 47.8796 13.9555 47.6549 13.7599 47.4678C13.5644 47.2806 13.3334 47.1347 13.0805 47.0381C12.8277 46.9414 12.5583 46.896 12.2877 46.905V46.9083ZM19.005 41.7799L16.7559 41.9336C16.4788 41.9333 16.2044 41.9899 15.95 42.0995C15.6955 42.2091 15.4663 42.3693 15.2762 42.5708C15.086 42.7724 14.9388 43.0105 14.8442 43.2709C14.7495 43.5313 14.7097 43.8082 14.7261 44.0848C14.7425 44.3613 14.8151 44.632 14.9398 44.8794C15.0645 45.1268 15.2379 45.346 15.4505 45.5237C15.6631 45.7014 15.9102 45.8338 16.1758 45.9126C16.4414 45.9914 16.7198 46.0149 16.9949 45.982L19.2439 45.8283C19.5209 45.8284 19.7956 45.7721 20.0499 45.6624C20.3042 45.5527 20.5327 45.392 20.7227 45.1906C20.9127 44.9891 21.0602 44.7508 21.1547 44.4905C21.2493 44.2302 21.2892 43.9536 21.2728 43.6771C21.2564 43.4007 21.1837 43.1302 21.0591 42.8829C20.9345 42.6356 20.7608 42.4163 20.5484 42.2386C20.336 42.061 20.0895 41.9286 19.824 41.8497C19.5586 41.7708 19.28 41.7471 19.005 41.7799ZM7.51967 42.5296L5.27059 42.6833C4.99354 42.683 4.71912 42.7396 4.46467 42.8492C4.21021 42.9588 3.98102 43.119 3.79088 43.3205C3.60074 43.522 3.45352 43.7602 3.35887 44.0206C3.26422 44.2809 3.22349 44.5584 3.23985 44.8349C3.25622 45.1115 3.32976 45.3817 3.45445 45.6291C3.57914 45.8765 3.75261 46.0957 3.96518 46.2734C4.17776 46.4511 4.42491 46.5835 4.69051 46.6623C4.95611 46.7411 5.23447 46.7646 5.50955 46.7316L7.75863 46.6089C8.02698 46.5939 8.28964 46.526 8.53175 46.4093C8.77386 46.2926 8.99106 46.1296 9.16993 45.929C9.34881 45.7284 9.48646 45.4941 9.57477 45.2402C9.66307 44.9864 9.70017 44.7176 9.68441 44.4493C9.66865 44.181 9.60034 43.9189 9.48293 43.6771C9.36552 43.4353 9.20144 43.2191 9.00031 43.0408C8.79919 42.8625 8.5647 42.7254 8.3106 42.6378C8.05649 42.5503 7.78792 42.514 7.51967 42.5305V42.5296ZM57.989 43.8495C50.5264 43.6561 43.1515 47.5682 37.4174 53.1457C31.6834 58.7233 27.4999 66.0536 26.7118 73.357C25.9564 80.3528 28.3467 88.103 32.5594 94.5284C36.7722 100.954 42.8863 106.133 49.9823 107.303C58.4591 108.7 67.8798 105.303 75.4719 99.6263C83.0639 93.9491 88.9501 85.8919 89.6561 77.2854C90.3117 69.2892 86.1335 61.1315 80.06 54.855C73.9864 48.5786 65.9288 44.055 57.989 43.8495Z" fill="black"/>
<path d="M57.8673 47.9281C64.2896 48.0939 71.6671 52.0086 77.1494 57.6741C82.632 63.3396 86.1245 70.6338 85.606 76.9567C85.0379 83.8873 79.9466 91.1945 73.0411 96.3583C66.1358 101.522 57.545 104.424 50.6403 103.285C45.1139 102.375 39.7416 98.0533 35.9763 92.3104C32.2109 86.5675 30.1407 79.5015 30.7584 73.778C31.4094 67.749 35.1104 61.0682 40.2645 56.0547C45.4186 51.0413 51.9247 47.7742 57.8673 47.9281Z" fill="#FBB738"/>
<path d="M56.9102 35.153C47.5945 35.8838 38.0734 40.7355 30.581 47.6279C23.0885 54.5204 17.5804 63.5311 16.8166 72.9376C15.1401 93.5764 28.4104 114.904 57.9598 117.14C64.8092 117.82 72.6905 113.611 79.1911 109.523C85.6915 105.434 90.7064 101.216 90.7064 101.216C92.7856 99.4571 90.146 96.3379 88.0675 98.0973C88.0675 98.0973 83.261 102.187 77.032 106.104C70.803 110.022 63.0589 113.559 58.3496 113.091C32.131 110.806 19.3962 91.3494 20.8649 73.2674C21.5159 65.2462 26.3942 56.989 33.3098 50.6272C40.2256 44.2652 49.1242 39.8384 57.2401 39.2014C71.9282 38.0483 81.8307 47.1404 87.9175 56.8946C90.9611 61.7717 92.9926 66.8004 94.005 70.5386C94.5117 72.4076 94.7525 73.9725 94.7847 74.9172C94.017 77.9201 94.6464 78.7913 96.643 78.8456C97.8821 78.8763 98.4521 77.5268 98.6522 76.8364C98.8518 76.1455 98.8567 75.4941 98.8321 74.7668C98.7861 73.3113 98.465 71.5376 97.9016 69.4595C96.7761 65.3031 94.6413 59.9864 91.3642 54.735C84.8102 44.2323 73.4137 33.8573 56.9083 35.153H56.9102Z" fill="black"/>
<path d="M47.0438 56.1747C46.6019 56.2312 46.1903 56.4315 45.8734 56.7445L40.6555 61.8724C40.4439 62.0842 40.2815 62.3403 40.1804 62.6221C40.0793 62.9039 40.0421 63.2045 40.0707 63.5025C40.0994 63.8005 40.1934 64.0886 40.3463 64.3459C40.4992 64.6033 40.7074 64.8235 40.9554 64.9911L43.0245 66.3715C42.4595 67.2451 42.065 67.7687 41.1353 69.5502C39.6767 72.3435 38.0867 75.6459 38.3464 78.9064C38.8163 84.7972 42.2279 90.9069 47.5827 93.8103C53.4506 96.9916 61.1301 96.4356 66.8348 93.3909C72.4659 90.3848 76.6777 84.3619 77.6604 78.0672C78.1287 75.0657 76.9618 71.963 75.8611 69.3108C75.0919 67.4577 74.6605 66.7663 74.2418 65.9826L76.071 64.2429C76.2911 64.0351 76.4622 63.781 76.5715 63.4988C76.6807 63.2165 76.7247 62.9131 76.7017 62.6113C76.6788 62.3095 76.589 62.0168 76.4384 61.7543C76.2877 61.4918 76.0801 61.2667 75.8311 61.0946L69.3538 56.626C68.9368 56.3324 68.4246 56.2066 67.9191 56.2731C67.4135 56.3397 66.9516 56.5939 66.6249 56.9854L61.7069 63.0129C61.4247 63.3562 61.2634 63.7828 61.2468 64.2269C61.2301 64.6711 61.3593 65.1084 61.6151 65.4719C61.6151 65.4719 63.0399 67.4625 64.4039 70C65.7673 72.5375 66.8656 75.7251 66.713 77.0771C66.409 79.7648 64.1326 82.9358 61.675 84.0943C59.1589 85.2796 55.1865 85.0368 52.8886 83.5245C51.2297 82.4329 49.9558 79.6975 49.8599 77.4075C49.7985 76.0087 50.8656 72.922 52.109 70.4798C53.3526 68.0378 54.6279 66.1316 54.6279 66.1316C54.8652 65.7706 54.9808 65.3438 54.9587 64.9124C54.9366 64.481 54.7781 64.0675 54.5052 63.7326L48.8375 56.8954C48.6213 56.635 48.343 56.4331 48.0287 56.3073C47.7145 56.1816 47.3744 56.1363 47.0382 56.1757L47.0438 56.1747Z" fill="black"/>
<path d="M68.5762 61.0322L71.455 63.0419L70.3754 64.0919C70.0518 64.4042 69.8407 64.815 69.7757 65.26C69.7106 65.705 69.7958 66.1591 70.0165 66.5509C70.0165 66.5509 71.0904 68.4715 72.0847 70.8691C73.0796 73.2669 73.8348 76.2211 73.645 77.4365C72.8865 82.2974 69.2477 87.4802 64.9186 89.7914C60.431 92.1871 53.7938 92.5665 49.5049 90.2412C45.7196 88.1889 42.7543 83.0496 42.3978 78.576C42.2903 77.1558 43.4072 73.9835 44.7359 71.4389C46.064 68.8945 47.4357 66.8808 47.4357 66.8808C47.5898 66.6591 47.6981 66.4087 47.7544 66.1447C47.8106 65.8806 47.8131 65.6082 47.7628 65.343C47.7125 65.0777 47.6101 64.8254 47.461 64.6003C47.312 64.3752 47.1196 64.1818 46.895 64.0319L45.3057 62.9819L47.1349 61.2126L50.4935 65.201C50.0176 65.9518 49.5001 66.7149 48.5144 68.6496C47.1525 71.3234 45.6565 74.4928 45.7855 77.5859C45.939 81.072 47.5042 84.8252 50.6735 86.9121C54.3871 89.3574 59.4244 89.6638 63.4183 87.7813C67.3605 85.923 70.2739 81.8978 70.7653 77.555C71.1414 74.2298 69.5124 70.8802 68.0064 68.0789C66.9086 66.0378 66.2905 65.2285 65.7573 64.4508L68.5762 61.0322Z" fill="#ED7C4F"/>
<path d="M13.9074 1.05707C13.5553 1.09193 13.2183 1.21842 12.93 1.42348C12.6417 1.62854 12.4121 1.90545 12.2637 2.22659C12.1153 2.54773 12.0532 2.90214 12.0838 3.25461C12.1144 3.60707 12.2365 3.945 12.438 4.23577C21.3717 17.646 30.9597 31.0442 36.5182 43.7896C36.6137 44.0494 36.7615 44.2871 36.952 44.4878C37.1426 44.6884 37.3714 44.848 37.6258 44.9568C37.8803 45.0655 38.155 45.1213 38.4318 45.1203C38.7085 45.1194 38.9821 45.0617 39.2358 44.9512C39.4895 44.8407 39.7176 44.6794 39.9068 44.4774C40.096 44.2755 40.2423 44.0373 40.336 43.777C40.4297 43.5166 40.4693 43.2398 40.4522 42.9635C40.4351 42.6873 40.3618 42.4171 40.2366 42.1703C34.414 28.8196 24.7063 15.3163 15.8266 1.98715C15.6242 1.66967 15.3371 1.41461 14.9982 1.25058C14.6593 1.08655 14.282 1.01977 13.9074 1.058V1.05707ZM28.2415 0.937583C27.8766 0.97975 27.5294 1.11978 27.2379 1.34336C26.9464 1.56693 26.721 1.86537 26.5857 2.20691C26.4503 2.54844 26.4102 2.92063 26.4695 3.28319C26.5287 3.64575 26.6851 3.98507 26.9221 4.26575C34.8156 13.7778 40.5273 27.2615 47.5537 39.1715C47.6761 39.4251 47.8502 39.6507 48.0644 39.8336C48.2786 40.0165 48.5285 40.153 48.7981 40.2342C49.0678 40.3153 49.3517 40.3392 49.6312 40.3049C49.9108 40.2706 50.1801 40.1786 50.4222 40.0346C50.6642 39.8906 50.8733 39.6978 51.0369 39.4686C51.2005 39.2393 51.315 38.9787 51.3724 38.7029C51.4298 38.4272 51.429 38.1425 51.3705 37.867C51.3121 37.5915 51.1967 37.3314 51.0322 37.1028C44.2052 25.5302 38.5104 11.8934 30.0408 1.68728C29.8278 1.42159 29.5521 1.21376 29.2377 1.08284C28.9233 0.95191 28.5802 0.902118 28.2415 0.938052V0.937583ZM42.2758 0.787176C41.9399 0.812041 41.615 0.920153 41.3312 1.10158C41.0474 1.28301 40.8135 1.53246 40.6499 1.82691C40.4863 2.12136 40.3982 2.45158 40.3941 2.78839C40.39 3.1252 40.4701 3.45762 40.6265 3.75596C48.0648 18.6331 55.1815 30.3023 62.0977 38.2119C62.2692 38.4251 62.4814 38.6016 62.7228 38.7306C62.9641 38.8595 63.2289 38.9385 63.5015 38.9625C63.7741 38.9866 64.0491 38.9554 64.3093 38.8707C64.5695 38.786 64.8097 38.6495 65.0159 38.4696C65.2221 38.2897 65.3896 38.0702 65.5088 37.8239C65.628 37.5776 65.6963 37.3096 65.7094 37.0363C65.7225 36.763 65.6807 36.4897 65.5857 36.2332C65.4906 35.9766 65.3445 35.7418 65.1565 35.543C58.636 28.0861 51.6073 16.6619 44.255 1.9567C44.0819 1.58459 43.7995 1.27387 43.4463 1.06503C43.093 0.856188 42.6853 0.75898 42.2758 0.786708V0.787176Z" fill="black"/>
<path d="M87.2867 0.93734C86.7557 0.999781 86.271 1.26896 85.9372 1.68657C77.4779 11.8802 72.1341 24.8372 65.3056 36.4119C65.1698 36.6423 65.0806 36.8972 65.0433 37.1621C65.0059 37.4269 65.0205 37.6964 65.0873 37.9553C65.1541 38.2143 65.2713 38.4576 65.4322 38.6713C65.593 38.885 65.795 39.0649 66.0253 39.2008C66.2557 39.3366 66.5102 39.4258 66.775 39.4632C67.0399 39.5005 67.3098 39.4855 67.5688 39.4186C67.8277 39.3518 68.0711 39.2346 68.2847 39.0738C68.4984 38.9129 68.6774 38.7119 68.8133 38.4815C75.8382 26.5736 81.1521 13.7896 89.0559 4.26504C89.3171 3.95499 89.4789 3.57408 89.5217 3.17096C89.5645 2.76784 89.4861 2.36127 89.2958 2.00331C89.1056 1.64535 88.8124 1.35231 88.4543 1.16225C88.0962 0.97219 87.6898 0.893864 87.2867 0.936872V0.93734ZM101.861 1.05682C101.568 1.09758 101.287 1.20188 101.039 1.36232C100.79 1.52277 100.58 1.73574 100.422 1.98597C91.5605 15.2881 81.7859 28.1636 75.9522 41.5398C75.8269 41.7867 75.753 42.0563 75.7358 42.3326C75.7185 42.6089 75.7583 42.886 75.852 43.1465C75.9456 43.407 76.091 43.6459 76.2802 43.8479C76.4695 44.05 76.6983 44.2111 76.9521 44.3216C77.206 44.4322 77.4793 44.4899 77.7562 44.4908C78.033 44.4917 78.3076 44.4357 78.5621 44.3268C78.8166 44.2179 79.0463 44.0581 79.2368 43.8573C79.4274 43.6565 79.5744 43.419 79.6698 43.1591C85.2172 30.4392 94.8292 17.6723 103.781 4.23506C104.006 3.91282 104.132 3.53194 104.145 3.1391C104.158 2.74626 104.057 2.35807 103.854 2.02158C103.651 1.6851 103.355 1.41515 103.001 1.24378C102.647 1.07241 102.252 1.00723 101.862 1.05635L101.861 1.05682ZM72.7426 1.29672C72.3449 1.30892 71.9592 1.43761 71.634 1.66689C71.3088 1.89616 71.0584 2.21617 70.9134 2.58667C65.1064 16.4291 61.3153 18.9358 56.2493 27.5665C56.1134 27.7968 56.0243 28.0518 55.987 28.3166C55.9496 28.5815 55.9642 28.8509 56.031 29.1099C56.0978 29.3689 56.215 29.6121 56.3759 29.8258C56.5367 30.0396 56.7377 30.2194 56.9681 30.3553C57.1985 30.4912 57.4539 30.5804 57.7187 30.6177C57.9836 30.6551 58.2535 30.6401 58.5125 30.5732C58.7715 30.5063 59.0147 30.3892 59.2284 30.2283C59.4421 30.0674 59.6221 29.866 59.7579 29.6356C64.5415 21.4859 68.6779 18.4104 74.6618 4.14603C74.8 3.83217 74.8563 3.48815 74.8258 3.14659C74.7953 2.80504 74.6782 2.47701 74.4866 2.19261C74.295 1.90821 74.0354 1.67681 73.7303 1.52023C73.4252 1.36364 73.0854 1.28707 72.7426 1.29719V1.29672Z" fill="black"/>
</svg>
