<svg width="131" height="130" viewBox="0 0 131 130" fill="none" xmlns="http://www.w3.org/2000/svg">
<path d="M43.1523 79.6453H87.4945V130H43.1523V79.6453Z" fill="#EB725F"/>
<path d="M6.16406 98.2313H43.1531V130H6.16406V98.2313Z" fill="#7CA3C2"/>
<path d="M24.6691 101.481L28.7723 109.809L37.9535 111.13L31.3113 117.609L32.8754 126.75L24.6691 122.444L16.4629 126.75L18.027 117.609L11.3848 111.13L20.566 109.809L24.6691 101.481Z" fill="#E9E9E9"/>
<path d="M87.5156 98.2313H124.505V130H87.5156V98.2313Z" fill="#7CA3C2"/>
<path d="M105.999 101.481L110.102 109.809L119.284 111.13L112.641 117.609L114.205 126.75L105.999 122.444L97.793 126.75L99.357 117.609L92.7148 111.13L101.896 109.809L105.999 101.481ZM65.3336 88.7453L70.5539 99.3281L82.2336 101.034L73.7836 109.261L75.7742 120.9L65.3336 115.395L54.893 120.9L56.8836 109.261L48.4336 101.034L60.1133 99.3281L65.3336 88.7453Z" fill="#E9E9E9"/>
<path d="M56.6406 57.8703C60.9875 53.3406 63.0188 47.2266 62.0234 39.975H68.625C67.6297 47.2266 69.6609 53.3406 74.0078 57.8703H56.6406Z" fill="#E8AA60"/>
<path d="M87.4129 2.68124C87.4129 4.24531 87.3723 5.78906 87.2504 7.31249C87.1895 8.22656 87.1082 9.12031 87.0066 10.0141C86.1738 17.7734 84.0004 24.7 80.9535 30.0828C80.4863 30.8953 79.9988 31.6875 79.491 32.4391C75.652 38.0656 70.716 41.4781 65.3129 41.4781C59.7473 41.4781 54.6488 37.8422 50.7691 31.8703C50.2613 31.0984 49.7941 30.3062 49.3473 29.4734C46.3816 24.05 44.3301 17.1234 43.5582 9.42499C43.3271 7.19811 43.2118 4.96072 43.2129 2.72187H87.4129V2.68124Z" fill="#F0BB73"/>
<path d="M87.6176 2.68125H43.052C42.6964 2.68125 42.3554 2.54001 42.104 2.28859C41.8526 2.03717 41.7113 1.69618 41.7113 1.34063C41.7113 0.985069 41.8526 0.644076 42.104 0.39266C42.3554 0.141244 42.6964 0 43.052 0L87.6176 0C88.3488 0 88.9582 0.589063 88.9582 1.34063C88.9582 2.07188 88.3488 2.68125 87.6176 2.68125ZM94.9098 19.3578C94.9098 26.6703 89.0191 32.6219 81.7879 32.6219C81.016 32.6219 80.2441 32.5609 79.5129 32.4188C80.0207 31.6672 80.5082 30.8953 80.9754 30.0625C81.2394 30.0828 81.5035 30.1031 81.7879 30.1031C87.6379 30.1031 92.4113 25.2891 92.4113 19.3578C92.4113 15.3562 90.2582 11.8625 87.0285 10.0141C87.1301 9.12031 87.2113 8.22656 87.2723 7.3125C89.5582 8.38711 91.4907 10.0908 92.8433 12.2241C94.1959 14.3573 94.9127 16.8319 94.9098 19.3578ZM50.7707 31.8297C50.1613 31.9109 49.5316 31.9719 48.8816 31.9719C41.6301 31.9719 35.7598 26.0203 35.7598 18.7078C35.7598 13.3859 38.8676 8.775 43.3566 6.68281C43.3973 7.59687 43.4785 8.51094 43.5801 9.40469C41.9635 10.3602 40.6242 11.721 39.6944 13.3525C38.7646 14.9841 38.2766 16.8299 38.2785 18.7078C38.2785 24.6391 43.0316 29.4734 48.9019 29.4734C49.0645 29.4734 49.2066 29.4734 49.3691 29.4531C49.816 30.2656 50.2832 31.0781 50.7707 31.8297Z" fill="#E8AA60"/>
<path d="M76.4656 61.1812H54.2031V59.3531C54.2031 58.5203 54.8734 57.8703 55.6859 57.8703H74.9422C75.775 57.8703 76.425 58.5406 76.425 59.3531V61.1812H76.4656Z" fill="#F0BB73"/>
<path d="M47.8652 61.1812H82.8231V76.3953H47.8652V61.1812Z" fill="#5E5E61"/>
<path d="M51.3789 63.9031H79.3086V73.6531H51.3789V63.9031Z" fill="#48484C"/>
<path d="M84.8551 79.6453H45.8145V77.8781C45.8145 77.0453 46.4848 76.3953 47.2973 76.3953H83.352C84.1848 76.3953 84.8348 77.0656 84.8348 77.8781V79.6453H84.8551Z" fill="#754C24"/>
<path d="M54.9949 65.975C54.9949 66.1678 54.9377 66.3563 54.8306 66.5167C54.7235 66.677 54.5712 66.802 54.393 66.8758C54.2149 66.9496 54.0188 66.9689 53.8297 66.9313C53.6406 66.8936 53.4669 66.8008 53.3305 66.6644C53.1941 66.5281 53.1013 66.3543 53.0637 66.1652C53.026 65.9761 53.0453 65.78 53.1191 65.6019C53.1929 65.4237 53.3179 65.2715 53.4782 65.1643C53.6386 65.0572 53.8271 65 54.0199 65C54.548 65 54.9949 65.4469 54.9949 65.975Z" fill="#E9E9E9"/>
<path d="M76.6488 66.95C77.1873 66.95 77.6238 66.5135 77.6238 65.975C77.6238 65.4365 77.1873 65 76.6488 65C76.1103 65 75.6738 65.4365 75.6738 65.975C75.6738 66.5135 76.1103 66.95 76.6488 66.95Z" fill="#E9E9E9"/>
<path d="M54.9949 71.6016C54.9949 71.7944 54.9377 71.9829 54.8306 72.1432C54.7235 72.3036 54.5712 72.4285 54.393 72.5023C54.2149 72.5761 54.0188 72.5954 53.8297 72.5578C53.6406 72.5202 53.4669 72.4273 53.3305 72.291C53.1941 72.1546 53.1013 71.9809 53.0637 71.7918C53.026 71.6026 53.0453 71.4066 53.1191 71.2284C53.1929 71.0503 53.3179 70.898 53.4782 70.7909C53.6386 70.6837 53.8271 70.6266 54.0199 70.6266C54.548 70.6469 54.9949 71.0734 54.9949 71.6016Z" fill="#E9E9E9"/>
<path d="M76.6488 72.5766C77.1873 72.5766 77.6238 72.14 77.6238 71.6016C77.6238 71.0631 77.1873 70.6266 76.6488 70.6266C76.1103 70.6266 75.6738 71.0631 75.6738 71.6016C75.6738 72.14 76.1103 72.5766 76.6488 72.5766Z" fill="#E9E9E9"/>
<path d="M65.3332 9.52655L68.7457 16.4328L76.3832 17.55L70.8582 22.9328L72.1582 30.5297L65.3332 26.9344L58.5082 30.5297L59.8082 22.9328L54.2832 17.55L61.9207 16.4328L65.3332 9.52655Z" fill="#DA4765"/>
</svg>
