<svg width="101" height="100" viewBox="0 0 101 100" fill="none" xmlns="http://www.w3.org/2000/svg">
<path d="M9.57227 79.1672H91.5624C91.5624 80.6805 90.3359 81.907 88.8226 81.907H12.3118C10.7988 81.907 9.57227 80.6805 9.57227 79.1672Z" fill="#0F3B7A"/>
<path d="M91.6721 75.1578H9.32754C8.1397 75.1578 7.17676 76.1208 7.17676 77.3086V77.3094C7.17676 78.4972 8.1397 79.4602 9.32754 79.4602H91.6721C92.8599 79.4602 93.8229 78.4972 93.8229 77.3094V77.3086C93.8229 76.1208 92.8599 75.1578 91.6721 75.1578Z" fill="white" stroke="#0F3B7A" stroke-width="2"/>
<path d="M22.7914 19.6445H13.9492C11.7919 19.6445 10.043 21.3934 10.043 23.5508V70.3016C10.043 72.4589 11.7919 74.2078 13.9492 74.2078H22.7914C24.9488 74.2078 26.6977 72.4589 26.6977 70.3016V23.5508C26.6977 21.3934 24.9488 19.6445 22.7914 19.6445Z" fill="#0F3B7A" stroke="#0F3B7A" stroke-width="2" stroke-linecap="round" stroke-linejoin="round"/>
<path d="M39.7406 19.6445H30.8984C28.7411 19.6445 26.9922 21.3934 26.9922 23.5508V70.3016C26.9922 72.4589 28.7411 74.2078 30.8984 74.2078H39.7406C41.898 74.2078 43.6469 72.4589 43.6469 70.3016V23.5508C43.6469 21.3934 41.898 19.6445 39.7406 19.6445Z" fill="#BD2122" stroke="#BD2122" stroke-width="2" stroke-linecap="round" stroke-linejoin="round"/>
<path d="M18.3162 56.0735C20.0619 56.0735 21.4771 54.0258 21.4771 51.5C21.4771 48.9742 20.0619 46.9266 18.3162 46.9266C16.5705 46.9266 15.1553 48.9742 15.1553 51.5C15.1553 54.0258 16.5705 56.0735 18.3162 56.0735Z" stroke="white" stroke-width="2"/>
<path d="M35.3191 56.0735C37.0649 56.0735 38.4801 54.0258 38.4801 51.5C38.4801 48.9742 37.0649 46.9266 35.3191 46.9266C33.5734 46.9266 32.1582 48.9742 32.1582 51.5C32.1582 54.0258 33.5734 56.0735 35.3191 56.0735Z" stroke="white" stroke-width="2"/>
<path d="M10.3791 30.0439H26.1178M10.3789 33.5415H26.1177M27.4499 30.0439H43.1887M27.45 33.5415H43.1888" stroke="white" stroke-width="2" stroke-linecap="round" stroke-linejoin="round"/>
<path d="M56.6898 19.6445H47.8477C45.6903 19.6445 43.9414 21.3934 43.9414 23.5508V70.3016C43.9414 72.4589 45.6903 74.2078 47.8477 74.2078H56.6898C58.8472 74.2078 60.5961 72.4589 60.5961 70.3016V23.5508C60.5961 21.3934 58.8472 19.6445 56.6898 19.6445Z" fill="#FFD84C" stroke="#FFD84C" stroke-width="2" stroke-linecap="round" stroke-linejoin="round"/>
<path d="M52.2684 56.0735C54.0141 56.0735 55.4293 54.0258 55.4293 51.5C55.4293 48.9742 54.0141 46.9266 52.2684 46.9266C50.5226 46.9266 49.1074 48.9742 49.1074 51.5C49.1074 54.0258 50.5226 56.0735 52.2684 56.0735Z" stroke="white" stroke-width="2"/>
<path d="M44.0768 30.044H59.8156M44.0762 33.5415H59.815" stroke="white" stroke-width="2" stroke-linecap="round" stroke-linejoin="round"/>
<path d="M72.3247 19.1037L63.239 21.5382C61.1551 22.0965 59.9185 24.2385 60.4768 26.3223L72.7208 72.0174C73.2792 74.1013 75.4211 75.3379 77.505 74.7796L86.5907 72.345C88.6745 71.7867 89.9112 69.6447 89.3528 67.5609L77.1089 21.8658C76.5505 19.7819 74.4086 18.5453 72.3247 19.1037Z" fill="#3B8CF7"/>
<path d="M77.2849 55.7606C78.9711 55.3087 79.8082 52.9646 79.1544 50.5248C78.5007 48.0851 76.6037 46.4735 74.9175 46.9254C73.2312 47.3772 72.3942 49.7213 73.048 52.1611C73.7017 54.6008 75.5986 56.2124 77.2849 55.7606Z" fill="#0F3B7A" stroke="white" stroke-width="2"/>
<path d="M63.6543 32.4652L77.3174 28.8041M64.5598 35.8434L78.2228 32.1823" stroke="white" stroke-width="2" stroke-linecap="round" stroke-linejoin="round"/>
</svg>
