<svg width="101" height="100" viewBox="0 0 101 100" fill="none" xmlns="http://www.w3.org/2000/svg">
<path d="M23.2705 56.7012C23.2705 54.1124 25.3692 52.0137 27.958 52.0137H85.6145C86.4356 52.0137 86.8598 53.3826 86.2723 53.956C84.8028 55.3898 83.2567 57.62 83.2567 60.6549C83.2567 63.7876 84.9043 66.11 86.4137 67.5803C86.995 68.1465 86.5801 69.4569 85.7684 69.4569H27.958C25.3692 69.4569 23.2705 67.3583 23.2705 64.7694V56.7012Z" fill="#0F3B7A"/>
<path d="M56.1042 23.7966C56.1042 28.3008 52.7627 33.5832 46.0795 33.5832C39.3963 33.5832 36.0547 28.3008 36.0547 23.7966C36.0547 18.9407 39.2192 17.8867 42.6493 17.9891C44.0571 18.0312 46.0795 19.103 46.0795 19.103C46.0795 19.103 48.1018 18.0312 49.5096 17.9891C52.9397 17.8867 56.1042 18.9033 56.1042 23.7966Z" fill="#BD2122" stroke="#0F3B7A" stroke-width="2" stroke-linecap="round" stroke-linejoin="round"/>
<path d="M49.0449 30.6593C50.0891 30.2555 52.3698 28.671 53.1384 25.5634L49.0449 30.6593Z" fill="#47F09F"/>
<path d="M49.0449 30.6593C50.0891 30.2555 52.3698 28.671 53.1384 25.5634" stroke="#F6F9FE" stroke-width="2" stroke-linecap="round" stroke-linejoin="round"/>
<path d="M46.3375 18.7772C44.2777 18.7966 42.3939 17.3997 41.8965 13.4146C43.8589 14.1795 47.0551 13.8211 46.3375 18.7772Z" fill="#47F09F" stroke="#0F3B7A" stroke-width="2" stroke-linecap="round" stroke-linejoin="round"/>
<path d="M46.372 18.7132C47.2909 17.5645 48.6693 14.0141 47.4788 11.4244M40.5665 25.1327C40.1377 24.3291 40.0167 23.0034 40.4545 21.9842" stroke="#0F3B7A" stroke-width="2" stroke-linecap="round" stroke-linejoin="round"/>
<path d="M17.707 39.1451C17.707 36.5563 19.8057 34.4576 22.3945 34.4576H78.2761C78.2761 34.4576 73.9488 37.2507 73.4982 42.5292C73.0477 47.8077 78.2761 50.5641 78.2761 50.5641H22.3945C19.8057 50.5641 17.707 48.4655 17.707 45.8766V39.1451Z" fill="#B2D4FF"/>
<path fill-rule="evenodd" clip-rule="evenodd" d="M79.1267 35.7684C79.1259 35.7688 79.1252 35.7693 79.1244 35.7698L79.1095 35.7801C79.0892 35.7937 79.0548 35.8176 79.008 35.8516C78.9142 35.9198 78.7713 36.0284 78.5938 36.1763C78.2379 36.4733 77.7522 36.9227 77.2537 37.5176C76.2533 38.7113 75.2451 40.4353 75.0551 42.6621C74.88 44.713 75.7921 46.3078 76.864 47.4638C77.3979 48.0396 77.949 48.4793 78.367 48.7743C78.5745 48.9207 78.7455 49.0287 78.8595 49.0973C78.9158 49.1316 78.958 49.1559 78.9838 49.17C78.9963 49.1771 79.0041 49.1816 79.008 49.1837L79.0064 49.1831L79.0056 49.1825C79.0072 49.1832 79.0087 49.1838 79.0095 49.1845C79.6416 49.5207 79.965 50.2439 79.7931 50.9395C79.6205 51.6368 78.9947 52.1266 78.2761 52.1266H22.3945C18.9427 52.1266 16.1445 49.3284 16.1445 45.8766V39.1451C16.1445 35.6933 18.9427 32.8951 22.3945 32.8951H78.2761C78.9689 32.8951 79.5791 33.3513 79.7752 34.0159C79.9705 34.6786 79.7072 35.3905 79.1283 35.7671C79.1275 35.7676 79.1275 35.768 79.1267 35.7684ZM76.1879 49.0016C77.2758 50.0368 78.2761 50.5641 78.2761 50.5641H22.3945C19.8057 50.5641 17.707 48.4655 17.707 45.8766V39.1451C17.707 36.5563 19.8057 34.4576 22.3945 34.4576H78.2761C78.2761 34.4576 77.456 34.9869 76.4927 36.0201C75.2432 37.3603 73.7527 39.5485 73.4982 42.5292C73.2448 45.4988 74.7887 47.6702 76.1879 49.0016Z" fill="#0F3B7A"/>
<path d="M13.6973 75.5941C13.6973 73.0052 15.7959 70.9066 18.3848 70.9066H74.2663C74.2663 70.9066 70.3416 73.3603 69.6898 78.857C69.038 84.3547 74.2663 87.0133 74.2663 87.0133H18.3848C15.7959 87.0133 13.6973 84.9141 13.6973 82.3258V75.5941Z" fill="#B2D4FF"/>
<path fill-rule="evenodd" clip-rule="evenodd" d="M75.0985 72.229C75.0984 72.2291 75.0987 72.2289 75.0985 72.229C75.0977 72.2295 75.0968 72.2301 75.0959 72.2306C75.0959 72.2306 75.0959 72.2305 75.0959 72.2306M72.5218 72.4691C73.4624 71.4091 74.2663 70.9066 74.2663 70.9066H18.3848C15.7959 70.9066 13.6973 73.0052 13.6973 75.5941V82.3258C13.6973 84.9141 15.7959 87.0133 18.3848 87.0133H74.2663C74.2663 87.0133 73.2522 86.4976 72.1729 85.4508C70.8016 84.1203 69.325 81.9336 69.6898 78.857C70.0466 75.8482 71.3841 73.751 72.5218 72.4691ZM74.9757 85.6211C74.9773 85.6219 74.9787 85.6227 74.9803 85.6234C74.981 85.6234 74.9809 85.6234 74.9803 85.6234C75.6207 85.9523 75.9538 86.6766 75.7858 87.3773C75.6173 88.0797 74.989 88.5758 74.2663 88.5758H18.3848C14.933 88.5758 12.1348 85.7773 12.1348 82.3258V75.5941C12.1348 72.1423 14.933 69.3441 18.3848 69.3441H74.2663C74.9633 69.3441 75.576 69.8057 75.7682 70.4757C75.9596 71.1427 75.6881 71.8555 75.1026 72.2264C75.1013 72.2272 75.0997 72.2282 75.0985 72.229M74.9793 85.6227C74.9762 85.6211 74.9684 85.6172 74.9564 85.6102C74.9323 85.5969 74.8913 85.5742 74.8358 85.5414C74.7247 85.4766 74.5573 85.3727 74.3541 85.2305C73.9447 84.9445 73.4068 84.5156 72.8912 83.9469C71.8666 82.8172 70.9844 81.2086 71.2414 79.0414C71.5255 76.6457 72.5175 74.9291 73.4324 73.8092C73.8916 73.2473 74.3298 72.838 74.6448 72.5749C74.8018 72.4437 74.9269 72.3499 75.0066 72.2926C75.0465 72.2641 75.0749 72.2448 75.0902 72.2346L75.0985 72.229L75.0969 72.23L75.0959 72.2306M74.9793 85.6227H74.9784L74.9767 85.6211" fill="#0F3B7A"/>
<path d="M27.9512 56.7347H64.3745M27.9512 60.7355H47.8337" stroke="#B2D4FF" stroke-width="2" stroke-linecap="round" stroke-linejoin="round"/>
<path d="M60.6152 33.9214H67.0893V43.4998C67.0893 44.1958 66.2478 44.5444 65.7556 44.0522L64.4047 42.7013C64.0996 42.3962 63.6049 42.3962 63.2998 42.7013L61.9489 44.0522C61.4567 44.5444 60.6152 44.1958 60.6152 43.4998V33.9214Z" fill="#BD2122"/>
<path d="M17.2578 74.9592H53.6812M17.2578 78.9602H37.1403M21.9361 38.635H52.5116" stroke="#0F3B7A" stroke-width="2" stroke-linecap="round" stroke-linejoin="round"/>
</svg>
