<svg width="101" height="100" viewBox="0 0 101 100" fill="none" xmlns="http://www.w3.org/2000/svg">
<path d="M25.6982 23.277C25.6982 20.0946 28.278 17.5148 31.4604 17.5148H74.8211C78.0035 17.5148 80.5832 20.0946 80.5832 23.277V82.0055C80.5832 85.1875 78.0035 87.768 74.8211 87.768H31.4604C28.278 87.768 25.6982 85.1875 25.6982 82.0055V23.277Z" fill="#0F3B7A"/>
<path d="M21.8564 19.435C21.8564 16.2526 24.4363 13.6728 27.6186 13.6728H70.9793C74.1618 13.6728 76.7415 16.2526 76.7415 19.435V78.1633C76.7415 81.3461 74.1618 83.9258 70.9793 83.9258H27.6186C24.4363 83.9258 21.8564 81.3461 21.8564 78.1633V19.435Z" fill="white"/>
<path fill-rule="evenodd" clip-rule="evenodd" d="M27.6187 12.2322H70.9795C74.9574 12.2322 78.1822 15.4571 78.1822 19.435V78.1633C78.1822 82.1414 74.9574 85.3664 70.9795 85.3664H27.6187C23.6408 85.3664 20.416 82.1414 20.416 78.1633V19.435C20.416 15.457 23.6409 12.2322 27.6187 12.2322ZM27.6187 13.6728C24.4364 13.6728 21.8566 16.2526 21.8566 19.435V78.1633C21.8566 81.3461 24.4364 83.9258 27.6187 83.9258H70.9795C74.1619 83.9258 76.7416 81.3461 76.7416 78.1633V19.435C76.7416 16.2526 74.1619 13.6728 70.9795 13.6728H27.6187Z" fill="#0F3B7A"/>
<path d="M28.5117 23.0042C28.5117 21.413 29.8016 20.1231 31.3928 20.1231H67.9608C69.552 20.1231 70.8419 21.413 70.8419 23.0042V29.7552C70.8419 31.3464 69.552 32.6363 67.9608 32.6363H31.3928C29.8016 32.6363 28.5117 31.3464 28.5117 29.7552V23.0042Z" fill="#0F3B7A"/>
<path fill-rule="evenodd" clip-rule="evenodd" d="M31.05 37.7258H37.225C38.8161 37.7258 40.1061 39.0157 40.1061 40.6069V41.8985C40.1061 43.4897 38.8161 44.7796 37.225 44.7796H31.05C29.4589 44.7796 28.1689 43.4897 28.1689 41.8985V40.6069C28.1689 39.0157 29.4589 37.7258 31.05 37.7258ZM31.05 39.1664C30.2544 39.1664 29.6095 39.8113 29.6095 40.6069V41.8985C29.6095 42.694 30.2544 43.339 31.05 43.339H37.225C38.0206 43.339 38.6655 42.694 38.6655 41.8985V40.6069C38.6655 39.8113 38.0206 39.1664 37.225 39.1664H31.05ZM31.05 47.879H37.225C38.8161 47.879 40.1061 49.1689 40.1061 50.7601V52.0517C40.1061 53.6429 38.8161 54.9328 37.225 54.9328H31.05C29.4589 54.9328 28.1689 53.6429 28.1689 52.0517V50.7601C28.1689 49.1689 29.4589 47.879 31.05 47.879ZM31.05 49.3196C30.2544 49.3196 29.6095 49.9645 29.6095 50.7601V52.0517C29.6095 52.8472 30.2544 53.4922 31.05 53.4922H37.225C38.0206 53.4922 38.6655 52.8472 38.6655 52.0517V50.7601C38.6655 49.9645 38.0206 49.3196 37.225 49.3196H31.05ZM31.05 58.5815H37.225C38.8161 58.5815 40.1061 59.8713 40.1061 61.4625V62.7541C40.1061 64.3453 38.8161 65.6352 37.225 65.6352H31.05C29.4589 65.6352 28.1689 64.3453 28.1689 62.7541V61.4625C28.1689 59.8713 29.4589 58.5815 31.05 58.5815ZM31.05 60.022C30.2544 60.022 29.6095 60.6669 29.6095 61.4625V62.7541C29.6095 63.5497 30.2544 64.1947 31.05 64.1947H37.225C38.0206 64.1947 38.6655 63.5497 38.6655 62.7541V61.4625C38.6655 60.6669 38.0206 60.022 37.225 60.022H31.05ZM31.05 69.2842H37.225C38.8161 69.2842 40.1061 70.5741 40.1061 72.1653V73.4568C40.1061 75.0481 38.8161 76.3379 37.225 76.3379H31.05C29.4589 76.3379 28.1689 75.0481 28.1689 73.4568V72.1653C28.1689 70.5741 29.4589 69.2842 31.05 69.2842ZM31.05 70.7247C30.2544 70.7247 29.6095 71.3697 29.6095 72.1653V73.4568C29.6095 74.2525 30.2544 74.8974 31.05 74.8974H37.225C38.0206 74.8974 38.6655 74.2525 38.6655 73.4568V72.1653C38.6655 71.3697 38.0206 70.7247 37.225 70.7247H31.05ZM46.9668 37.7258H53.1417C54.7329 37.7258 56.0228 39.0157 56.0228 40.6069V41.8985C56.0228 43.4897 54.7329 44.7796 53.1417 44.7796H46.9668C45.3756 44.7796 44.0857 43.4897 44.0857 41.8985V40.6069C44.0857 39.0157 45.3756 37.7258 46.9668 37.7258ZM46.9668 39.1664C46.1712 39.1664 45.5262 39.8113 45.5262 40.6069V41.8985C45.5262 42.694 46.1712 43.339 46.9668 43.339H53.1417C53.9373 43.339 54.5822 42.694 54.5822 41.8985V40.6069C54.5822 39.8113 53.9373 39.1664 53.1417 39.1664H46.9668ZM46.9668 47.879H53.1417C54.7329 47.879 56.0228 49.1689 56.0228 50.7601V52.0517C56.0228 53.6429 54.7329 54.9328 53.1417 54.9328H46.9668C45.3756 54.9328 44.0857 53.6429 44.0857 52.0517V50.7601C44.0857 49.1689 45.3756 47.879 46.9668 47.879ZM46.9668 49.3196C46.1712 49.3196 45.5262 49.9645 45.5262 50.7601V52.0517C45.5262 52.8472 46.1712 53.4922 46.9668 53.4922H53.1417C53.9373 53.4922 54.5822 52.8472 54.5822 52.0517V50.7601C54.5822 49.9645 53.9373 49.3196 53.1417 49.3196H46.9668ZM46.9668 58.5815H53.1417C54.7329 58.5815 56.0228 59.8713 56.0228 61.4625V62.7541C56.0228 64.3453 54.7329 65.6352 53.1417 65.6352H46.9668C45.3756 65.6352 44.0857 64.3453 44.0857 62.7541V61.4625C44.0857 59.8713 45.3756 58.5815 46.9668 58.5815ZM46.9668 60.022C46.1712 60.022 45.5262 60.6669 45.5262 61.4625V62.7541C45.5262 63.5497 46.1712 64.1947 46.9668 64.1947H53.1417C53.9373 64.1947 54.5822 63.5497 54.5822 62.7541V61.4625C54.5822 60.6669 53.9373 60.022 53.1417 60.022H46.9668ZM46.9668 69.2842H53.1417C54.7329 69.2842 56.0228 70.5741 56.0228 72.1653V73.4568C56.0228 75.0481 54.7329 76.3379 53.1417 76.3379H46.9668C45.3756 76.3379 44.0857 75.0481 44.0857 73.4568V72.1653C44.0857 70.5741 45.3756 69.2842 46.9668 69.2842ZM46.9668 70.7247C46.1712 70.7247 45.5262 71.3697 45.5262 72.1653V73.4568C45.5262 74.2525 46.1712 74.8974 46.9668 74.8974H53.1417C53.9373 74.8974 54.5822 74.2525 54.5822 73.4568V72.1653C54.5822 71.3697 53.9373 70.7247 53.1417 70.7247H46.9668ZM62.472 37.7258H68.6469C70.2381 37.7258 71.528 39.0157 71.528 40.6069V41.8985C71.528 43.4897 70.2381 44.7796 68.6469 44.7796H62.472C60.8808 44.7796 59.5909 43.4897 59.5909 41.8985V40.6069C59.5909 39.0157 60.8808 37.7258 62.472 37.7258ZM62.472 39.1664C61.6764 39.1664 61.0314 39.8113 61.0314 40.6069V41.8985C61.0314 42.694 61.6764 43.339 62.472 43.339H68.6469C69.4425 43.339 70.0875 42.694 70.0875 41.8985V40.6069C70.0875 39.8113 69.4425 39.1664 68.6469 39.1664H62.472ZM61.6482 47.879H67.8231C69.4143 47.879 70.7042 49.1689 70.7042 50.7601V73.4565C70.7042 75.0478 69.4143 76.3376 67.8231 76.3376H61.6482C60.057 76.3376 58.7671 75.0478 58.7671 73.4565V50.76C58.7671 49.1689 60.057 47.879 61.6482 47.879ZM61.6482 49.3196C60.8526 49.3196 60.2076 49.9645 60.2076 50.76V73.4565C60.2076 74.2522 60.8526 74.8971 61.6482 74.8971H67.8231C68.6187 74.8971 69.2636 74.2522 69.2636 73.4565V50.7601C69.2636 49.9645 68.6187 49.3196 67.8231 49.3196H61.6482Z" fill="#BD2122"/>
<path fill-rule="evenodd" clip-rule="evenodd" d="M62.5059 60.6277C62.5059 60.2299 62.8284 59.9074 63.2262 59.9074H66.2448C66.6427 59.9074 66.9651 60.2299 66.9651 60.6277C66.9651 61.0255 66.6427 61.348 66.2448 61.348H63.2262C62.8284 61.348 62.5059 61.0255 62.5059 60.6277ZM62.5059 63.3035C62.5059 62.9057 62.8284 62.5833 63.2262 62.5833H66.2448C66.6427 62.5833 66.9651 62.9057 66.9651 63.3035C66.9651 63.7013 66.6427 64.0238 66.2448 64.0238H63.2262C62.8284 64.0238 62.5059 63.7013 62.5059 63.3035Z" fill="black"/>
<path fill-rule="evenodd" clip-rule="evenodd" d="M62.5059 24.4307C62.5059 23.3168 63.4088 22.4139 64.5227 22.4139H65.1541C66.268 22.4139 67.1709 23.3168 67.1709 24.4307V27.9779C67.1709 29.0918 66.268 29.9947 65.1541 29.9947H64.5227C63.4088 29.9947 62.5059 29.0918 62.5059 27.9779V24.4307ZM64.5227 23.8544C64.2044 23.8544 63.9464 24.1124 63.9464 24.4307V27.9779C63.9464 28.2961 64.2045 28.5542 64.5227 28.5542H65.1541C65.4724 28.5542 65.7304 28.2961 65.7304 27.9779V24.4307C65.7304 24.1124 65.4724 23.8544 65.1541 23.8544H64.5227Z" fill="white"/>
</svg>
