<svg width="227" height="194" viewBox="0 0 227 194" fill="none" xmlns="http://www.w3.org/2000/svg">
<path fill-rule="evenodd" clip-rule="evenodd" d="M113.56 4.01208C129.149 7.86536 136.121 25.6537 149.994 33.756C167.197 43.803 191.056 41.1234 203.617 56.6086C218.538 75.0046 228.461 100.342 222.646 123.326C216.708 146.795 194.593 162.241 173.781 174.529C154.129 186.133 131.735 191.513 108.954 190.455C86.5591 189.414 64.9117 182.233 47.0588 168.641C29.1603 155.015 15.9206 136.165 9.34407 114.62C2.73127 92.957 -0.00768839 68.4709 10.3318 48.3239C20.1964 29.1021 42.1828 20.5162 62.0054 12.0071C78.392 4.97298 96.2534 -0.265626 113.56 4.01208Z" fill="#FFE4F8" fill-opacity="0.5"/>
<path d="M71.5665 131.475H76.254C76.2577 132.717 76.7528 133.907 77.631 134.785C78.5093 135.664 79.6994 136.159 80.9415 136.162H87.1915C88.4336 136.159 89.6237 135.664 90.502 134.785C91.3802 133.907 91.8753 132.717 91.879 131.475V108.037C91.8753 106.795 91.3802 105.605 90.502 104.727C89.6237 103.849 88.4336 103.354 87.1915 103.35H80.9415C79.6994 103.354 78.5093 103.849 77.631 104.727C76.7528 105.605 76.2577 106.795 76.254 108.037V95.1311C76.2495 86.2508 79.5977 77.696 85.629 71.178C86.4476 72.0371 87.5634 72.5511 88.7483 72.615C89.9332 72.6789 91.0978 72.2879 92.004 71.5218C98.1492 66.4821 105.869 63.7612 113.817 63.8343C121.72 63.7768 129.394 66.4915 135.504 71.5061C136.409 72.2785 137.576 72.6748 138.765 72.6138C139.953 72.5528 141.073 72.039 141.895 71.178C147.915 77.6956 151.257 86.243 151.254 95.1155V108.037C151.25 106.795 150.755 105.605 149.877 104.727C148.999 103.849 147.809 103.354 146.566 103.35H140.316C139.074 103.354 137.884 103.849 137.006 104.727C136.128 105.605 135.633 106.795 135.629 108.037V131.475C135.633 132.717 136.128 133.907 137.006 134.785C137.884 135.664 139.074 136.159 140.316 136.162H146.566C147.1 136.158 147.628 136.063 148.129 135.881V136.162C148.125 137.404 147.63 138.595 146.752 139.473C145.874 140.351 144.684 140.846 143.441 140.85H120.004C118.762 140.846 117.572 140.351 116.694 139.473C115.815 138.595 115.32 137.404 115.316 136.162V117.725C120.967 117.425 126.389 115.396 130.848 111.912C131.62 111.257 132.238 110.44 132.659 109.519C133.08 108.599 133.294 107.597 133.285 106.584V96.7405C133.285 96.6109 133.252 96.4835 133.191 96.3697C133.129 96.2558 133.04 96.1591 132.931 96.0883C132.823 96.0175 132.698 95.9747 132.569 95.9639C132.44 95.9531 132.31 95.9746 132.191 96.0264L118.348 102.162C116.9 102.8 115.336 103.129 113.754 103.129C112.172 103.129 110.608 102.8 109.16 102.162L95.3165 96.0249C95.1978 95.9731 95.068 95.9516 94.9389 95.9624C94.8098 95.9732 94.6854 96.0159 94.5769 96.0867C94.4684 96.1575 94.3793 96.2542 94.3174 96.3681C94.2556 96.4819 94.2231 96.6094 94.2227 96.7389V106.583C94.2138 107.595 94.4275 108.597 94.8488 109.518C95.27 110.439 95.8884 111.256 96.6602 111.911C101.119 115.395 106.541 117.425 112.191 117.725V136.162C112.191 138.234 113.015 140.222 114.48 141.687C115.945 143.152 117.932 143.975 120.004 143.975H143.441C145.514 143.975 147.501 143.152 148.966 141.687C150.431 140.222 151.254 138.234 151.254 136.162V131.475H155.941C157.184 131.471 158.374 130.976 159.252 130.098C160.13 129.22 160.625 128.029 160.629 126.787V95.1155C160.643 89.2295 159.489 83.3992 157.233 77.9625C154.977 72.5259 151.665 67.5909 147.488 63.4436C143.043 59.0382 137.765 55.5608 131.963 53.2136C126.161 50.8665 119.95 49.6965 113.691 49.7718C107.461 49.7119 101.281 50.8865 95.507 53.2277C89.7331 55.5689 84.48 59.0304 80.0509 63.4124C75.8663 67.562 72.5473 72.5011 70.2862 77.9432C68.0251 83.3854 66.867 89.2223 66.879 95.1155V126.787C66.8827 128.029 67.3778 129.22 68.256 130.098C69.1343 130.976 70.3244 131.471 71.5665 131.475ZM157.504 126.787C157.504 127.202 157.339 127.599 157.046 127.892C156.753 128.185 156.356 128.35 155.941 128.35H151.254V111.162H155.941C156.356 111.162 156.753 111.327 157.046 111.62C157.339 111.913 157.504 112.31 157.504 112.725V126.787ZM146.332 66.7561C153.531 74.4422 157.526 84.5848 157.504 95.1155V108.319C157.003 108.137 156.475 108.042 155.941 108.037H154.379V95.1155C154.396 85.4091 150.733 76.0569 144.129 68.9436L146.332 66.7561ZM70.004 95.1155C69.9828 84.5774 73.9843 74.4286 81.1915 66.7405L83.379 68.9436C76.7743 76.0629 73.1118 85.42 73.129 95.1311V108.037H71.5665C71.0335 108.042 70.5051 108.137 70.004 108.319V95.1155ZM70.004 112.725C70.004 112.31 70.1686 111.913 70.4616 111.62C70.7547 111.327 71.1521 111.162 71.5665 111.162H76.254V128.35H71.5665C71.1521 128.35 70.7547 128.185 70.4616 127.892C70.1686 127.599 70.004 127.202 70.004 126.787V112.725Z" fill="#FF7FEB"/>
<path d="M117.083 99.303C121.219 97.4718 135.14 91.3139 139.02 89.5843C139.885 89.2004 140.62 88.5739 141.136 87.7807C141.651 86.9875 141.926 86.0617 141.926 85.1155C141.926 84.1693 141.651 83.2435 141.136 82.4503C140.62 81.6571 139.885 81.0306 139.02 80.6468L117.083 70.9124C116.034 70.4488 114.901 70.2093 113.754 70.2093C112.608 70.2093 111.475 70.4488 110.426 70.9124L88.4888 80.6468C87.624 81.0306 86.8891 81.6571 86.3733 82.4503C85.8576 83.2435 85.583 84.1693 85.583 85.1155C85.583 86.0617 85.8576 86.9875 86.3733 87.7807C86.8891 88.5739 87.624 89.2004 88.4888 89.5843C92.2904 91.2796 106.375 97.5093 110.426 99.303C111.475 99.7666 112.608 100.006 113.754 100.006C114.901 100.006 116.034 99.7666 117.083 99.303Z" fill="#FF7FEB"/>
</svg>
