<svg width="301" height="315" viewBox="0 0 301 315" fill="none" xmlns="http://www.w3.org/2000/svg">
<path d="M107.446 127.87H32.454C17.5898 127.87 5.54102 140.494 5.54102 156.067C5.54102 171.64 17.5898 184.264 32.454 184.264H107.446C122.309 184.264 134.358 171.64 134.358 156.067C134.358 140.494 122.309 127.87 107.446 127.87ZM268.951 78.5078H240.415C225.55 78.5078 213.502 91.132 213.502 106.705V106.705C213.502 122.278 225.55 134.902 240.415 134.902H268.951C283.814 134.902 295.864 122.278 295.864 106.705V106.705C295.864 91.1319 283.814 78.5078 268.951 78.5078ZM260.862 215.588H212.91C198.047 215.588 185.998 228.212 185.998 243.785V243.785C185.998 259.358 198.047 271.982 212.91 271.982H260.862C275.726 271.982 287.775 259.358 287.775 243.785V243.785C287.775 228.212 275.726 215.588 260.862 215.588Z" fill="#B2D4FF"/>
<path d="M60.638 171.714C49.2587 187.957 49.2587 213.047 60.638 229.29C62.2754 231.628 64.9771 232.944 67.7319 232.669C143.699 225.108 161.924 225.14 238.393 232.767C240.755 233.002 243.178 232.139 244.764 230.291C258.385 214.413 259.213 188.873 245.045 171.226C243.374 169.145 240.832 167.994 238.248 168.252C161.902 175.865 143.651 175.891 67.7319 168.335C64.9771 168.061 62.2754 169.376 60.638 171.714Z" fill="white"/>
<path d="M172.7 227.024H134.732C141.046 209.397 141.446 191.643 134.732 173.736H172.7C178.779 192.477 178.818 210.247 172.7 227.024Z" fill="#0F3B7A"/>
<path d="M173.183 268.856L153.715 255.584L134.731 268.856V227.025H173.183V268.856Z" fill="#0F3B7A"/>
<path d="M209.926 97.0219H97.5059L97.5066 143.624C97.5066 163.821 209.926 163.821 209.926 143.624L209.926 97.0219Z" fill="#0F3B7A"/>
<path d="M70.5469 94.1425L153.698 71.4069L236.886 94.1425L153.698 116.875L70.5469 94.1425Z" fill="white"/>
<path d="M236.886 123.474C233.019 123.474 229.885 126.758 229.885 130.81V141.671H243.887V130.81C243.887 126.758 240.753 123.474 236.886 123.474Z" fill="#0F3B7A"/>
<path d="M130.428 142.003C134.025 142.003 136.941 138.948 136.941 135.18C136.941 131.411 134.025 128.356 130.428 128.356C126.831 128.356 123.915 131.411 123.915 135.18C123.915 138.948 126.831 142.003 130.428 142.003Z" fill="white"/>
<path d="M153.718 142.003C157.315 142.003 160.231 138.948 160.231 135.18C160.231 131.411 157.315 128.356 153.718 128.356C150.121 128.356 147.205 131.411 147.205 135.18C147.205 138.948 150.121 142.003 153.718 142.003Z" fill="white"/>
<path d="M177.005 142.003C180.602 142.003 183.518 138.948 183.518 135.18C183.518 131.411 180.602 128.356 177.005 128.356C173.408 128.356 170.492 131.411 170.492 135.18C170.492 138.948 173.408 142.003 177.005 142.003Z" fill="white"/>
<path d="M153.715 100.013C161.043 100.013 166.983 97.3848 166.983 94.1426C166.983 90.9003 161.043 88.2719 153.715 88.2719C146.387 88.2719 140.447 90.9003 140.447 94.1426C140.447 97.3848 146.387 100.013 153.715 100.013Z" fill="#0F3B7A"/>
<path d="M246.271 170.143C244.238 167.609 241.206 166.257 238.109 166.561C162.611 174.059 143.569 174.131 67.8836 166.662C64.5609 166.324 61.3028 167.879 59.3347 170.718C47.6254 187.414 47.6254 213.573 59.3347 230.303C61.3028 233.108 64.5609 234.697 67.8836 234.359C95.2706 231.621 115.174 229.898 133.109 229.154V268.866C133.109 269.475 133.432 270.049 133.98 270.353C134.496 270.624 135.141 270.59 135.626 270.252L153.723 257.612L172.303 270.286C172.828 270.629 173.476 270.636 173.948 270.353C174.464 270.049 174.786 269.475 174.786 268.866V229.255C192.206 230.1 211.754 231.824 238.238 234.46C238.561 234.494 238.851 234.494 239.173 234.494C241.819 234.494 244.303 233.379 245.948 231.419C260.561 214.418 260.69 188.09 246.271 170.143ZM171.528 175.416C176.981 192.923 177.012 209.72 171.593 225.335H137.012C142.593 208.436 142.593 191.672 137.045 175.416C167.552 175.874 154.99 175.474 171.528 175.416ZM67.593 230.979C65.3996 231.182 63.2378 230.168 61.9478 228.275C51.0127 212.695 51.0127 188.293 61.9478 172.712C63.2378 170.853 65.3996 169.805 67.593 170.008C95.3029 172.78 115.432 174.537 133.561 175.281C139.496 191.639 139.464 208.605 133.464 225.741C115.335 226.45 95.3029 228.208 67.593 230.979ZM171.561 265.723L154.593 254.165C154.023 253.79 153.343 253.821 152.818 254.165L136.335 265.689V229.053C148.27 228.614 159.464 228.647 171.561 229.154V265.723ZM243.561 229.154C242.368 230.54 240.464 231.25 238.561 231.081C211.948 228.411 192.335 226.687 174.819 225.876C180.206 209.923 180.238 192.889 174.851 175.146C192.303 174.301 211.883 172.577 238.4 169.941C240.464 169.738 242.464 170.617 243.819 172.306C257.174 188.969 257.077 213.405 243.561 229.154ZM70.1415 95.7885L95.8833 102.819V143.612C95.8833 156.05 127.045 160.477 153.723 160.477C180.399 160.477 211.529 156.05 211.529 143.612V102.819L235.27 96.3294V121.914C231.303 122.725 228.271 126.409 228.271 130.803V141.686C228.271 142.598 228.98 143.376 229.883 143.376H243.883C244.787 143.376 245.496 142.598 245.496 141.686V130.803C245.496 126.409 242.464 122.725 238.496 121.914V94.1325C238.496 93.2437 237.774 92.5428 237.142 92.4765L154.109 69.7646C153.851 69.6969 153.56 69.6969 153.303 69.7646L70.1415 92.5103C69.4319 92.7131 68.9475 93.3891 68.9475 94.1325C68.9476 94.9098 69.4319 95.5858 70.1415 95.7885ZM208.303 143.612C208.303 151.183 184.335 157.098 153.723 157.098C123.109 157.098 99.1091 151.183 99.1091 143.612V103.697L153.303 118.501C153.432 118.535 153.56 118.568 153.69 118.568C153.851 118.568 153.98 118.535 154.109 118.501L208.303 103.697V143.612ZM242.27 130.803V139.996H231.496V130.803C231.496 127.694 233.916 125.159 236.883 125.159C239.851 125.159 242.27 127.694 242.27 130.803ZM153.69 73.1443L224.303 92.4426H168.239C166.722 88.6235 160.045 86.5957 153.723 86.5957C146.496 86.5957 138.851 89.2318 138.851 94.1325C138.851 99.8089 148.244 101.703 153.723 101.703C158.509 101.703 166.619 100.219 168.27 95.8224C189.129 95.8224 203.195 95.8224 224.303 95.8224C193.561 104.2 184.753 106.631 153.69 115.121C145.842 112.975 182.115 122.895 76.9475 94.1325L153.69 73.1443ZM153.723 98.3234C149.94 98.3234 142.077 96.7317 142.077 94.1325C142.077 92.4764 146.722 89.9755 153.723 89.9755C160.722 89.9755 165.367 92.4764 165.367 94.1325C165.367 96.794 157.641 98.3234 153.723 98.3234Z" fill="#0F3B7A"/>
<path d="M70.5478 59.0336C73.9256 59.0336 76.6639 56.1646 76.6639 52.6256C76.6639 49.0865 73.9256 46.2175 70.5478 46.2175C67.1699 46.2175 64.4316 49.0865 64.4316 52.6256C64.4316 56.1646 67.1699 59.0336 70.5478 59.0336Z" fill="#FFACAC"/>
<path d="M23.7506 234.413C28.7016 234.413 32.7152 230.208 32.7152 225.021C32.7152 219.833 28.7016 215.628 23.7506 215.628C18.7997 215.628 14.7861 219.833 14.7861 225.021C14.7861 230.208 18.7997 234.413 23.7506 234.413Z" fill="#3B8CF7"/>
<path d="M216.083 46.2174C221.034 46.2174 225.047 42.0123 225.047 36.825C225.047 31.6378 221.034 27.4327 216.083 27.4327C211.132 27.4327 207.118 31.6378 207.118 36.825C207.118 42.0123 211.132 46.2174 216.083 46.2174Z" fill="#FFE794"/>
<path d="M280.596 179.725C282.958 179.725 284.873 177.718 284.873 175.243C284.873 172.768 282.958 170.762 280.596 170.762C278.233 170.762 276.318 172.768 276.318 175.243C276.318 177.718 278.233 179.725 280.596 179.725Z" fill="#FF7FEB"/>
<path d="M100.863 287.817C108.444 287.817 114.589 281.378 114.589 273.436C114.589 265.493 108.444 259.055 100.863 259.055C93.2829 259.055 87.1377 265.493 87.1377 273.436C87.1377 281.378 93.2829 287.817 100.863 287.817Z" fill="#FF5151"/>
</svg>
