<svg width="151" height="188" viewBox="0 0 151 188" fill="none" xmlns="http://www.w3.org/2000/svg">
<g clip-path="url(#clip0_294_1503)">
<path d="M0.5 0.5H150.5V187.5H0.5V0.5Z" fill="#4A6D8B"/>
<path opacity="0.69" d="M114.114 56.7332H90.7338V47.0092H97.2498C99.4037 47.0092 101.15 44.8323 101.15 42.1472C101.15 39.462 99.4037 37.2852 97.2498 37.2852H58.9338C56.78 37.2852 55.0338 39.462 55.0338 42.1472C55.0338 44.8323 56.78 47.0092 58.9338 47.0092H67.241C69.3948 47.0092 71.141 49.186 71.141 51.8712C71.141 54.5563 69.3948 56.7332 67.241 56.7332H40.5338C38.3799 56.7332 36.6338 58.91 36.6338 61.5952C36.6338 64.2803 38.3799 66.4572 40.5338 66.4572H51.1499C53.3037 66.4572 55.0499 68.634 55.0499 71.3192C55.0499 74.0043 53.3037 76.1812 51.1499 76.1812H46.6611C44.5073 76.1812 42.7611 78.358 42.7611 81.0432C42.7611 83.7283 44.5073 85.9052 46.6611 85.9052H61.4582V95.6292H50.0549C47.901 95.6292 46.1549 97.806 46.1549 100.491C46.1549 103.176 47.901 105.353 50.0549 105.353H70.841C72.9948 105.353 74.741 107.53 74.741 110.215C74.741 112.9 72.9948 115.077 70.841 115.077H59.2206C57.0668 115.077 55.3206 117.254 55.3206 119.939C55.3206 122.624 57.0668 124.801 59.2206 124.801H103.716C105.87 124.801 107.616 122.624 107.616 119.939C107.616 117.254 105.87 115.077 103.716 115.077H92.5337V105.353H96.0809C98.2347 105.353 99.9809 103.176 99.9809 100.491C99.9809 97.806 98.2347 95.6292 96.0809 95.6292H92.5337V85.9052H107.331C109.485 85.9052 111.231 83.7283 111.231 81.0432C111.231 78.358 109.485 76.1812 107.331 76.1812H107.878V66.4572H114.114C116.268 66.4572 118.014 64.2803 118.014 61.5952C118.014 58.91 116.268 56.7332 114.114 56.7332Z" fill="#395D77"/>
<path opacity="0.5" d="M40.3711 95.1719H36.2965C34.1426 95.1719 32.3965 92.9951 32.3965 90.3099C32.3965 87.6248 34.1426 85.4479 36.2965 85.4479H40.3711C42.5249 85.4479 44.2711 87.6248 44.2711 90.3099C44.2711 92.9951 42.5249 95.1719 40.3711 95.1719Z" fill="#825D7E"/>
<path d="M77.8749 76.1812H69.9723C67.8184 76.1812 66.0723 74.0043 66.0723 71.3192C66.0723 68.634 67.8184 66.4572 69.9723 66.4572H77.8749C80.0287 66.4572 81.7749 68.634 81.7749 71.3192C81.7749 74.0045 80.0287 76.1812 77.8749 76.1812ZM112.689 76.1812H95.9298C93.7759 76.1812 92.0298 74.0043 92.0298 71.3192C92.0298 68.634 93.7759 66.4572 95.9298 66.4572H112.689C114.843 66.4572 116.589 68.634 116.589 71.3192C116.589 74.0045 114.843 76.1812 112.689 76.1812ZM98.4799 95.6292H81.7206C79.5667 95.6292 77.8206 93.4523 77.8206 90.7672C77.8206 88.082 79.5667 85.9052 81.7206 85.9052H98.4798C100.634 85.9052 102.38 88.082 102.38 90.7672C102.38 93.4525 100.634 95.6292 98.4799 95.6292Z" fill="#4A6D8B"/>
<path d="M58.1348 84.9702H41.3756C39.2217 84.9702 37.4756 82.7933 37.4756 80.1082C37.4756 77.423 39.2217 75.2462 41.3756 75.2462H58.1348C60.2886 75.2462 62.0348 77.423 62.0348 80.1082C62.0348 82.7935 60.2886 84.9702 58.1348 84.9702Z" fill="#684463"/>
<path d="M107.534 56.7332H90.775C88.6212 56.7332 86.875 54.5563 86.875 51.8712C86.875 49.186 88.6212 47.0092 90.775 47.0092H107.534C109.688 47.0092 111.434 49.186 111.434 51.8712C111.434 54.5565 109.688 56.7332 107.534 56.7332ZM108.416 115.077H91.6566C89.5027 115.077 87.7566 112.9 87.7566 110.215C87.7566 107.53 89.5027 105.353 91.6566 105.353H108.416C110.57 105.353 112.316 107.53 112.316 110.215C112.316 112.9 110.57 115.077 108.416 115.077Z" fill="#4A6D8B"/>
<path opacity="0.69" d="M106.28 105.353H111.708C113.862 105.353 115.608 103.176 115.608 100.491C115.608 97.806 113.862 95.6292 111.708 95.6292H106.28C104.126 95.6292 102.38 97.806 102.38 100.491C102.38 103.176 104.126 105.353 106.28 105.353ZM119.515 85.9052H117.654C115.5 85.9052 113.754 83.7283 113.754 81.0432C113.754 78.358 115.5 76.1812 117.654 76.1812H119.515C121.668 76.1812 123.415 78.358 123.415 81.0432C123.415 83.7285 121.669 85.9052 119.515 85.9052ZM41.3756 124.801H48.6678C50.8217 124.801 52.5678 122.624 52.5678 119.939C52.5678 117.254 50.8217 115.077 48.6678 115.077H41.3756C39.2217 115.077 37.4756 117.254 37.4756 119.939C37.4756 122.624 39.2216 124.801 41.3756 124.801ZM29.7926 66.4572C31.9464 66.4572 33.6926 64.2803 33.6926 61.5952C33.6926 58.91 31.9464 56.7332 29.7926 56.7332C27.6387 56.7332 25.8926 58.91 25.8926 61.5952C25.8926 64.2805 27.6387 66.4572 29.7926 66.4572Z" fill="#395D77"/>
<path opacity="0.56" d="M133.725 133.919H17.2754C16.1989 133.919 15.3262 132.831 15.3262 131.489C15.3262 130.147 16.1989 129.059 17.2754 129.059H133.725C134.801 129.059 135.674 130.147 135.674 131.489C135.674 132.831 134.801 133.919 133.725 133.919Z" fill="#2D4659"/>
<path d="M65.8545 112.603H68.8545V131.303H65.8545V112.603Z" fill="#8BBF98"/>
<path d="M68.8545 112.603H70.6545V131.303H68.8545V112.603Z" fill="#63916E"/>
<path d="M82.6543 112.603H85.6543V131.303H82.6543V112.603Z" fill="#8BBF98"/>
<path d="M85.6543 112.603H87.4543V131.303H85.6543V112.603Z" fill="#63916E"/>
<path d="M95.2549 112.603H98.2549V131.303H95.2549V112.603Z" fill="#8BBF98"/>
<path d="M98.2549 112.603H100.055V131.303H98.2549V112.603Z" fill="#63916E"/>
<path d="M107.909 116.343H109.709V131.303H107.909V116.343Z" fill="#8BBF98"/>
<path d="M109.709 116.343H110.909V131.303H109.709V116.343Z" fill="#63916E"/>
<path d="M119.305 116.343H121.105V131.303H119.305V116.343Z" fill="#8BBF98"/>
<path d="M121.104 116.343H122.304V131.303H121.104V116.343Z" fill="#63916E"/>
<path d="M121.104 116.343H122.304V117.091H121.104V116.343Z" fill="#55845F"/>
<path d="M119.305 116.343H121.105V117.091H119.305V116.343Z" fill="#63916E"/>
<path d="M114.708 95.3987H116.508V131.303H114.708V95.3987Z" fill="#8BBF98"/>
<path d="M116.508 95.3987H117.708V131.303H116.508V95.3987Z" fill="#63916E"/>
<path d="M126.103 95.3987H127.903V131.303H126.103V95.3987Z" fill="#8BBF98"/>
<path d="M127.902 95.3987H129.102V131.303H127.902V95.3987Z" fill="#63916E"/>
<path d="M65.1724 102.879H61.6328V70.7148H65.1724C65.4111 70.7148 65.64 70.833 65.8088 71.0434C65.9775 71.2538 66.0724 71.5392 66.0724 71.8368V101.757C66.0724 102.054 65.9775 102.34 65.8088 102.55C65.64 102.761 65.4111 102.879 65.1724 102.879Z" fill="#EF6562"/>
<path d="M64.0439 102.879H27.4439C27.2053 102.879 26.9763 102.761 26.8076 102.55C26.6388 102.34 26.5439 102.054 26.5439 101.757V71.8368C26.5439 71.5392 26.6388 71.2538 26.8076 71.0434C26.9763 70.833 27.2053 70.7148 27.4439 70.7148H64.0439C64.2826 70.7148 64.5116 70.833 64.6803 71.0434C64.8491 71.2538 64.9439 71.5392 64.9439 71.8368V101.757C64.9439 102.054 64.8491 102.34 64.6803 102.55C64.5116 102.761 64.2826 102.879 64.0439 102.879Z" fill="#EC958B"/>
<path d="M63.2002 72.869V100.545H28.4002V72.869H63.2002Z" fill="#34515B"/>
<path d="M28.7822 72.9415V100.618H28.3322V72.9415H28.7822Z" fill="#D84E4E"/>
<path d="M62.5703 72.9415H63.1328V100.618H62.5703V72.9415Z" fill="#284249"/>
<path d="M46.125 102.879H48.858V131.303H46.125V102.879Z" fill="#D84E4E"/>
<path d="M44.9824 102.879H47.7154V131.303H44.9824V102.879Z" fill="#EF6562"/>
<path d="M44.9824 102.879H47.7154V104.264H44.9824V102.879Z" fill="#D84E4E"/>
<path d="M56.984 131.303H38.584V129.059C38.584 127.82 39.3899 126.815 40.384 126.815H55.184C56.1781 126.815 56.984 127.82 56.984 129.059V131.303Z" fill="#EF6562"/>
<path d="M55.3209 131.303H36.9209V129.059C36.9209 127.82 37.7268 126.815 38.7209 126.815H53.5209C54.515 126.815 55.3209 127.82 55.3209 129.059V131.303Z" fill="#EC958B"/>
<path d="M65.8545 109.033H85.6545V112.603H65.8545V109.033Z" fill="#8BBF98"/>
<path d="M85.6543 109.033H100.054V112.603H85.6543V109.033Z" fill="#63916E"/>
<path d="M64.7988 106.539H84.1542V109.033H64.7988V106.539Z" fill="#9FD6A3"/>
<path d="M65.8545 109.033H85.6545V109.781H65.8545V109.033Z" fill="#63916E"/>
<path d="M84.1543 106.539H101.488V109.033H84.1543V106.539Z" fill="#83B78D"/>
<path d="M107.062 113.351H121.463V116.343H107.062V113.351Z" fill="#81B58C"/>
<path d="M121.46 113.351H129.86V116.343H121.46V113.351Z" fill="#63916E"/>
<path d="M116.508 97.2439H126.103V103.976H116.508V97.2439Z" fill="#81B58C"/>
<path d="M127.902 116.343H129.102V117.091H127.902V116.343Z" fill="#55845F"/>
<path d="M126.103 116.343H127.903V117.091H126.103V116.343ZM114.708 116.343H116.508V117.091H114.708V116.343ZM107.909 116.343H109.709V117.091H107.909V116.343Z" fill="#63916E"/>
<path d="M109.709 116.343H110.909V117.091H109.709V116.343ZM116.507 116.343H117.711V117.091H116.507V116.343Z" fill="#55845F"/>
<path d="M85.6543 109.033H100.054V109.781H85.6543V109.033Z" fill="#577F5D"/>
<path d="M89.8076 85.5179L91.2089 85.2828L92.9064 101.005L91.5051 101.24L89.8076 85.5179Z" fill="#DD5858"/>
<path d="M89.7646 85.951L91.341 85.6865L91.787 89.8171L90.2106 90.0817L89.7646 85.951Z" fill="#EF6562"/>
<path d="M89.5 86.3662L89.8042 86.3152L89.8327 86.5791L89.5285 86.6301L89.5 86.3662Z" fill="#E8E8E8"/>
<path d="M89.9339 89.5588L89.8462 89.5735L89.5283 86.6301L89.7455 86.5937L90.046 89.3759C90.0505 89.4186 90.0413 89.4619 90.0203 89.4962C89.9993 89.5305 89.9682 89.553 89.9339 89.5588Z" fill="#E8E8E8"/>
<path d="M90.2988 90.0671L91.7001 89.8319L91.7217 90.0321L90.3204 90.2672L90.2988 90.0671Z" fill="#D35050"/>
<path d="M88.054 90.1824L86.8372 90.657L86.2793 88.4336C86.2617 88.3633 86.2553 88.2893 86.2606 88.2159C86.2659 88.1425 86.2827 88.0712 86.3101 88.0059C86.3375 87.9406 86.375 87.8827 86.4204 87.8355C86.4657 87.7882 86.5181 87.7526 86.5745 87.7306L86.9324 87.5911C86.9888 87.5691 87.0482 87.5612 87.107 87.5678C87.1659 87.5744 87.2231 87.5954 87.2755 87.6295C87.3278 87.6637 87.3743 87.7104 87.4122 87.767C87.4501 87.8235 87.4786 87.8888 87.4963 87.9592L88.054 90.1824Z" fill="#E8E8E8"/>
<path d="M86.5488 90.7664L88.3502 90.064L89.3242 93.9458L87.5228 94.6482L86.5488 90.7664Z" fill="#35393D"/>
<path d="M87.3492 94.1365L88.813 91.828L88.5019 90.5882L87.0381 92.8967L87.3492 94.1365Z" fill="#808284"/>
<path d="M87.6064 94.6157L89.2409 93.9783L91.2075 101.816L89.573 102.454L87.6064 94.6157Z" fill="#3B4044"/>
<path opacity="0.66" d="M87.8809 94.5087L88.4237 94.297L90.3903 102.135L89.8474 102.347L87.8809 94.5087Z" fill="#6D6F70"/>
<path d="M95.587 87.2513L94.9969 87.1429L94.2656 88.7801L95.9077 89.0821L95.587 87.2513Z" fill="#C5E1DF"/>
<path d="M93.7089 102.479L93.267 102.398C93.1079 102.369 92.9646 102.262 92.8687 102.101C92.7727 101.94 92.732 101.738 92.7555 101.539L94.2659 88.7799L95.9079 89.0819L94.3976 101.841C94.3741 102.04 94.2883 102.219 94.1592 102.338C94.0301 102.458 93.8681 102.509 93.7089 102.479Z" fill="#B3DBAD"/>
<path d="M93.0922 102.366L92.9776 102.345C92.9367 102.337 92.8974 102.32 92.862 102.293C92.8265 102.267 92.7956 102.232 92.771 102.191C92.7464 102.149 92.7285 102.102 92.7185 102.052C92.7084 102.002 92.7063 101.951 92.7124 101.9L94.2653 88.7799L94.691 88.8583L93.0922 102.366ZM93.9974 102.532L93.8828 102.511L95.4817 89.0038L95.9074 89.0821L94.3544 102.202C94.3484 102.253 94.3344 102.302 94.3132 102.346C94.292 102.39 94.264 102.429 94.2309 102.459C94.1977 102.49 94.16 102.512 94.12 102.525C94.0799 102.537 94.0383 102.54 93.9974 102.532Z" fill="#68A575"/>
<path d="M95.5872 87.2514L95.4556 86.5009C95.436 86.3885 95.3416 86.3711 95.2968 86.4718L94.9971 87.1429L95.5872 87.2514Z" fill="#6F5A66"/>
<path d="M95.5865 87.2514L95.3066 87.2L95.4815 89.0038L95.9072 89.0821L95.5865 87.2514Z" fill="#A5CECA"/>
<path d="M95.5885 106.539H87.1885V95.7727C87.1885 95.6736 87.2201 95.5784 87.2763 95.5083C87.3326 95.4381 87.4089 95.3987 87.4885 95.3987H95.2885C95.368 95.3987 95.4444 95.4381 95.5006 95.5083C95.5569 95.5784 95.5885 95.6736 95.5885 95.7727V106.539Z" fill="#F2E07C"/>
<path d="M94.3887 95.3987V106.539H95.5887V95.7727C95.5887 95.6736 95.5571 95.5784 95.5008 95.5083C95.4445 95.4381 95.3682 95.3987 95.2887 95.3987H94.3887Z" fill="#DFBB4D"/>
<path d="M85.1387 100.969H89.7984V106.539H85.1387V100.969Z" fill="#6E7EE0"/>
<path d="M85.1387 100.969H85.655V106.539H85.1387V100.969Z" fill="#7A8CE2"/>
<path d="M89.8076 106.539H89.1314V100.969H89.8076V106.539Z" fill="#6373C1"/>
<path d="M90.2295 106.539H89.8068V100.969H90.2295V106.539Z" fill="#DFBB4D"/>
<path d="M71.2295 102.161H74.7411V106.539H71.2295V102.161Z" fill="#EC958B"/>
<path d="M71.2295 102.161H74.7411V102.362H71.2295V102.161ZM74.7413 102.161H76.6002V106.539H74.7413V102.161Z" fill="#EF6562"/>
<path d="M73.3532 104.986H72.7672L72.6703 105.335H72.3604L72.8894 103.498H73.2331L73.7621 105.335H73.4501L73.3532 104.986ZM73.0602 103.924L72.8474 104.692H73.2733L73.0602 103.924Z" fill="white"/>
<path d="M76.2041 102.161H79.7158V106.539H76.2041V102.161Z" fill="#E8B58B"/>
<path d="M79.7158 102.161H81.5748V106.539H79.7158V102.161Z" fill="#E09D6C"/>
<path d="M77.9779 103.501C78.3321 103.501 78.5092 103.756 78.5092 104.064C78.5092 104.287 78.4101 104.513 78.1741 104.592L78.5262 105.336H78.1848L77.86 104.621H77.721V105.336H77.4258V103.501H77.9779ZM77.9673 103.806H77.7207V104.345H77.9673C78.1318 104.345 78.2055 104.237 78.2055 104.071C78.2055 103.908 78.1318 103.806 77.9673 103.806Z" fill="white"/>
<path d="M70.2998 97.7834H73.8115V102.161H70.2998V97.7834Z" fill="#1BB1B2"/>
<path d="M73.8115 97.7834H75.6705V102.161H73.8115V97.7834Z" fill="#19A5A1"/>
<path d="M72.5289 99.123H72.843L72.3033 100.957H71.945L71.4053 99.123H71.7215L72.1262 100.581L72.5289 99.123Z" fill="white"/>
<path d="M28.5841 130.147C26.7103 131.851 24.0831 131.338 22.7163 129.002C21.3493 126.666 21.7603 123.391 23.6341 121.687L28.5841 130.147Z" fill="#EF6562"/>
<path d="M23.6338 121.687C25.5076 119.983 28.1348 120.495 29.5018 122.831C30.8687 125.167 30.4577 128.442 28.5839 130.147L23.6338 121.687Z" fill="#F2E07C"/>
<path opacity="0.25" d="M26.7323 120.738C28.3184 121.487 29.4464 123.397 29.4464 125.636C29.4464 128.528 27.566 130.872 25.2464 130.872C25.0346 130.872 24.8264 130.852 24.623 130.814C25.0978 131.038 25.6013 131.153 26.1089 131.153C28.4285 131.153 30.3089 128.808 30.3089 125.917C30.3089 123.289 28.7563 121.114 26.7323 120.738Z" fill="#A59A63"/>
<path d="M42.336 88.847C42.4211 88.6424 42.5012 88.4347 42.5761 88.2239C42.6519 88.0099 42.724 87.7939 42.7923 87.576C42.9297 87.1397 43.0516 86.696 43.1577 86.2462C43.1856 86.1344 43.2114 86.0216 43.2348 85.9083L43.3071 85.5689C43.3494 85.341 43.3962 85.1141 43.4302 84.8841C43.4698 84.6554 43.4998 84.4249 43.5292 84.1943C43.5609 83.9641 43.5772 83.7316 43.6021 83.5005L43.6176 83.3565L43.6884 83.2739L43.6885 83.2737C43.7596 83.1836 43.8834 83.093 44.0161 83.0811C44.1483 83.0672 44.2563 83.1157 44.3347 83.166C44.4921 83.272 44.583 83.3956 44.6695 83.5155C44.8359 83.7576 44.9575 84.0058 45.073 84.2564C45.2998 84.7583 45.4843 85.2712 45.6565 85.7898C45.8266 86.3073 45.9824 86.8321 46.1235 87.363C46.2633 87.8945 46.3947 88.4267 46.4886 88.9835C46.4966 89.0289 46.4901 89.0764 46.4703 89.1158C46.4506 89.1553 46.4193 89.1835 46.383 89.1945C46.3468 89.2054 46.3086 89.1982 46.2766 89.1745C46.2445 89.1507 46.2212 89.1122 46.2117 89.0673L46.2109 89.0636C46.0974 88.5443 45.943 88.0269 45.7818 87.5182C45.6193 87.0095 45.4427 86.5079 45.2524 86.0144C45.0618 85.5237 44.8581 85.0393 44.6272 84.5928C44.5119 84.3719 44.3878 84.1558 44.2561 83.9875C44.1924 83.9052 44.1198 83.8343 44.0784 83.8149C44.058 83.8038 44.0553 83.8126 44.0764 83.8128C44.098 83.8134 44.119 83.7941 44.1127 83.8025L44.199 83.5761C44.173 83.8197 44.1555 84.0653 44.1223 84.3074C44.0916 84.5501 44.0598 84.7925 44.0184 85.0324C43.9825 85.2738 43.9338 85.5113 43.8892 85.7503L43.8136 86.1056C43.789 86.2241 43.7621 86.3419 43.7329 86.4589C43.6221 86.9287 43.4947 87.3923 43.3512 87.8483C43.2795 88.0767 43.204 88.3032 43.1245 88.5276C43.0429 88.7528 42.9612 88.9729 42.865 89.1999C42.8279 89.2876 42.7643 89.3533 42.6883 89.3826C42.6123 89.4119 42.5301 89.4023 42.4597 89.356C42.3894 89.3097 42.3367 89.2305 42.3132 89.1357C42.2897 89.041 42.2974 88.9385 42.3345 88.8508L42.336 88.847Z" fill="#D1D1D1"/>
<path d="M42.5655 86.4082L46.321 85.9302C46.353 85.9256 46.3855 85.9288 46.4165 85.9398C46.4476 85.9508 46.4766 85.9693 46.5018 85.9942C46.5271 86.0192 46.5482 86.0501 46.564 86.0852C46.5797 86.1204 46.5897 86.159 46.5934 86.1989C46.5971 86.2389 46.5945 86.2793 46.5857 86.318C46.5769 86.3567 46.5621 86.3929 46.542 86.4244C46.522 86.4559 46.4972 86.4822 46.4691 86.5018C46.4409 86.5214 46.4099 86.5339 46.3779 86.5385L42.6351 87.1513C42.596 87.1577 42.5563 87.1545 42.5182 87.1417C42.4802 87.129 42.4445 87.1071 42.4132 87.0771C42.382 87.0472 42.3557 87.0099 42.3361 86.9674C42.3164 86.9248 42.3036 86.8778 42.2985 86.8291C42.2933 86.7804 42.2959 86.7309 42.3061 86.6835C42.3164 86.636 42.334 86.5916 42.358 86.5526C42.382 86.5136 42.4119 86.4809 42.446 86.4564C42.4802 86.4318 42.5178 86.4159 42.5569 86.4095C42.5593 86.4089 42.5631 86.4086 42.5655 86.4082Z" fill="#D1D1D1"/>
<path d="M125.577 99.2657H123.932C123.812 99.2657 123.698 99.2066 123.613 99.1014C123.529 98.9962 123.482 98.8535 123.482 98.7047C123.482 98.556 123.529 98.4133 123.613 98.308C123.698 98.2028 123.812 98.1437 123.932 98.1437H125.577C125.696 98.1437 125.81 98.2028 125.895 98.308C125.979 98.4133 126.027 98.556 126.027 98.7047C126.027 98.8535 125.979 98.9962 125.895 99.1014C125.81 99.2066 125.696 99.2657 125.577 99.2657ZM124.385 101.003H122.578C122.459 101.003 122.344 100.944 122.26 100.839C122.175 100.734 122.128 100.591 122.128 100.442C122.128 100.294 122.175 100.151 122.26 100.046C122.344 99.9404 122.459 99.8813 122.578 99.8813H124.385C124.504 99.8813 124.619 99.9404 124.703 100.046C124.788 100.151 124.835 100.294 124.835 100.442C124.835 100.591 124.788 100.734 124.703 100.839C124.619 100.944 124.504 101.003 124.385 101.003Z" fill="#8BBF98"/>
<path opacity="0.74" d="M122.964 103.076H117.557C117.438 103.076 117.324 103.017 117.239 102.912C117.155 102.806 117.107 102.664 117.107 102.515C117.107 102.366 117.155 102.223 117.239 102.118C117.324 102.013 117.438 101.954 117.557 101.954H122.964C123.084 101.954 123.198 102.013 123.283 102.118C123.367 102.223 123.414 102.366 123.414 102.515C123.414 102.664 123.367 102.806 123.283 102.912C123.198 103.017 123.084 103.076 122.964 103.076Z" fill="#8BBF98"/>
<path opacity="0.23" d="M42.725 129.059H39.2781C39.1588 129.059 39.0443 129 38.9599 128.894C38.8755 128.789 38.8281 128.647 38.8281 128.498C38.8281 128.349 38.8755 128.206 38.9599 128.101C39.0443 127.996 39.1588 127.937 39.2781 127.937H42.725C42.8443 127.937 42.9588 127.996 43.0432 128.101C43.1276 128.206 43.175 128.349 43.175 128.498C43.175 128.647 43.1276 128.789 43.0432 128.894C42.9588 129 42.8443 129.059 42.725 129.059ZM46.1375 129.059H45.1281C45.0088 129.059 44.8943 129 44.8099 128.894C44.7255 128.789 44.6781 128.647 44.6781 128.498C44.6781 128.349 44.7255 128.206 44.8099 128.101C44.8943 127.996 45.0088 127.937 45.1281 127.937H46.1375C46.2568 127.937 46.3713 127.996 46.4557 128.101C46.5401 128.206 46.5875 128.349 46.5875 128.498C46.5875 128.647 46.5401 128.789 46.4557 128.894C46.3713 129 46.2568 129.059 46.1375 129.059ZM53.6 130.461H49.5875C49.4681 130.461 49.3537 130.402 49.2693 130.297C49.1849 130.192 49.1375 130.049 49.1375 129.9C49.1375 129.751 49.1849 129.609 49.2693 129.504C49.3537 129.398 49.4681 129.339 49.5875 129.339H53.6C53.7193 129.339 53.8338 129.398 53.9182 129.504C54.0026 129.609 54.05 129.751 54.05 129.9C54.05 130.049 54.0026 130.192 53.9182 130.297C53.8338 130.402 53.7193 130.461 53.6 130.461Z" fill="#EF6562"/>
<path opacity="0.23" d="M51.9875 130.461H51.2C51.0807 130.461 50.9662 130.402 50.8818 130.297C50.7974 130.192 50.75 130.049 50.75 129.9C50.75 129.751 50.7974 129.609 50.8818 129.504C50.9662 129.398 51.0807 129.339 51.2 129.339H51.9875C52.1068 129.339 52.2213 129.398 52.3057 129.504C52.3901 129.609 52.4375 129.751 52.4375 129.9C52.4375 130.049 52.3901 130.192 52.3057 130.297C52.2213 130.402 52.1068 130.461 51.9875 130.461Z" fill="#EF6562"/>
<path d="M120.116 101.003H119.329C119.209 101.003 119.095 100.944 119.011 100.839C118.926 100.734 118.879 100.591 118.879 100.442C118.879 100.294 118.926 100.151 119.011 100.046C119.095 99.9404 119.209 99.8813 119.329 99.8813H120.116C120.236 99.8813 120.35 99.9404 120.434 100.046C120.519 100.151 120.566 100.294 120.566 100.442C120.566 100.591 120.519 100.734 120.434 100.839C120.35 100.944 120.236 101.003 120.116 101.003ZM121.479 99.2657H117.727C117.608 99.2657 117.494 99.2066 117.409 99.1014C117.325 98.9962 117.277 98.8535 117.277 98.7047C117.277 98.556 117.325 98.4133 117.409 98.308C117.494 98.2028 117.608 98.1437 117.727 98.1437H121.479C121.599 98.1437 121.713 98.2028 121.797 98.308C121.882 98.4133 121.929 98.556 121.929 98.7047C121.929 98.8535 121.882 98.9962 121.797 99.1014C121.713 99.2066 121.599 99.2657 121.479 99.2657Z" fill="#8BBF98"/>
<path opacity="0.18" d="M71.3136 110.818H68.1955C68.1297 110.818 68.0665 110.785 68.02 110.727C67.9734 110.669 67.9473 110.59 67.9473 110.508C67.9473 110.426 67.9734 110.347 68.02 110.289C68.0665 110.231 68.1297 110.199 68.1955 110.199H71.3136C71.3779 110.202 71.4389 110.235 71.4836 110.293C71.5283 110.351 71.5533 110.428 71.5533 110.508C71.5533 110.588 71.5283 110.666 71.4836 110.723C71.4389 110.781 71.3779 110.815 71.3136 110.818ZM73.6972 110.818H72.273C72.2071 110.818 72.144 110.785 72.0974 110.727C72.0509 110.669 72.0247 110.59 72.0247 110.508C72.0247 110.426 72.0509 110.347 72.0974 110.289C72.144 110.231 72.2071 110.199 72.273 110.199H73.6972C73.7631 110.199 73.8262 110.231 73.8728 110.289C73.9193 110.347 73.9455 110.426 73.9455 110.508C73.9455 110.59 73.9193 110.669 73.8728 110.727C73.8262 110.785 73.7631 110.818 73.6972 110.818ZM75.6312 111.893H72.5565C72.4906 111.893 72.4275 111.86 72.3809 111.802C72.3344 111.744 72.3082 111.666 72.3082 111.583C72.3082 111.501 72.3344 111.423 72.3809 111.365C72.4275 111.307 72.4906 111.274 72.5565 111.274H75.6312C75.6955 111.277 75.7565 111.311 75.8012 111.368C75.8459 111.426 75.8709 111.503 75.8709 111.583C75.8709 111.664 75.8459 111.741 75.8012 111.799C75.7565 111.856 75.6955 111.89 75.6312 111.893ZM81.1029 111.893H80.1879C80.122 111.893 80.0589 111.86 80.0123 111.802C79.9658 111.744 79.9396 111.666 79.9396 111.583C79.9396 111.501 79.9658 111.423 80.0123 111.365C80.0589 111.307 80.122 111.274 80.1879 111.274H81.1029C81.1687 111.274 81.2318 111.307 81.2784 111.365C81.325 111.423 81.3511 111.501 81.3511 111.583C81.3511 111.666 81.325 111.744 81.2784 111.802C81.2318 111.86 81.1687 111.893 81.1029 111.893ZM82.0324 110.989H81.1174C81.0516 110.989 80.9884 110.957 80.9419 110.899C80.8953 110.84 80.8692 110.762 80.8692 110.68C80.8692 110.598 80.8953 110.519 80.9419 110.461C80.9884 110.403 81.0516 110.37 81.1174 110.37H82.0324C82.0968 110.373 82.1577 110.407 82.2025 110.465C82.2472 110.522 82.2722 110.599 82.2722 110.68C82.2722 110.76 82.2472 110.837 82.2025 110.895C82.1577 110.953 82.0968 110.986 82.0324 110.989Z" fill="#63916E"/>
<path opacity="0.26" d="M91.6383 111.893H88.1164C88.0506 111.893 87.9874 111.86 87.9409 111.802C87.8943 111.744 87.8682 111.666 87.8682 111.583C87.8682 111.501 87.8943 111.423 87.9409 111.365C87.9874 111.307 88.0506 111.274 88.1164 111.274H91.6383C91.7754 111.274 91.8865 111.413 91.8865 111.583C91.8865 111.665 91.8603 111.744 91.8138 111.802C91.7672 111.86 91.7041 111.893 91.6383 111.893ZM96.663 111.893H95.748C95.6821 111.893 95.619 111.86 95.5724 111.802C95.5259 111.744 95.4997 111.666 95.4997 111.583C95.4997 111.501 95.5259 111.423 95.5724 111.365C95.619 111.307 95.6821 111.274 95.748 111.274H96.663C96.8001 111.274 96.9112 111.413 96.9112 111.583C96.9112 111.665 96.885 111.744 96.8385 111.802C96.7919 111.86 96.7288 111.893 96.663 111.893ZM92.6062 110.834H90.6337C90.5679 110.834 90.5047 110.802 90.4582 110.743C90.4116 110.685 90.3855 110.607 90.3855 110.525C90.3855 110.443 90.4116 110.364 90.4582 110.306C90.5047 110.248 90.5679 110.215 90.6337 110.215H92.6062C92.6721 110.215 92.7352 110.248 92.7818 110.306C92.8283 110.364 92.8545 110.443 92.8545 110.525C92.8545 110.607 92.8283 110.685 92.7818 110.743C92.7352 110.802 92.6721 110.834 92.6062 110.834Z" fill="#8BBF98"/>
</g>
<defs>
<clipPath id="clip0_294_1503">
<rect x="0.5" y="0.5" width="150" height="187" rx="5" fill="white"/>
</clipPath>
</defs>
</svg>
