<svg width="70" height="71" viewBox="0 0 70 71" fill="none" xmlns="http://www.w3.org/2000/svg">
<path d="M33.1151 11.2516C32.9313 10.4035 32.8333 9.5866 32.7913 8.72732C32.752 7.87365 32.7793 6.99906 32.9443 6.10123C33.1145 5.20845 33.3777 4.27439 33.9406 3.38531C34.0884 3.15043 34.2568 2.92224 34.4437 2.70404C35.2234 1.79336 36.6949 2.04218 37.1182 3.16382C37.3644 3.81625 37.1749 4.58515 36.5935 4.97002C36.4909 5.03783 36.3896 5.11453 36.2897 5.20121C35.8579 5.57404 35.4985 6.14388 35.1969 6.77115C34.5979 8.03922 34.3037 9.61859 34.2199 11.1254L33.1151 11.2516Z" fill="#6D6D6D"/>
<path d="M47.5619 19.3703C46.9072 25.8824 42.1488 31.2136 36.9579 31.2721C36.4435 31.2721 35.9292 31.2254 35.4497 31.1319C34.2689 30.8981 33.0648 30.8981 31.884 31.1319C31.4045 31.2254 30.8902 31.2721 30.3757 31.2721C25.1731 31.2137 20.4264 25.8824 19.7716 19.3703C19.117 12.8349 22.7998 7.58546 27.9906 7.64398C28.9377 7.65574 29.8612 7.73749 30.7498 7.97142C32.6789 8.45076 34.6663 8.45076 36.5837 7.95966C37.4722 7.73749 38.3959 7.65574 39.331 7.64398C44.534 7.58546 48.2168 12.8349 47.5619 19.3703Z" fill="#F96464"/>
<path opacity="0.08" d="M47.5624 19.3694C46.9071 25.8851 42.1488 31.2168 36.9587 31.269C36.4449 31.269 35.9311 31.2243 35.447 31.135C35.3875 31.1201 35.3204 31.1126 35.2607 31.1052C39.8329 30.1521 43.7573 25.2447 44.3454 19.3695C44.9337 13.4719 41.9924 8.62425 37.584 7.77536C38.1574 7.68595 38.7457 7.64876 39.334 7.64138C44.5316 7.58902 48.2177 12.8314 47.5624 19.3694Z" fill="black"/>
<path d="M34.4777 8.80907C34.3323 8.39755 34.5429 7.92477 34.9461 7.75743C37.3952 6.74038 39.8474 6.79753 41.8968 7.73678C43.97 8.6461 45.6528 10.455 46.5209 12.9519C46.6642 13.3639 46.4515 13.8351 46.048 14.0008C41.1635 16.0054 36.2343 13.7862 34.4777 8.80907Z" fill="#13BD79"/>
<path d="M60.6902 41.3588C61.7177 42.2822 63.073 42.8481 64.5698 42.8481H39.5496C36.355 42.8481 33.7637 40.2567 33.7637 37.0621C33.7637 35.4612 34.4116 34.0166 35.4541 32.9666C36.5041 31.9166 37.9486 31.2688 39.5496 31.2688H64.5698C63.0805 31.2688 61.7253 31.8273 60.7051 32.7581C60.6232 32.8251 60.5487 32.8921 60.4743 32.9666C59.4243 34.0166 58.7765 35.4612 58.7765 37.0621C58.7764 38.7674 59.5136 40.3014 60.6902 41.3588Z" fill="#0BAD67"/>
<path d="M60.6901 41.3588H39.5496C37.1816 41.3588 35.2529 39.4301 35.2529 37.0622C35.2529 35.9154 35.6997 34.8357 36.5114 34.024C37.3231 33.2123 38.4028 32.7581 39.5496 32.7581H60.7052C60.6233 32.8251 60.5488 32.8921 60.4744 32.9666C59.4244 34.0166 58.7766 35.4612 58.7766 37.0622C58.7763 38.7675 59.5135 40.3014 60.6901 41.3588Z" fill="#F2F0F0"/>
<path d="M39.5508 42.8515H5.79129C2.59385 42.8515 0.000976562 40.2597 0.000976562 37.0623C0.000976562 35.4635 0.64916 34.0155 1.69684 32.9678C2.74437 31.9202 4.1925 31.272 5.79129 31.272H39.5507C37.9519 31.272 36.5049 31.9202 35.4562 32.9678C34.4087 34.0155 33.7604 35.4635 33.7604 37.0623C33.7605 40.2597 36.3533 42.8515 39.5508 42.8515Z" fill="#13BD79"/>
<path opacity="0.08" d="M39.5497 42.8482H33.2798C30.0778 42.8482 27.4863 40.2568 27.4863 37.0623C27.4863 35.4613 28.1342 34.0167 29.1841 32.9667C30.2341 31.9167 31.6787 31.269 33.2796 31.269H39.5496C37.9486 31.269 36.504 31.9167 35.454 32.9667C34.4115 34.0167 33.7636 35.4613 33.7636 37.0623C33.7638 40.2568 36.3551 42.8482 39.5497 42.8482Z" fill="black"/>
<path d="M36.2358 48.6416C36.2358 51.8361 33.6445 54.4275 30.4499 54.4275H5.42969C6.92648 54.4275 8.28178 53.8616 9.30936 52.9382C10.486 51.8808 11.2231 50.3468 11.2231 48.6416C11.2231 47.0406 10.5752 45.596 9.52537 44.546C9.45086 44.4715 9.37648 44.3971 9.29459 44.3375C8.27439 43.4067 6.9191 42.8482 5.42982 42.8482H30.45C32.051 42.8482 33.4956 43.496 34.5456 44.546C35.5881 45.5959 36.2358 47.0406 36.2358 48.6416Z" fill="#F2B816"/>
<path d="M34.7469 48.6415C34.7469 51.0095 32.8183 52.9382 30.4502 52.9382H9.30969C10.4863 51.8808 11.2235 50.3468 11.2235 48.6415C11.2235 47.0406 10.5756 45.596 9.5257 44.546C9.45119 44.4715 9.37682 44.3971 9.29492 44.3375H30.4505C31.5973 44.3375 32.677 44.7917 33.4887 45.6034C34.3001 46.4151 34.7469 47.4947 34.7469 48.6415Z" fill="#F2F0F0"/>
<path d="M30.4492 54.4309H64.2086C67.4061 54.4309 69.9989 51.8391 69.9989 48.6417C69.9989 47.0429 69.3508 45.5949 68.3031 44.5472C67.2555 43.4995 65.8074 42.8513 64.2086 42.8513H30.4492C32.048 42.8513 33.495 43.4995 34.5437 44.5472C35.5912 45.5949 36.2395 47.0429 36.2395 48.6417C36.2395 51.8392 33.6468 54.4309 30.4492 54.4309Z" fill="#FFCE29"/>
<path opacity="0.08" d="M69.9988 48.6416C69.9988 51.8361 67.4074 54.4275 64.2053 54.4275H58.0918C61.2864 54.4275 63.8777 51.8361 63.8777 48.6416C63.8777 47.0406 63.2298 45.596 62.1873 44.546C61.1373 43.496 59.6854 42.8482 58.0918 42.8482H64.2053C65.8063 42.8482 67.2584 43.496 68.3009 44.546C69.351 45.5959 69.9988 47.0406 69.9988 48.6416Z" fill="black"/>
<path d="M64.5849 67.362C65.7987 68.2928 67.3178 68.8513 68.9635 68.8513H38.8498C34.8734 68.8513 31.6416 65.6196 31.6416 61.6431C31.6416 59.6474 32.4458 57.8455 33.7564 56.5423C35.0596 55.2392 36.8615 54.4275 38.8497 54.4275H68.9634C67.3251 54.4275 65.8061 54.9785 64.5923 55.9168C64.3317 56.103 64.0934 56.3115 63.8625 56.5423C62.5593 57.8455 61.7551 59.6474 61.7551 61.6431C61.7553 63.9739 62.8647 66.0515 64.5849 67.362Z" fill="#4EC5D8"/>
<path d="M64.5849 67.362H38.8498C35.6999 67.362 33.1309 64.7929 33.1309 61.6431C33.1309 60.1091 33.7265 58.6719 34.8063 57.5922C35.8862 56.5126 37.3232 55.9167 38.8498 55.9167H64.5923C64.3317 56.103 64.0934 56.3115 63.8625 56.5422C62.5593 57.8454 61.7551 59.6474 61.7551 61.6431C61.7553 63.9739 62.8647 66.0514 64.5849 67.362Z" fill="#F2F0F0"/>
<path d="M38.851 68.8483H4.75373C2.12859 68.8483 0.000976562 66.7197 0.000976562 64.0955V59.1841C0.000976562 56.5589 2.12859 54.4313 4.75373 54.4313H38.851C36.8599 54.4313 35.0589 55.2382 33.7534 56.5428C32.4488 57.8463 31.6419 59.6492 31.6419 61.6403C31.6421 65.6215 34.8699 68.8483 38.851 68.8483Z" fill="#66D5F2"/>
<path d="M29.4149 49.334V56.5119C29.4149 56.9825 28.8517 57.2246 28.5102 56.9007L26.522 55.0151C26.3153 54.819 25.9912 54.819 25.7844 55.0151L23.7963 56.9007C23.4547 57.2246 22.8916 56.9825 22.8916 56.5119V49.334H29.4149Z" fill="#F96464"/>
<path d="M31.3611 49.8905H20.9433C20.635 49.8905 20.3848 49.6403 20.3848 49.332C20.3848 49.0237 20.635 48.7735 20.9433 48.7735H31.3611C31.6694 48.7735 31.9196 49.0237 31.9196 49.332C31.9196 49.6403 31.6694 49.8905 31.3611 49.8905Z" fill="#E5E3E5"/>
<path opacity="0.4" d="M10.5822 34.6064C10.5822 35.099 10.1829 35.4985 9.69012 35.4985H6.32178C5.82918 35.4985 5.42969 35.0992 5.42969 34.6064C5.42969 34.1138 5.82904 33.7143 6.32178 33.7143H9.69025C10.1829 33.7145 10.5822 34.1138 10.5822 34.6064Z" fill="white"/>
</svg>
