<svg width="172" height="38" viewBox="0 0 172 38" fill="none" xmlns="http://www.w3.org/2000/svg">
<path d="M123.8 37.6079L0.000669382 37.6079L0.000671019 18.8826L0.000672656 0.157304L123.8 0.157315L136.963 18.8826L123.8 37.6079Z" fill="#0F3B7A"/>
<path d="M18.462 24.3105L22.6393 24.3105L22.6393 25.5774L16.904 25.5774L16.904 13.6446L18.462 13.6446L18.462 24.3105ZM32.854 20.5269C32.854 20.8237 32.8369 21.1375 32.8026 21.4685L25.3039 21.4685C25.361 22.393 25.6749 23.1178 26.2456 23.6428C26.8276 24.1564 27.5296 24.4132 28.3514 24.4132C29.0247 24.4132 29.584 24.2591 30.0291 23.951C30.4857 23.6314 30.8053 23.2091 30.9879 22.6841L32.6657 22.6841C32.4146 23.5857 31.9124 24.3219 31.1591 24.8926C30.4058 25.4518 29.4699 25.7315 28.3514 25.7315C27.4611 25.7315 26.6622 25.5317 25.9545 25.1323C25.2583 24.7328 24.7104 24.1678 24.311 23.4374C23.9115 22.6955 23.7118 21.8395 23.7118 20.8693C23.7118 19.8992 23.9058 19.0489 24.2938 18.3184C24.6819 17.5879 25.224 17.0287 25.9203 16.6406C26.6279 16.2411 27.4383 16.0414 28.3514 16.0414C29.2416 16.0414 30.0291 16.2354 30.7139 16.6235C31.3988 17.0115 31.9238 17.548 32.289 18.2328C32.6657 18.9062 32.854 19.6709 32.854 20.5269ZM31.2447 20.2016C31.2447 19.6081 31.1134 19.1002 30.8509 18.6779C30.5884 18.2442 30.2289 17.9189 29.7723 17.7021C29.3272 17.4738 28.8307 17.3597 28.2829 17.3597C27.4953 17.3597 26.8219 17.6108 26.2627 18.113C25.7148 18.6151 25.401 19.3114 25.3211 20.2016L31.2447 20.2016ZM34.3283 20.8522C34.3283 19.8935 34.5224 19.0546 34.9104 18.3355C35.2985 17.605 35.8292 17.0401 36.5026 16.6406C37.1874 16.2411 37.9464 16.0414 38.7796 16.0414C39.6014 16.0414 40.3147 16.2183 40.9196 16.5721C41.5246 16.9259 41.9754 17.3711 42.2721 17.9075V16.1955H43.8472L43.8472 25.5774L42.2721 25.5774V23.8311C41.964 24.379 41.5017 24.8355 40.8854 25.2007C40.2805 25.5546 39.5728 25.7315 38.7625 25.7315C37.9293 25.7315 37.176 25.526 36.5026 25.1151C35.8292 24.7043 35.2985 24.1279 34.9104 23.386C34.5224 22.6441 34.3283 21.7995 34.3283 20.8522ZM42.2721 20.8693C42.2721 20.1617 42.1295 19.5453 41.8441 19.0203C41.5588 18.4953 41.1707 18.0958 40.68 17.8219C40.2006 17.5366 39.6699 17.3939 39.0878 17.3939C38.5057 17.3939 37.975 17.5309 37.4956 17.8048C37.0162 18.0787 36.6339 18.4782 36.3485 19.0032C36.0632 19.5282 35.9205 20.1446 35.9205 20.8522C35.9205 21.5712 36.0632 22.199 36.3485 22.7354C36.6339 23.2604 37.0162 23.6656 37.4956 23.951C37.975 24.2249 38.5057 24.3619 39.0878 24.3619C39.6699 24.3619 40.2006 24.2249 40.68 23.951C41.1707 23.6656 41.5588 23.2604 41.8441 22.7354C42.1295 22.199 42.2721 21.577 42.2721 20.8693ZM48.0379 17.7192C48.3119 17.1827 48.6999 16.7662 49.2021 16.4694C49.7157 16.1727 50.3378 16.0243 51.0682 16.0243V17.6336H50.6573C48.9111 17.6336 48.0379 18.5809 48.0379 20.4755L48.0379 25.5774L46.48 25.5774L46.48 16.1955H48.0379V17.7192ZM57.4378 16.0243C58.5791 16.0243 59.5036 16.3724 60.2113 17.0686C60.9189 17.7534 61.2727 18.7464 61.2727 20.0475L61.2727 25.5774L59.7319 25.5774L59.7319 20.2701C59.7319 19.3342 59.4979 18.6209 59.03 18.1301C58.562 17.6279 57.9228 17.3768 57.1125 17.3768C56.2907 17.3768 55.6344 17.6336 55.1436 18.1472C54.6643 18.6608 54.4246 19.4084 54.4246 20.3899L54.4246 25.5774L52.8667 25.5774L52.8667 16.1955L54.4246 16.1955V17.5309C54.7328 17.0515 55.1494 16.6806 55.6744 16.418C56.2108 16.1555 56.7986 16.0243 57.4378 16.0243ZM79.6642 16.0243C80.3946 16.0243 81.0452 16.1784 81.6159 16.4865C82.1866 16.7833 82.6374 17.2341 82.9684 17.839C83.2994 18.4439 83.4649 19.1801 83.4649 20.0475L83.4649 25.5774H81.924L81.924 20.2701C81.924 19.3342 81.6901 18.6209 81.2221 18.1301C80.7656 17.6279 80.1435 17.3768 79.356 17.3768C78.5456 17.3768 77.9008 17.6393 77.4214 18.1643C76.942 18.6779 76.7024 19.4255 76.7024 20.4071V25.5774L75.1615 25.5774L75.1615 20.2701C75.1615 19.3342 74.9276 18.6209 74.4596 18.1301C74.0031 17.6279 73.381 17.3768 72.5935 17.3768C71.7831 17.3768 71.1383 17.6393 70.6589 18.1643C70.1795 18.6779 69.9398 19.4255 69.9398 20.4071V25.5774L68.3819 25.5774L68.3819 16.1955H69.9398V17.548C70.248 17.0572 70.6589 16.6806 71.1725 16.418C71.6975 16.1555 72.2739 16.0243 72.9017 16.0243C73.6892 16.0243 74.3854 16.2012 74.9903 16.555C75.5952 16.9088 76.0461 17.4281 76.3428 18.113C76.6053 17.451 77.0391 16.9374 77.644 16.5721C78.2489 16.2069 78.9223 16.0243 79.6642 16.0243ZM90.1122 25.7315C89.2334 25.7315 88.4344 25.5317 87.7154 25.1323C87.0077 24.7328 86.4485 24.1678 86.0376 23.4374C85.6381 22.6955 85.4384 21.8395 85.4384 20.8693C85.4384 19.9106 85.6438 19.066 86.0547 18.3355C86.477 17.5936 87.0477 17.0287 87.7667 16.6406C88.4858 16.2411 89.2904 16.0414 90.1807 16.0414C91.0709 16.0414 91.8756 16.2411 92.5947 16.6406C93.3137 17.0287 93.8787 17.5879 94.2896 18.3184C94.7119 19.0489 94.923 19.8992 94.923 20.8693C94.923 21.8395 94.7062 22.6955 94.2724 23.4374C93.8501 24.1678 93.2738 24.7328 92.5433 25.1323C91.8128 25.5317 91.0025 25.7315 90.1122 25.7315ZM90.1122 24.3619C90.6715 24.3619 91.1965 24.2306 91.6873 23.9681C92.1781 23.7056 92.5718 23.3118 92.8686 22.7868C93.1767 22.2618 93.3308 21.6226 93.3308 20.8693C93.3308 20.116 93.1824 19.4769 92.8857 18.9518C92.5889 18.4268 92.2009 18.0388 91.7215 17.7877C91.2422 17.5252 90.7228 17.3939 90.1636 17.3939C89.5929 17.3939 89.0679 17.5252 88.5885 17.7877C88.1206 18.0388 87.7439 18.4268 87.4586 18.9518C87.1732 19.4769 87.0306 20.116 87.0306 20.8693C87.0306 21.634 87.1675 22.2789 87.4414 22.8039C87.7268 23.3289 88.1034 23.7227 88.5714 23.9852C89.0393 24.2363 89.553 24.3619 90.1122 24.3619ZM98.5294 17.7192C98.8033 17.1827 99.1914 16.7662 99.6935 16.4694C100.207 16.1727 100.829 16.0243 101.56 16.0243V17.6336H101.149C99.4025 17.6336 98.5294 18.5809 98.5294 20.4755L98.5294 25.5774H96.9714L96.9714 16.1955L98.5294 16.1955V17.7192ZM111.918 20.5269C111.918 20.8237 111.901 21.1375 111.867 21.4685L104.368 21.4685C104.425 22.393 104.739 23.1178 105.31 23.6428C105.892 24.1564 106.594 24.4132 107.416 24.4132C108.089 24.4132 108.648 24.2591 109.093 23.951C109.55 23.6314 109.87 23.2091 110.052 22.6841L111.73 22.6841C111.479 23.5857 110.977 24.3219 110.223 24.8926C109.47 25.4518 108.534 25.7315 107.416 25.7315C106.525 25.7315 105.726 25.5317 105.019 25.1323C104.323 24.7328 103.775 24.1678 103.375 23.4374C102.976 22.6955 102.776 21.8395 102.776 20.8693C102.776 19.8992 102.97 19.0489 103.358 18.3184C103.746 17.5879 104.288 17.0287 104.985 16.6406C105.692 16.2411 106.503 16.0414 107.416 16.0414C108.306 16.0414 109.093 16.2354 109.778 16.6235C110.463 17.0115 110.988 17.548 111.353 18.2328C111.73 18.9062 111.918 19.6709 111.918 20.5269ZM110.309 20.2016C110.309 19.6081 110.178 19.1002 109.915 18.6779C109.653 18.2442 109.293 17.9189 108.837 17.7021C108.391 17.4738 107.895 17.3597 107.347 17.3597C106.56 17.3597 105.886 17.6108 105.327 18.113C104.779 18.6151 104.465 19.3114 104.385 20.2016L110.309 20.2016Z" fill="white"/>
<path d="M129.472 0.157471H158.402L171.202 18.8828L158.402 37.6081H129.472L143.382 18.8828L129.472 0.157471Z" fill="#0F3B7A"/>
</svg>
