<svg width="101" height="100" viewBox="0 0 101 100" fill="none" xmlns="http://www.w3.org/2000/svg">
<path d="M29.396 18.148L20.9046 27.5981C19.9906 28.6153 20.7317 30.2328 22.0989 30.2046L79.0939 29.0344C80.4619 29.0064 81.1353 27.3573 80.1783 26.3792L71.0214 17.0254C70.8704 16.8712 70.6625 16.7864 70.4468 16.7909L30.5254 17.6301C30.0935 17.6392 29.6847 17.8267 29.396 18.148Z" fill="#0F3B7A"/>
<path d="M43.8495 74.7524L19.4922 30.3824L30.3408 19.1989L54.8228 64.5412L43.8495 74.7524Z" fill="#BD2122"/>
<path fill-rule="evenodd" clip-rule="evenodd" d="M18.1225 31.1344C17.7924 30.5331 17.8931 29.7869 18.3707 29.2945L29.2193 18.1108C29.5659 17.7536 30.062 17.5828 30.5551 17.6511C31.0481 17.7193 31.4792 18.0184 31.7157 18.4565L56.1978 63.7988C56.5359 64.4249 56.4082 65.2003 55.8874 65.6851L44.914 75.8962C44.5613 76.2244 44.0769 76.3715 43.6012 76.295C43.1256 76.2183 42.7118 75.9265 42.4799 75.5042L18.1225 31.1344ZM43.8496 74.7523L54.8229 64.5412L30.3408 19.1988L19.4922 30.3824L43.8496 74.7523Z" fill="#0F3B7A"/>
<path fill-rule="evenodd" clip-rule="evenodd" d="M29.1706 39.4516C29.5476 39.2416 30.0234 39.377 30.2334 39.7538L39.1284 55.7189C39.3384 56.0959 39.2031 56.5716 38.8262 56.7816C38.4492 56.9916 37.9735 56.8563 37.7635 56.4794L28.8685 40.5144C28.6585 40.1374 28.7938 39.6616 29.1706 39.4516Z" fill="white"/>
<path d="M60.3094 70.8624L81.5079 28.9643L70.5345 18.348L47.9229 62.7584L60.3094 70.8624Z" fill="#BD2122"/>
<path fill-rule="evenodd" clip-rule="evenodd" d="M82.9026 29.6697C83.2111 29.0587 83.0869 28.3175 82.5947 27.8414L71.6211 17.225C71.2649 16.8803 70.7662 16.7252 70.2772 16.8068C69.7883 16.8885 69.3672 17.1973 69.1422 17.639L46.5306 62.0494C46.1688 62.7601 46.4002 63.6292 47.0676 64.0659L59.4541 72.1699C59.8261 72.4134 60.2841 72.4867 60.7136 72.3718C61.1429 72.2569 61.5031 71.9645 61.7038 71.5678L82.9026 29.6697ZM60.3096 70.8624L47.923 62.7584L70.5347 18.348L81.508 28.9643L60.3096 70.8624Z" fill="#0F3B7A"/>
<path fill-rule="evenodd" clip-rule="evenodd" d="M68.9653 28.8292C69.3532 29.0184 69.5143 29.486 69.3252 29.8739L62.9241 43.0025C62.735 43.3903 62.2673 43.5514 61.8795 43.3624C61.4916 43.1732 61.3305 42.7056 61.5196 42.3178L67.9207 29.1891C68.1098 28.8013 68.5775 28.6402 68.9653 28.8292Z" fill="white"/>
<path d="M67.343 65.4418C67.343 74.3946 60.0852 81.6524 51.1324 81.6524C42.1796 81.6524 34.9219 74.3946 34.9219 65.4418C34.9219 56.4889 42.1796 49.2312 51.1324 49.2312C60.0852 49.2312 67.343 56.4889 67.343 65.4418Z" fill="#FFD84C"/>
<path fill-rule="evenodd" clip-rule="evenodd" d="M68.9055 65.4418C68.9055 75.2575 60.9482 83.2149 51.1324 83.2149C41.3166 83.2149 33.3594 75.2575 33.3594 65.4418C33.3594 55.626 41.3166 47.6687 51.1324 47.6687C60.9482 47.6687 68.9055 55.626 68.9055 65.4418ZM51.1324 81.6524C60.0852 81.6524 67.343 74.3946 67.343 65.4418C67.343 56.4889 60.0852 49.2312 51.1324 49.2312C42.1796 49.2312 34.9219 56.4889 34.9219 65.4418C34.9219 74.3946 42.1796 81.6524 51.1324 81.6524Z" fill="black"/>
<path fill-rule="evenodd" clip-rule="evenodd" d="M61.4935 65.4416C61.4935 71.164 56.8545 75.8031 51.132 75.8031C45.4095 75.8031 40.7705 71.164 40.7705 65.4416C40.7705 59.7191 45.4095 55.0801 51.132 55.0801C56.8545 55.0801 61.4935 59.7191 61.4935 65.4416ZM51.132 74.2406C55.9915 74.2406 59.931 70.3012 59.931 65.4416C59.931 60.582 55.9915 56.6426 51.132 56.6426C46.2725 56.6426 42.333 60.582 42.333 65.4416C42.333 70.3012 46.2725 74.2406 51.132 74.2406Z" fill="black"/>
</svg>
