<svg width="101" height="108" viewBox="0 0 101 108" fill="none" xmlns="http://www.w3.org/2000/svg">
<path d="M50.5 106.603C77.5932 106.603 99.5565 84.6401 99.5565 57.5469C99.5565 30.4536 77.5932 8.49026 50.5 8.49026C23.4067 8.49026 1.44336 30.4536 1.44336 57.5469C1.44336 84.6401 23.4067 106.603 50.5 106.603Z" fill="#F0F0FF"/>
<path d="M50.5002 87.7355C67.1729 87.7355 80.6889 74.2196 80.6889 57.5469C80.6889 40.8741 67.1729 27.3582 50.5002 27.3582C33.8275 27.3582 20.3115 40.8741 20.3115 57.5469C20.3115 74.2196 33.8275 87.7355 50.5002 87.7355Z" fill="#3B8CF7"/>
<path d="M50.4998 78.3016C61.9623 78.3016 71.2545 69.0094 71.2545 57.5469C71.2545 46.0843 61.9623 36.7921 50.4998 36.7921C39.0373 36.7921 29.7451 46.0843 29.7451 57.5469C29.7451 69.0094 39.0373 78.3016 50.4998 78.3016Z" fill="#FFD84C"/>
<path d="M50.5 68.8676C56.7522 68.8676 61.8207 63.7991 61.8207 57.5469C61.8207 51.2946 56.7522 46.2261 50.5 46.2261C44.2477 46.2261 39.1792 51.2946 39.1792 57.5469C39.1792 63.7991 44.2477 68.8676 50.5 68.8676Z" fill="#BD2122"/>
<path d="M57.3732 48.572L50.8301 58.9903L60.6834 52.6342C59.9112 51.041 58.7777 49.65 57.3732 48.572Z" fill="#C8556B"/>
<path d="M50.5 107.547C40.6109 107.547 30.944 104.614 22.7215 99.1203C14.4991 93.6263 8.09043 85.8173 4.30605 76.681C0.521665 67.5447 -0.468503 57.4914 1.46076 47.7923C3.39002 38.0933 8.15206 29.1841 15.1447 22.1915C22.1373 15.1989 31.0464 10.4369 40.7455 8.5076C50.4445 6.57834 60.4979 7.56851 69.6342 11.3529C78.7705 15.1373 86.5794 21.5459 92.0735 29.7684C97.5676 37.9908 100.5 47.6578 100.5 57.5469C100.485 70.8031 95.2124 83.5121 85.8388 92.8856C76.4652 102.259 63.7562 107.532 50.5 107.547ZM50.5 9.433C40.9841 9.433 31.6819 12.2548 23.7698 17.5415C15.8576 22.8283 9.69079 30.3425 6.04921 39.1341C2.40764 47.9256 1.45484 57.5996 3.3113 66.9326C5.16775 76.2657 9.75009 84.8386 16.4788 91.5674C23.2076 98.2961 31.7805 102.878 41.1136 104.735C50.4466 106.591 60.1206 105.639 68.9121 101.997C77.7037 98.3554 85.2179 92.1886 90.5047 84.2765C95.7914 76.3643 98.6132 67.0621 98.6132 57.5462C98.5987 44.7902 93.525 32.5609 84.5052 23.5411C75.4853 14.5212 63.256 9.44751 50.5 9.433ZM50.5 98.1129C42.4768 98.1129 34.6338 95.7337 27.9627 91.2763C21.2917 86.8188 16.0922 80.4833 13.0219 73.0708C9.95154 65.6583 9.1482 57.5019 10.7134 49.6328C12.2787 41.7638 16.1422 34.5356 21.8155 28.8623C27.4888 23.1891 34.7169 19.3255 42.586 17.7603C50.455 16.195 58.6115 16.9984 66.024 20.0687C73.4364 23.1391 79.772 28.3385 84.2294 35.0096C88.6869 41.6806 91.066 49.5237 91.066 57.5469C91.0538 68.3019 86.776 78.6129 79.171 86.2179C71.5661 93.8228 61.255 98.1007 50.5 98.1129ZM50.5 18.8671C42.85 18.8671 35.3717 21.1356 29.011 25.3857C22.6502 29.6358 17.6926 35.6767 14.7651 42.7444C11.8375 49.8121 11.0715 57.5892 12.564 65.0922C14.0564 72.5953 17.7403 79.4873 23.1497 84.8966C28.559 90.306 35.451 93.9899 42.9541 95.4823C50.4571 96.9748 58.2342 96.2088 65.3019 93.2812C72.3696 90.3537 78.4105 85.3961 82.6606 79.0353C86.9108 72.6746 89.1792 65.1963 89.1792 57.5463C89.1676 47.2915 85.0888 37.46 77.8375 30.2088C70.5863 22.9575 60.7548 18.8786 50.5 18.867V18.8671ZM50.5 88.6789C44.3427 88.6789 38.3236 86.8531 33.204 83.4322C28.0843 80.0114 24.094 75.1492 21.7377 69.4606C19.3814 63.7719 18.7649 57.5123 19.9661 51.4733C21.1674 45.4343 24.1324 39.8871 28.4863 35.5332C32.8402 31.1793 38.3874 28.2142 44.4264 27.013C50.4655 25.8117 56.7251 26.4283 62.4137 28.7846C68.1024 31.1409 72.9645 35.1312 76.3854 40.2508C79.8062 45.3704 81.6321 51.3895 81.6321 57.5469C81.6227 65.8007 78.3397 73.7138 72.5034 79.5502C66.667 85.3866 58.7539 88.6696 50.5 88.6789ZM50.5 28.3016C44.7158 28.3016 39.0616 30.0168 34.2522 33.2303C29.4428 36.4438 25.6944 41.0113 23.4809 46.3552C21.2674 51.699 20.6882 57.5793 21.8167 63.2523C22.9451 68.9254 25.7305 74.1364 29.8205 78.2264C33.9105 82.3164 39.1215 85.1018 44.7945 86.2302C50.4676 87.3586 56.3478 86.7795 61.6917 84.566C67.0356 82.3525 71.6031 78.604 74.8166 73.7947C78.0301 68.9853 79.7453 63.331 79.7453 57.5469C79.7367 49.7931 76.6527 42.3594 71.1701 36.8766C65.6874 31.3939 58.2537 28.3098 50.5 28.301V28.3016ZM50.5 79.245C46.2085 79.245 42.0134 77.9724 38.4452 75.5882C34.877 73.204 32.0959 69.8152 30.4536 65.8504C28.8113 61.8856 28.3816 57.5228 29.2188 53.3138C30.0561 49.1047 32.1226 45.2385 35.1571 42.204C38.1917 39.1694 42.0579 37.1029 46.2669 36.2657C50.4759 35.4284 54.8387 35.8581 58.8035 37.5004C62.7683 39.1427 66.1571 41.9238 68.5413 45.492C70.9256 49.0603 72.1981 53.2554 72.1981 57.5469C72.1916 63.2996 69.9035 68.8148 65.8357 72.8826C61.7679 76.9503 56.2527 79.2385 50.5 79.245ZM50.5 37.7355C46.5817 37.7355 42.7514 38.8975 39.4934 41.0743C36.2355 43.2512 33.6962 46.3453 32.1967 49.9654C30.6973 53.5854 30.3049 57.5688 31.0694 61.4118C31.8338 65.2549 33.7206 68.7849 36.4913 71.5556C39.262 74.3262 42.792 76.2131 46.635 76.9775C50.478 77.7419 54.4614 77.3496 58.0815 75.8501C61.7015 74.3506 64.7956 71.8114 66.9725 68.5534C69.1494 65.2955 70.3113 61.4652 70.3113 57.5469C70.3054 52.2944 68.2162 47.2588 64.5021 43.5447C60.7881 39.8307 55.7525 37.7415 50.5 37.7355ZM50.5 69.811C48.0744 69.811 45.7032 69.0917 43.6864 67.7441C41.6696 66.3965 40.0977 64.4811 39.1694 62.2401C38.2412 59.9992 37.9983 57.5333 38.4715 55.1542C38.9447 52.7752 40.1128 50.59 41.8279 48.8748C43.5431 47.1596 45.7284 45.9916 48.1074 45.5184C50.4864 45.0451 52.9523 45.288 55.1933 46.2163C57.4343 47.1445 59.3497 48.7164 60.6973 50.7333C62.0449 52.7501 62.7642 55.1212 62.7642 57.5469C62.7605 60.7984 61.4672 63.9157 59.168 66.2148C56.8688 68.514 53.7515 69.8073 50.5 69.811ZM50.5 47.1695C48.4476 47.1695 46.4412 47.7781 44.7347 48.9184C43.0281 50.0587 41.698 51.6794 40.9126 53.5756C40.1271 55.4718 39.9216 57.5584 40.3221 59.5714C40.7225 61.5844 41.7108 63.4335 43.1621 64.8848C44.6134 66.3361 46.4625 67.3244 48.4755 67.7248C50.4885 68.1252 52.575 67.9197 54.4713 67.1343C56.3675 66.3488 57.9882 65.0188 59.1285 63.3122C60.2687 61.6057 60.8774 59.5993 60.8774 57.5469C60.8742 54.7956 59.7799 52.1579 57.8345 50.2124C55.889 48.2669 53.2513 47.1726 50.5 47.1695Z" fill="#0F3B7A"/>
<path d="M92.0043 0.942352L72.8179 18.9851L76.1334 5.96037C76.4316 4.79491 77.0901 3.75332 78.015 2.98406C78.94 2.21481 80.0841 1.75715 81.2844 1.67631L92.0043 0.942352Z" fill="#FFE794"/>
<path d="M86.6877 1.30634L81.2843 1.67633C80.084 1.75715 78.9398 2.21481 78.0149 2.98407C77.09 3.75332 76.4315 4.79492 76.1333 5.96039L72.8179 18.9851L77.4866 14.5946C77.5241 11.7156 78.4196 8.91318 80.0587 6.54597C81.6978 4.17876 84.0059 2.35441 86.6877 1.30634Z" fill="#FFD84C"/>
<path d="M92.1916 17.5348L80.8179 24.7518L92.0037 0.942657L94.6613 11.3185C94.9587 12.4827 94.8799 13.7112 94.4363 14.8279C93.9927 15.9445 93.2069 16.8921 92.1916 17.5348Z" fill="#FFE794"/>
<path d="M94.6613 11.3181L93.4172 6.46112C92.8674 8.72921 91.8737 10.8659 90.4935 12.7478C88.7868 15.1383 86.4978 17.0532 83.8436 18.3112L80.8179 24.7515L92.1916 17.5345C93.2069 16.8918 93.9927 15.9442 94.4364 14.8275C94.88 13.7108 94.9587 12.4823 94.6613 11.3181Z" fill="#E4AD5D"/>
<path d="M49.5566 59.4337L57.5066 45.2365L60.5963 47.4629L49.5566 59.4337Z" fill="#F0F0FF"/>
<path d="M72.6079 39.179L60.5959 47.463L57.5068 45.2366L61.64 31.2733C62.1175 29.661 63.0148 28.2045 64.2399 27.0528L92.0041 0.942078L75.8157 35.3959C75.1 36.9186 73.9931 38.224 72.6079 39.179Z" fill="#AAF9E1"/>
<path d="M75.8158 35.3959L83.4015 19.2512C83.1994 19.5409 83.0007 19.8313 82.7917 20.1191C76.192 29.2135 67.6452 35.3432 59.8276 37.3961L57.5068 45.2357L60.5959 47.4622L72.608 39.179C73.9932 38.224 75.1001 36.9186 75.8158 35.3959Z" fill="#47F09F"/>
<path d="M95.5754 11.084L92.9178 0.7083C92.8633 0.49509 92.7358 0.307706 92.5575 0.178707C92.3792 0.0497071 92.1614 -0.0127562 91.9418 0.0021686L91.9397 0.00160224L81.2193 0.735565C79.8203 0.828175 78.4865 1.36099 77.4088 2.25774C76.3311 3.15449 75.5647 4.3692 75.2193 5.72802L71.971 18.4884L63.5943 26.3658C62.2472 27.632 61.2608 29.2333 60.7358 31.0059L56.632 44.8692L48.7338 58.9722C48.621 59.1739 48.5862 59.4098 48.6358 59.6355C48.6854 59.8611 48.8161 60.0606 49.0031 60.1963C49.1901 60.332 49.4203 60.3943 49.6502 60.3716C49.8801 60.3488 50.0936 60.2425 50.2503 60.0727L61.2191 48.1789L73.1436 39.9551C74.6657 38.9051 75.8823 37.4706 76.6697 35.7975L81.5542 25.4018L92.6981 18.3313C93.8828 17.5831 94.7996 16.4784 95.3167 15.1761C95.8337 13.8738 95.9243 12.441 95.5754 11.084ZM74.5308 16.0787L77.0471 6.1932C77.2954 5.21965 77.8451 4.34955 78.6178 3.70735C79.3905 3.06515 80.3465 2.68376 81.349 2.61773L89.4339 2.06453L74.5308 16.0787ZM57.8138 46.6206L59.1809 47.6059L54.2941 52.9051L57.8138 46.6206ZM74.9622 34.9952C74.3168 36.366 73.32 37.5414 72.0731 38.4021L60.6082 46.3086L58.6017 44.8626L62.5451 31.5412C62.9754 30.0893 63.7835 28.7777 64.8867 27.7405L89.0458 5.01971L74.9622 34.9952ZM91.686 16.7384L83.0517 22.2173L90.2008 6.99877L91.7413 3.7199L93.7479 11.552C93.9972 12.5234 93.9319 13.5489 93.5614 14.4809C93.1909 15.4129 92.5342 16.2033 91.686 16.7384Z" fill="#0F3B7A"/>
</svg>
