<svg width="301" height="301" viewBox="0 0 301 301" fill="none" xmlns="http://www.w3.org/2000/svg">
<g clip-path="url(#clip0_210_1085)">
<path d="M264.421 125.636H182.931C165.549 125.636 151.459 139.726 151.459 157.108C151.459 174.489 165.549 188.58 182.931 188.58H264.421C281.802 188.58 295.893 174.489 295.893 157.108C295.893 139.726 281.802 125.636 264.421 125.636ZM114.755 188.58H60.4775C43.0955 188.58 29.0054 202.67 29.0054 220.052C29.0054 237.434 43.0955 251.524 60.4775 251.524H114.755C132.137 251.524 146.228 237.434 146.228 220.052C146.228 202.67 132.137 188.58 114.755 188.58ZM114.755 66.5726H37.0424C19.6604 66.5726 5.57031 80.6634 5.57031 98.0446C5.57031 115.427 19.6604 129.517 37.0424 129.517H114.755C132.137 129.517 146.228 115.427 146.228 98.0446C146.228 80.6634 132.137 66.5726 114.755 66.5726Z" fill="#B2D4FF"/>
<path d="M225.67 177.052C225.67 194.478 219.699 210.458 209.691 223.12C196.062 240.427 174.898 251.522 151.199 251.522C127.501 251.522 106.337 240.427 92.6487 223.12C82.6381 210.458 76.6699 194.478 76.6699 177.052C76.6699 160.59 81.9756 145.395 91.0205 133.093C104.588 114.521 126.476 102.521 151.199 102.521C175.923 102.521 197.811 114.521 211.319 133.093C220.364 145.395 225.67 160.59 225.67 177.052Z" fill="white"/>
<path d="M151.199 254.747C127.272 254.747 105.009 243.949 90.1174 225.12C79.209 211.322 73.4434 194.7 73.4434 177.051C73.4434 160.369 78.6223 144.508 88.421 131.182C103.005 111.218 126.475 99.2944 151.199 99.2944C175.948 99.2944 199.398 111.22 213.927 131.195C223.716 144.508 228.895 160.369 228.895 177.051C228.895 194.697 223.129 211.319 212.221 225.12C197.395 243.947 175.152 254.747 151.199 254.747ZM151.199 105.746C128.528 105.746 107.004 116.68 93.6244 134.996C84.6408 147.215 79.895 161.753 79.895 177.051C79.895 193.233 85.1803 208.473 95.1782 221.119C108.838 238.39 129.257 248.296 151.199 248.296C173.161 248.296 193.557 238.392 207.156 221.124C217.158 208.469 222.443 193.23 222.443 177.051C222.443 161.753 217.698 147.214 208.72 135.003C195.391 116.679 173.891 105.746 151.199 105.746Z" fill="#0F3B7A"/>
<path d="M150.086 251.526C172.404 251.526 190.496 218.174 190.496 177.032C190.496 135.89 172.404 102.539 150.086 102.539C127.769 102.539 109.677 135.89 109.677 177.032C109.677 218.174 127.769 251.526 150.086 251.526Z" fill="white"/>
<path d="M150.085 253.944C126.469 253.944 107.256 219.442 107.256 177.031C107.256 134.621 126.469 100.119 150.085 100.119C173.701 100.119 192.914 134.621 192.914 177.031C192.914 219.442 173.701 253.944 150.085 253.944ZM150.085 104.957C129.137 104.957 112.095 137.289 112.095 177.031C112.095 216.774 129.137 249.106 150.085 249.106C171.033 249.106 188.075 216.774 188.075 177.031C188.075 137.289 171.033 104.957 150.085 104.957Z" fill="#0F3B7A"/>
<path d="M151.199 148.356C127.139 148.356 104.192 143.435 89.8168 135.191C89.2199 134.849 88.797 134.27 88.6536 133.597C88.5103 132.923 88.6607 132.222 89.0663 131.666C103.505 111.902 126.732 100.101 151.199 100.101C175.691 100.101 198.897 111.903 213.276 131.669C213.68 132.225 213.829 132.928 213.685 133.599C213.542 134.271 213.119 134.851 212.523 135.193C197.932 143.558 175.58 148.356 151.199 148.356ZM94.6547 132.31C108.429 139.356 129.279 143.517 151.199 143.517C173.088 143.517 193.918 139.356 207.689 132.309C194.133 115.121 173.222 104.94 151.199 104.94C129.197 104.94 108.267 115.121 94.6547 132.31ZM151.199 253.941C127.521 253.941 105.488 243.254 90.7509 224.621C90.3059 224.058 90.1334 223.327 90.2799 222.625C90.4264 221.922 90.8769 221.322 91.5101 220.985C106.084 213.217 127.841 208.761 151.199 208.761C174.582 208.761 196.318 213.217 210.833 220.987C211.463 221.324 211.912 221.924 212.059 222.625C212.205 223.324 212.034 224.054 211.591 224.616C196.915 243.252 174.903 253.941 151.199 253.941ZM96.4409 223.918C110.211 239.962 130.002 249.102 151.199 249.102C172.418 249.102 192.192 239.961 205.907 223.917C192.127 217.339 172.416 213.6 151.199 213.6C130.005 213.6 110.274 217.339 96.4409 223.918Z" fill="#0F3B7A"/>
<path d="M151.189 253.944C149.852 253.944 148.77 252.861 148.77 251.525V104.179C148.77 102.843 149.852 101.76 151.189 101.76C152.525 101.76 153.608 102.843 153.608 104.179V251.525C153.608 252.861 152.525 253.944 151.189 253.944Z" fill="#0F3B7A"/>
<path d="M224.861 180.27H77.516C76.1796 180.27 75.0967 179.187 75.0967 177.851C75.0967 176.515 76.1796 175.432 77.516 175.432H224.861C226.198 175.432 227.281 176.515 227.281 177.851C227.281 179.187 226.198 180.27 224.861 180.27ZM200.459 119.13V74.8328H101.363V119.13C101.363 134.166 200.459 134.166 200.459 119.13Z" fill="#0F3B7A"/>
<path d="M225.745 74.832L150.912 102.522L76.0801 74.832L150.912 47.1449L225.745 74.832Z" fill="white"/>
<path d="M234.615 117.674H216.87L225.744 99.9287L234.615 117.674Z" fill="white"/>
<path d="M150.931 80.5127C156.647 80.5127 161.28 77.9693 161.28 74.832C161.28 71.6947 156.647 69.1514 150.931 69.1514C145.216 69.1514 140.583 71.6947 140.583 74.832C140.583 77.9693 145.216 80.5127 150.931 80.5127Z" fill="#0F3B7A"/>
<path d="M235.885 116.587L227.369 99.5873V74.9421C227.369 74.394 226.853 73.4906 226.305 73.3292L151.465 45.6192C151.111 45.4905 150.724 45.4905 150.336 45.6192L75.5298 73.3292C74.8848 73.5552 74.4658 74.1679 74.4658 74.8452C74.4658 75.5225 74.8848 76.1033 75.5298 76.3613L99.7556 85.3291V119.135C99.7556 131.652 145.66 132.006 150.917 132.006C156.143 132.006 202.078 131.652 202.078 119.135V85.3291L224.143 77.1677V99.5227L215.433 116.942C215.175 117.458 215.207 118.039 215.498 118.523C215.788 119.006 216.304 119.297 216.885 119.297H234.627C234.627 119.297 234.659 119.297 234.691 119.297C236.046 119.297 236.852 117.652 235.885 116.587ZM198.852 119.135C198.852 123.781 180.53 128.781 150.917 128.781C121.304 128.781 102.981 123.781 102.981 119.135V86.523L150.336 104.039C150.53 104.104 150.724 104.136 150.917 104.136C151.111 104.136 151.305 104.104 151.465 104.039L198.852 86.523V119.135ZM150.917 67.5549C145.788 67.5549 138.982 69.9096 138.982 74.8452C138.982 79.7162 145.66 82.1356 150.917 82.1356C156.659 82.1356 161.337 79.7808 162.562 76.555H216.498C182.207 89.2322 180.53 89.8453 150.917 100.813L102.981 83.0712L99.7556 81.8776L80.7237 74.8452L150.917 48.8773L217.014 73.3292C216.853 73.3292 216.143 73.3292 216.143 73.3292C213.143 73.3292 201.53 73.2969 162.595 73.2323C161.433 69.9419 156.724 67.5549 150.917 67.5549ZM159.659 74.8452C159.659 77.2969 154.433 78.9098 150.917 78.9098C147.208 78.9098 142.208 77.2 142.208 74.8452C142.208 72.3936 147.208 70.7807 150.917 70.7807C154.401 70.7807 159.659 72.329 159.659 74.8452ZM219.466 116.071L219.563 115.877C219.885 115.2 221.24 112.523 225.756 103.232C225.917 103.555 231.659 115.329 232.014 116.071H219.466Z" fill="#B2D4FF"/>
<path d="M212.358 45.8254C218.404 45.8254 223.306 40.9237 223.306 34.877C223.306 28.8304 218.404 23.9286 212.358 23.9286C206.311 23.9286 201.409 28.8304 201.409 34.877C201.409 40.9237 206.311 45.8254 212.358 45.8254Z" fill="#47F09F"/>
<path d="M272.509 85.3288C276.518 85.3288 279.767 82.0793 279.767 78.0707C279.767 74.0622 276.518 70.8127 272.509 70.8127C268.501 70.8127 265.251 74.0622 265.251 78.0707C265.251 82.0793 268.501 85.3288 272.509 85.3288Z" fill="#FFD233"/>
<path d="M29.0059 164.655C31.6854 164.655 33.8575 162.482 33.8575 159.803C33.8575 157.123 31.6854 154.951 29.0059 154.951C26.3264 154.951 24.1543 157.123 24.1543 159.803C24.1543 162.482 26.3264 164.655 29.0059 164.655Z" fill="#FFD233"/>
<path d="M85.5508 276.535C88.2303 276.535 90.4024 274.363 90.4024 271.684C90.4024 269.004 88.2303 266.832 85.5508 266.832C82.8714 266.832 80.6992 269.004 80.6992 271.684C80.6992 274.363 82.8714 276.535 85.5508 276.535Z" fill="#FF7B31"/>
<path d="M244.234 233.464C246.914 233.464 249.086 231.292 249.086 228.612C249.086 225.933 246.914 223.761 244.234 223.761C241.555 223.761 239.383 225.933 239.383 228.612C239.383 231.292 241.555 233.464 244.234 233.464Z" fill="#3B8CF7"/>
<path d="M61.5831 51.9964C64.2625 51.9964 66.4347 49.8243 66.4347 47.1448C66.4347 44.4654 64.2625 42.2932 61.5831 42.2932C58.9036 42.2932 56.7314 44.4654 56.7314 47.1448C56.7314 49.8243 58.9036 51.9964 61.5831 51.9964Z" fill="#FF5151"/>
<line x1="300.194" y1="204.471" x2="614.934" y2="204.471" stroke="black"/>
</g>
<defs>
<clipPath id="clip0_210_1085">
<rect width="300" height="300" fill="white" transform="translate(0.731445 0.231934)"/>
</clipPath>
</defs>
</svg>
