<svg width="101" height="100" viewBox="0 0 101 100" fill="none" xmlns="http://www.w3.org/2000/svg">
<path d="M75.3329 50.6065C75.3329 64.3213 64.2148 75.4394 50.5 75.4394C36.7851 75.4394 25.667 64.3213 25.667 50.6065C25.667 36.8916 36.7851 25.7735 50.5 25.7735C64.2148 25.7735 75.3329 36.8916 75.3329 50.6065Z" fill="white"/>
<path fill-rule="evenodd" clip-rule="evenodd" d="M76.8954 50.6065C76.8954 65.1843 65.0778 77.0019 50.5 77.0019C35.9221 77.0019 24.1045 65.1843 24.1045 50.6065C24.1045 36.0287 35.9221 24.211 50.5 24.211C65.0778 24.211 76.8954 36.0287 76.8954 50.6065ZM50.5 75.4394C64.2148 75.4394 75.3329 64.3213 75.3329 50.6065C75.3329 36.8916 64.2148 25.7735 50.5 25.7735C36.7851 25.7735 25.667 36.8916 25.667 50.6065C25.667 64.3213 36.7851 75.4394 50.5 75.4394Z" fill="#FFD84C"/>
<path fill-rule="evenodd" clip-rule="evenodd" d="M47.3748 73.8772C61.0896 73.8772 72.2077 62.759 72.2077 49.0442C72.2077 39.9385 67.3068 31.9774 59.9989 27.6549C69.0008 31.3846 75.3331 40.256 75.3331 50.6064C75.3331 64.3213 64.215 75.4394 50.5001 75.4394C45.891 75.4394 41.5751 74.1837 37.876 71.9957C40.8021 73.208 44.0103 73.8772 47.3748 73.8772Z" fill="#FFADE8"/>
<path fill-rule="evenodd" clip-rule="evenodd" d="M21.6034 33.6156C24.1056 41.7016 29.3196 51.376 36.6121 60.7751C43.9046 70.1741 51.9802 77.6283 59.191 82.0609C62.7912 84.2742 66.2494 85.7797 69.339 86.3555C72.4266 86.9305 75.3338 86.6023 77.5592 84.8758C79.7849 83.1492 80.824 80.4148 81.0341 77.281C81.2451 74.1453 80.6459 70.4215 79.3959 66.3843C76.8939 58.2984 71.6799 48.6239 64.3874 39.2249C57.0949 29.8259 49.0193 22.3716 41.8085 17.9389C38.2084 15.7257 34.7502 14.2202 31.6606 13.6448C28.5729 13.0698 25.6657 13.3973 23.4403 15.124C21.2149 16.8506 20.1754 19.5853 19.9652 22.719C19.7549 25.8547 20.3541 29.5784 21.6034 33.6156ZM37.8466 59.8173C23.4311 41.2376 17.41 21.7805 24.3981 16.3585C31.3863 10.9366 48.7373 21.603 63.1529 40.1827C77.5684 58.7623 83.5896 78.2195 76.6014 83.6414C69.6133 89.0633 52.2622 78.3969 37.8466 59.8173Z" fill="#0F3B7A"/>
<path fill-rule="evenodd" clip-rule="evenodd" d="M82.9726 40.7722C78.6929 48.2089 71.4068 56.5664 62.1699 64.1723C52.933 71.7783 43.3328 77.3256 35.2131 80.0984C31.1619 81.4828 27.3565 82.218 24.0863 82.0937C20.8194 81.9695 17.8033 80.9641 15.8204 78.5562C13.8375 76.1481 13.4295 72.9952 13.9346 69.7651C14.4401 66.5319 15.892 62.9383 18.0273 59.2278C22.3069 51.7911 29.593 43.4336 38.8299 35.8276C48.0669 28.2216 57.667 22.6744 65.7867 19.9012C69.8379 18.5176 73.6434 17.782 76.9134 17.9062C80.1804 18.0304 83.1968 19.0357 85.1796 21.4437C87.1624 23.8519 87.5702 27.0048 87.0656 30.2349C86.5601 33.468 85.1077 37.0617 82.9726 40.7722ZM60.6801 62.363C78.8335 47.4147 88.9921 29.7616 83.3702 22.9336C77.7478 16.1057 58.4735 22.6886 40.3198 37.6369C22.166 52.5853 12.0073 70.2384 17.6297 77.0664C23.252 83.8945 42.5263 77.3114 60.6801 62.363Z" fill="#BD2122"/>
<path d="M87.6885 33.5885C87.6885 35.2358 86.3526 36.5711 84.7057 36.5711C83.0588 36.5711 81.7229 35.2358 81.7229 33.5885C81.7229 31.9412 83.0588 30.6058 84.7057 30.6058C86.3526 30.6058 87.6885 31.9412 87.6885 33.5885ZM43.9141 36.571C43.9141 38.2183 42.5788 39.5536 40.9316 39.5536C39.2843 39.5536 37.9489 38.2183 37.9489 36.571C37.9489 34.9237 39.2843 33.5884 40.9316 33.5884C42.5788 33.5884 43.9141 34.9237 43.9141 36.571ZM43.4317 76.0029C43.4317 78.5461 41.3698 80.6086 38.8262 80.6086C36.2827 80.6086 34.2207 78.5461 34.2207 76.0029C34.2207 73.4594 36.2827 71.3974 38.8262 71.3974C41.3698 71.3974 43.4317 73.4594 43.4317 76.0029Z" fill="#47F09F"/>
</svg>
