<svg width="30" height="30" viewBox="0 0 30 30" fill="none" xmlns="http://www.w3.org/2000/svg">
<path d="M19.3183 23.2023H10.6836C14.4511 20.1906 13.7855 15.5941 13.2216 12.5823H16.7804C16.2164 15.5941 15.5509 20.1906 19.3183 23.2023Z" fill="white"/>
<path d="M21.6005 0.736084V9.56206C21.6005 13.2078 18.6451 16.1631 14.9995 16.1631C11.3538 16.1631 8.39844 13.2077 8.39844 9.56206V0.736084H21.6005Z" fill="#FFE794"/>
<path d="M21.5998 0.736694V9.56197C21.5998 13.2062 18.6458 16.1648 15.0016 16.1648C13.1748 16.1648 11.5276 15.424 10.3313 14.2277C9.90795 13.809 9.54443 13.3304 9.25 12.8059C10.2071 13.3488 11.316 13.6571 12.4939 13.6571C16.1381 13.6571 19.0967 10.7031 19.0967 7.0589V0.736694H21.5998Z" fill="#FFD84C"/>
<path d="M21.067 24.3304V29.264H8.93164V24.3304C8.93164 23.7074 9.43666 23.2024 10.0596 23.2024H19.9391C20.562 23.2024 21.067 23.7074 21.067 24.3304Z" fill="#B2D4FF"/>
<path d="M16.7331 8.04027L16.9005 9.01627C16.9753 9.45238 16.5175 9.78496 16.1258 9.57894L15.2499 9.11816C15.0944 9.03636 14.9086 9.03631 14.753 9.1181L13.8751 9.57953C13.4834 9.78537 13.0258 9.45279 13.1006 9.01674L13.268 8.04033C13.2978 7.86718 13.2403 7.69047 13.1145 7.56783L12.404 6.87508C12.0871 6.56623 12.262 6.02822 12.6998 5.96459L13.6811 5.82197C13.8549 5.79672 14.0051 5.68756 14.0829 5.53011L14.5224 4.64049C14.7183 4.24381 15.284 4.24398 15.4797 4.64078L15.9182 5.52982C15.9959 5.68744 16.1462 5.79672 16.3201 5.82197L17.3012 5.96459C17.739 6.02822 17.9138 6.56623 17.597 6.87508L16.8864 7.56783C16.7608 7.69047 16.7034 7.86713 16.7331 8.04027Z" fill="white"/>
<path d="M25.8969 2.28693H22.0618V1.19615H22.8913C23.1457 1.19615 23.3514 0.990137 23.3514 0.736016C23.3514 0.481895 23.1457 0.275879 22.8913 0.275879C17.1145 0.275879 12.8441 0.275879 7.10966 0.275879C6.85554 0.275879 6.64952 0.481895 6.64952 0.736016C6.64952 0.990137 6.85554 1.19615 7.10966 1.19615H7.93934V2.28693H4.10397C2.61276 2.28693 1.5606 3.74264 2.02823 5.15867L3.22032 8.76734C4.15255 11.589 6.60089 13.5751 9.48534 13.9595C10.4156 15.1239 11.7056 15.9835 13.1858 16.3781C13.2113 18.7691 12.5978 21.0106 10.5134 22.7421H10.0607C9.18511 22.7421 8.47267 23.4546 8.47267 24.3303V28.8038H8.02108C7.76696 28.8038 7.56095 29.0098 7.56095 29.2639C7.56095 29.518 7.76696 29.724 8.02108 29.724C10.8527 29.724 19.1519 29.724 21.9795 29.724C22.2339 29.724 22.4397 29.518 22.4397 29.2639C22.4397 29.0098 22.2339 28.8038 21.9795 28.8038H21.5284V24.3303C21.5284 23.4545 20.8157 22.7421 19.94 22.7421H19.4871C17.4028 21.0106 16.7896 18.7691 16.8151 16.3781C18.2967 15.9831 19.5877 15.1222 20.5182 13.9562C23.4015 13.5712 25.8488 11.588 26.7803 8.76746L27.9724 5.15879C28.4405 3.74293 27.3883 2.28693 25.8969 2.28693ZM4.09431 8.47889L2.90222 4.87021C2.63081 4.04838 3.24206 3.20721 4.10397 3.20721H7.93934V9.56205C7.93934 10.7616 8.24192 11.8912 8.77185 12.8816C6.6044 12.3082 4.82286 10.6841 4.09431 8.47889ZM20.6081 24.3304V28.8039H9.393V24.3304C9.393 23.9622 9.69247 23.6625 10.0607 23.6625C12.239 23.6625 17.8985 23.6625 19.94 23.6625C20.3084 23.6625 20.6081 23.9622 20.6081 24.3304ZM18.1403 22.7422H11.8606C13.6102 20.8815 14.0998 18.6084 14.1182 16.562C14.4079 16.5983 14.7009 16.6232 15.0004 16.6232C15.2997 16.6232 15.5928 16.5984 15.8824 16.5621C15.9009 18.6085 16.3909 20.8817 18.1403 22.7422ZM15.0004 15.703C11.6143 15.703 8.85962 12.9481 8.85962 9.56205V1.19615H21.1415V9.56205C21.1415 12.9481 18.3866 15.703 15.0004 15.703ZM27.0989 4.87021L25.9068 8.47889C25.1783 10.6838 23.3971 12.3075 21.2298 12.8804C21.7594 11.8903 22.0618 10.7612 22.0618 9.56205V3.20721H25.8969C26.7602 3.20721 27.3697 4.05019 27.0989 4.87021Z" fill="#0F3B7A"/>
<path d="M17.4322 25.7731H12.568C12.3139 25.7731 12.1079 25.9791 12.1079 26.2332C12.1079 26.4873 12.3139 26.6933 12.568 26.6933H17.4322C17.6865 26.6933 17.8923 26.4873 17.8923 26.2332C17.8923 25.9791 17.6865 25.7731 17.4322 25.7731ZM17.3665 5.50917L16.3856 5.3665C16.3618 5.3631 16.3411 5.3481 16.3304 5.3263L15.8918 4.43702C15.5277 3.69874 14.4735 3.69863 14.1092 4.43679L13.6698 5.32648C13.659 5.34804 13.6383 5.3631 13.6145 5.3665L12.6332 5.50917C11.8185 5.62759 11.4925 6.6296 12.0823 7.20476L12.7926 7.89722C12.8102 7.91427 12.8183 7.93876 12.8142 7.96261L12.6464 8.93902C12.5072 9.75206 13.3605 10.369 14.089 9.98691L14.9666 9.52542C14.9882 9.51376 15.0133 9.51376 15.0349 9.52542L15.9111 9.98603C16.6417 10.3703 17.4927 9.74861 17.3531 8.93861L17.1859 7.96261C17.1818 7.93859 17.1899 7.91386 17.207 7.89745L17.9178 7.20458C18.5074 6.62966 18.1817 5.62759 17.3665 5.50917ZM17.2753 6.54558L16.564 7.23892C16.3303 7.46743 16.2238 7.79609 16.2791 8.11806L16.4463 9.09423C16.4561 9.15558 16.3938 9.20087 16.3397 9.17152L15.4635 8.71073C15.1733 8.55839 14.8281 8.55839 14.5379 8.71073L13.6608 9.17222C13.6052 9.19999 13.5435 9.15652 13.5534 9.09447L13.7209 8.11806C13.7762 7.79568 13.6693 7.46673 13.4352 7.23821L12.7246 6.54575C12.6803 6.50269 12.7043 6.42851 12.7655 6.41995L13.7466 6.27728C14.0702 6.23034 14.3501 6.0272 14.4948 5.73382L14.9342 4.84437C14.9616 4.78853 15.0399 4.78935 15.0668 4.84437L15.5054 5.73318C15.65 6.02702 15.93 6.2304 16.2535 6.27734L17.2345 6.42001C17.2955 6.42857 17.32 6.50222 17.2753 6.54558Z" fill="#0F3B7A"/>
</svg>
