<svg width="40" height="40" viewBox="0 0 40 40" fill="none" xmlns="http://www.w3.org/2000/svg">
<path d="M15 16.25H12.5182C13.6791 12.8881 14.6704 11.2781 17.9688 9.90363C18.5193 9.67413 18.8306 9.08825 18.7134 8.5035C18.5963 7.91988 18.0835 7.5 17.4878 7.5C17.4865 7.5 17.4865 7.5 17.4853 7.5C10.6041 7.51225 6.6515 10.271 3.84875 17.0141C2.95413 19.1321 2.5 21.3989 2.5 23.75C2.5 27.3657 3.59375 29.3348 5.26125 31.9263C5.49075 32.2839 5.8875 32.5 6.31225 32.5H15C17.0679 32.5 18.75 30.8179 18.75 28.75V20C18.75 17.9321 17.0679 16.25 15 16.25ZM33.75 16.25H31.2683C32.4291 12.8881 33.4204 11.2781 36.7188 9.90363C37.2692 9.67413 37.5806 9.08825 37.4634 8.5035C37.3462 7.91988 36.8335 7.5 36.2378 7.5C36.2365 7.5 36.2365 7.5 36.2352 7.5C29.3541 7.51225 25.4015 10.271 22.5988 17.0141C21.7041 19.1321 21.25 21.3989 21.25 23.75C21.25 27.3657 22.3438 29.3348 24.0112 31.9263C24.2407 32.2839 24.6375 32.5 25.0623 32.5H33.75C35.8179 32.5 37.5 30.8179 37.5 28.75V20C37.5 17.9321 35.8179 16.25 33.75 16.25Z" fill="#3B8CF7"/>
</svg>
