<svg width="62" height="589" viewBox="0 0 62 589" fill="none" xmlns="http://www.w3.org/2000/svg">
<path fill-rule="evenodd" clip-rule="evenodd" d="M24.7299 0.072164C40.3012 -0.926112 56.0014 8.50953 59.9227 23.612C63.3849 36.9462 50.6302 47.336 38.8609 54.4965C30.3078 59.7002 19.8687 58.7705 11.7391 52.9271C3.4623 46.9779 -1.29657 37.2793 1.1363 27.3808C4.31064 14.4655 11.4575 0.923062 24.7299 0.072164Z" fill="#B2D4FF"/>
<circle cx="30.5" cy="28.8" r="15" fill="#3B8CF7"/>
<line x1="27" y1="178" x2="27" y2="58" stroke="#B2D4FF"/>
<line x1="27" y1="356" x2="27" y2="236" stroke="#B2D4FF"/>
<line x1="27" y1="530" x2="27" y2="410" stroke="#B2D4FF"/>
<path fill-rule="evenodd" clip-rule="evenodd" d="M25.7125 356.053C40.4993 355.281 56.0107 362.894 59.8862 377.184C63.4002 390.142 51.1815 400.592 39.6603 407.485C31.409 412.422 21.5673 410.35 13.7059 404.814C5.37575 398.947 -1.43546 390.152 1.00062 380.259C4.04856 367.881 12.9821 356.718 25.7125 356.053Z" fill="#FFE4F8"/>
<circle cx="30.5" cy="383" r="15" fill="#FF7FEB"/>
<path fill-rule="evenodd" clip-rule="evenodd" d="M35.2882 530.153C44.9834 530.791 52.3251 537.498 55.9695 546.505C60.9075 558.709 66.4358 573.755 56.3589 582.226C44.7895 591.952 27.4736 589.693 15.376 580.632C3.8165 571.974 -1.18632 556.53 4.11326 543.096C8.67792 531.524 22.8756 529.337 35.2882 530.153Z" fill="#D4FCF0"/>
<circle cx="32" cy="559.25" r="15" fill="#47F09F"/>
<path fill-rule="evenodd" clip-rule="evenodd" d="M34.2882 177.153C43.9834 177.791 51.3251 184.498 54.9695 193.505C59.9075 205.709 65.4358 220.755 55.3589 229.226C43.7895 238.952 26.4736 236.693 14.376 227.632C2.8165 218.974 -2.18632 203.53 3.11326 190.096C7.67792 178.524 21.8756 176.337 34.2882 177.153Z" fill="#FFF3C9"/>
<circle cx="31" cy="206.25" r="15" fill="#FFD84C"/>
</svg>
