<svg width="217" height="193" viewBox="0 0 217 193" fill="none" xmlns="http://www.w3.org/2000/svg">
<path fill-rule="evenodd" clip-rule="evenodd" d="M123.934 0.603601C144.516 0.811106 164.717 7.11858 181.125 19.5955C197.313 31.9042 208.898 49.507 214.15 69.2017C219.218 88.2063 213.636 107.338 209.663 126.603C205.125 148.602 208.499 177.404 189.413 189.128C170.114 200.982 146.535 180.297 123.934 179.261C102.974 178.3 82.2075 190.975 62.6602 183.317C40.3951 174.594 21.6171 157.078 11.6453 135.269C0.973671 111.929 -4.39917 83.5682 6.41005 60.2922C16.9002 37.7033 43.7528 29.6835 65.9028 18.4338C84.4071 9.03585 103.199 0.394546 123.934 0.603601Z" fill="#B2D4FF" fill-opacity="0.3"/>
<path d="M139.953 117.959C139.75 117.208 139.362 116.52 138.824 115.958C138.286 115.395 137.616 114.977 136.875 114.741L117.875 108.334V101.553C117.867 101.468 117.851 101.385 117.828 101.303C118.156 100.991 118.484 100.678 118.812 100.334C125.172 93.5218 127.953 80.9593 127.515 74.4905L127.547 68.1155L109.609 73.0843C108.881 73.2718 108.118 73.2718 107.39 73.0843L89.4529 68.1155L89.4841 74.4905C89.0466 80.9593 91.8279 93.5218 98.1872 100.334C98.5154 100.678 98.8435 100.991 99.1716 101.303C99.1485 101.385 99.1328 101.468 99.1247 101.553V108.334L80.1404 114.725C79.3786 114.973 78.6929 115.412 78.1487 116C77.6044 116.588 77.2197 117.306 77.031 118.084L72.5935 141.616C72.5484 141.842 72.5542 142.075 72.6103 142.298C72.6665 142.522 72.7716 142.73 72.9182 142.908C73.0647 143.086 73.249 143.229 73.4577 143.327C73.6664 143.425 73.8942 143.476 74.1247 143.475H142.875C143.105 143.476 143.333 143.425 143.542 143.327C143.75 143.229 143.935 143.086 144.081 142.908C144.228 142.73 144.333 142.522 144.389 142.298C144.445 142.075 144.451 141.842 144.406 141.616L139.953 117.959ZM114.75 108.569L108.5 112.303L102.25 108.569V103.537C104.157 104.613 106.31 105.178 108.5 105.178C110.69 105.178 112.842 104.613 114.75 103.537V108.569ZM92.5779 76.5686L108.109 80.553C108.363 80.6363 108.637 80.6363 108.89 80.553L124.422 76.5686C124.25 82.6936 121.64 92.7249 116.515 98.2093C115.528 99.3808 114.302 100.329 112.92 100.992C111.539 101.655 110.032 102.016 108.5 102.053C106.968 102.016 105.461 101.655 104.079 100.992C102.697 100.329 101.472 99.3808 100.484 98.2093C95.3591 92.7249 92.7497 82.6936 92.5779 76.5686ZM108.5 133.397C98.4685 133.397 93.8747 123.162 91.781 114.1L93.9372 113.381L100.343 119.928C100.491 120.076 100.666 120.194 100.859 120.275C101.052 120.355 101.259 120.397 101.468 120.397C101.776 120.4 102.076 120.308 102.328 120.131L106.937 117.053V129.584C106.937 129.999 107.102 130.396 107.395 130.689C107.688 130.982 108.085 131.147 108.5 131.147C108.914 131.147 109.312 130.982 109.605 130.689C109.898 130.396 110.062 129.999 110.062 129.584V117.053L114.672 120.131C114.923 120.308 115.224 120.4 115.531 120.397C115.74 120.397 115.947 120.355 116.14 120.275C116.333 120.194 116.509 120.076 116.656 119.928L123.062 113.381L125.218 114.1C123.125 123.162 118.531 133.397 108.5 133.397Z" fill="#3B8CF7"/>
<path d="M108.5 97.5999C109.792 97.6945 111.083 97.3952 112.202 96.7414C113.32 96.0877 114.215 95.1102 114.767 93.9379C114.84 93.7463 114.876 93.5421 114.87 93.337C114.865 93.1318 114.819 92.9297 114.736 92.7422C114.653 92.5546 114.533 92.3854 114.384 92.244C114.236 92.1027 114.06 91.992 113.869 91.9184C113.677 91.8448 113.473 91.8096 113.268 91.8148C113.063 91.8201 112.861 91.8657 112.673 91.9491C112.486 92.0325 112.316 92.152 112.175 92.3008C112.034 92.4496 111.923 92.6247 111.849 92.8163C111.514 93.3899 111.019 93.8527 110.423 94.1475C109.828 94.4423 109.159 94.5561 108.5 94.4749C107.836 94.5576 107.163 94.4418 106.565 94.1422C105.967 93.8425 105.472 93.3723 105.141 92.7911C104.989 92.4056 104.69 92.0962 104.309 91.9311C103.929 91.766 103.499 91.7587 103.114 91.9107C102.728 92.0628 102.419 92.3618 102.253 92.742C102.088 93.1221 102.081 93.5523 102.233 93.9379C102.785 95.1102 103.679 96.0877 104.798 96.7415C105.917 97.3952 107.208 97.6945 108.5 97.5999ZM143.125 73.7405C143.069 73.369 142.883 73.0295 142.6 72.7831C142.316 72.5368 141.954 72.3998 141.578 72.3968H141.156V59.9124C141.157 59.5701 141.046 59.2371 140.84 58.9636C140.634 58.6901 140.345 58.4911 140.016 58.3968L108.922 49.7874C108.646 49.7093 108.354 49.7093 108.078 49.7874L76.9844 58.3968C76.6554 58.4911 76.3661 58.6901 76.1603 58.9636C75.9545 59.2371 75.8434 59.5701 75.8438 59.9124C75.8437 60.2527 75.9552 60.5837 76.1613 60.8546C76.3673 61.1255 76.6564 61.3215 76.9844 61.4124L108.078 70.0374C108.353 70.1207 108.647 70.1207 108.922 70.0374L138.031 61.9593V72.3968H137.625C137.249 72.3998 136.887 72.5368 136.604 72.7831C136.32 73.0295 136.134 73.369 136.078 73.7405L134.781 83.1468C134.751 83.3698 134.769 83.5967 134.834 83.8122C134.898 84.0278 135.008 84.2271 135.156 84.3968C135.301 84.565 135.481 84.6996 135.684 84.7914C135.886 84.8831 136.106 84.9297 136.328 84.928H142.875C143.097 84.9297 143.317 84.8831 143.519 84.7914C143.722 84.6996 143.902 84.565 144.047 84.3968C144.195 84.2271 144.305 84.0278 144.369 83.8122C144.434 83.5967 144.452 83.3698 144.422 83.1468L143.125 73.7405ZM138.125 81.803L139 75.5218H140.203L141.078 81.803H138.125Z" fill="#3B8CF7"/>
</svg>
