<svg width="251" height="218" viewBox="0 0 251 218" fill="none" xmlns="http://www.w3.org/2000/svg">
<path fill-rule="evenodd" clip-rule="evenodd" d="M139.808 207.322C114.966 208.86 90.3979 223.622 67.3051 214.337C41.8648 204.108 22.9337 181.239 12.1915 156.011C0.809021 129.279 -4.33429 98.2012 6.34914 71.1827C16.7741 44.8177 42.1945 27.6187 67.7846 15.4148C90.1303 4.75824 115.075 8.63898 139.808 7.53677C166.042 6.36761 197.876 -9.57991 216.651 8.78052C236.012 27.7147 215.695 61.5082 221.943 87.8585C227.357 110.69 253.371 127.173 250.239 150.427C247.011 174.399 227.569 194.665 206.066 205.743C185.934 216.115 162.411 205.922 139.808 207.322Z" fill="#FFF3C9" fill-opacity="0.4"/>
<path d="M170.241 142.333L160.998 139.455V136.121C165.544 132.03 168.423 124.606 168.423 119.152C168.423 111.273 162.059 104.758 154.029 104.758C145.998 104.758 139.635 111.273 139.635 119.152C139.635 124.606 142.514 132.03 147.059 136.121V139.455L138.12 142.333C135.544 143.091 133.726 145.515 133.726 148.242V155.97C133.726 156.727 134.332 157.485 135.241 157.485H173.12C173.877 157.485 174.635 156.879 174.635 155.97V148.242C174.635 145.515 172.817 143.091 170.241 142.333ZM158.12 140.515C158.12 142.939 150.241 142.939 150.241 140.515V138.091C152.968 139.455 155.544 139.303 158.12 138.091V140.515ZM145.241 128.091C146.604 126.273 147.514 122.788 147.665 119.303C149.938 120.667 152.514 121.273 155.241 121.273C157.665 121.121 159.786 120.515 161.604 119.303C161.907 121.424 162.514 124.152 164.029 125.515C164.18 125.667 164.332 125.667 164.483 125.818C159.786 137.636 151.15 140.364 145.241 128.091ZM114.18 97.9394L104.938 95.0606V91.7273C109.483 87.6364 112.362 80.2121 112.362 74.7576C112.362 66.8788 105.998 60.3636 97.9681 60.3636C90.2408 60.5152 83.7256 67.0303 83.7256 74.9091C83.7256 80.3636 86.6044 87.7879 91.1499 91.8788V95.2121L81.9075 98.0909C79.4832 98.697 77.665 101.121 77.665 103.848V111.727C77.665 112.485 78.2711 113.242 79.1802 113.242H117.059C117.817 113.242 118.574 112.636 118.574 111.727V103.848C118.423 101.121 116.756 98.697 114.18 97.9394ZM102.059 96.1212C102.059 98.5455 94.1802 98.5455 94.1802 96.1212V93.697C96.7559 94.9091 99.3317 95.0606 102.059 93.697V96.1212ZM89.0287 83.697C90.3923 81.8788 91.3014 78.394 91.4529 74.9091C93.7256 76.2727 96.3014 76.8788 99.0287 76.8788C101.453 76.7273 103.574 76.1212 105.392 74.9091C105.695 77.0303 106.301 79.7576 107.817 81.1212C107.968 81.2727 108.12 81.2727 108.271 81.4243C103.574 93.5455 94.9378 95.9697 89.0287 83.697ZM116.301 134L112.21 132.788C111.907 132.03 111.756 131.424 111.301 130.667L113.423 126.879C113.726 126.273 113.574 125.515 113.12 125.061L109.938 121.879C109.483 121.424 108.726 121.273 108.12 121.576L104.332 123.697C103.726 123.394 102.968 123.091 102.21 122.788L100.998 118.697C100.847 118.091 100.241 117.636 99.6347 117.636H95.0893C94.4832 117.636 93.8772 118.091 93.7256 118.697L92.5135 122.788C91.7559 123.091 91.1499 123.242 90.3923 123.697L86.6044 121.576C85.9984 121.273 85.2408 121.424 84.7863 121.879L81.6044 125.061C81.1499 125.515 80.9984 126.273 81.3014 126.879L83.7256 130.667C83.4226 131.273 83.1196 132.03 82.8166 132.788L78.7256 134C78.1196 134.152 77.665 134.758 77.665 135.364V139.909C77.665 140.515 78.1196 141.121 78.7256 141.273L82.8166 142.485C83.1196 143.242 83.4226 143.848 83.7256 144.606L81.6044 148.394C81.3014 149 81.4529 149.606 81.9075 150.212L85.0893 153.394C85.5438 153.848 86.3014 154 86.9075 153.697L90.5438 151.424C91.1499 151.727 91.9075 152.03 92.665 152.333L93.8772 156.424C94.0287 157.03 94.6347 157.485 95.2408 157.485H99.7863C100.392 157.485 100.998 157.03 101.15 156.424L102.362 152.333C103.12 152.03 103.726 151.879 104.483 151.424L108.271 153.545C108.877 153.848 109.483 153.697 110.089 153.242L113.271 150.061C113.726 149.606 113.877 148.848 113.574 148.242L111.453 144.455C111.756 143.848 112.059 143.091 112.362 142.485L116.453 141.273C117.059 141.121 117.514 140.515 117.514 139.909V135.364C117.362 134.758 116.907 134.152 116.301 134ZM97.5135 145.061C93.4226 145.061 90.0893 141.727 90.0893 137.636C90.0893 133.545 93.4226 130.212 97.5135 130.212C101.604 130.212 104.938 133.545 104.938 137.636C104.938 141.727 101.604 145.061 97.5135 145.061ZM173.574 76.7273L169.483 75.5152C169.18 74.7576 169.029 74.1515 168.574 73.5455L170.695 69.7576C170.998 69.1515 170.847 68.394 170.392 67.9394L167.21 64.7576C166.756 64.303 165.998 64.1515 165.392 64.4546L161.756 66.5758C161.15 66.2727 160.392 65.9697 159.635 65.6667L158.423 61.5758C158.271 60.9697 157.665 60.5152 157.059 60.5152H152.514C151.907 60.5152 151.301 60.9697 151.15 61.5758L149.938 65.6667C149.18 65.9697 148.574 66.1212 147.968 66.5758L144.18 64.4546C143.574 64.1515 142.968 64.303 142.362 64.7576L139.18 67.9394C138.726 68.394 138.574 69.1515 138.877 69.7576L140.998 73.5455C140.695 74.1515 140.392 74.9091 140.089 75.5152L135.998 76.7273C135.392 76.8788 134.938 77.4849 134.938 78.0909V82.6364C134.938 83.2424 135.392 83.8485 135.998 84L140.089 85.2121C140.392 85.9697 140.544 86.5758 140.998 87.1818L138.877 90.9697C138.574 91.5758 138.726 92.3333 139.18 92.7879L142.362 95.9697C142.817 96.4243 143.574 96.5758 144.18 96.2727L147.968 94.1515C148.574 94.4546 149.332 94.7576 149.938 95.0606L151.15 99.1515C151.301 99.7576 151.907 100.212 152.514 100.212H157.059C157.665 100.212 158.271 99.7576 158.423 99.1515L159.635 95.0606C160.392 94.7576 160.998 94.6061 161.756 94.1515L165.544 96.2727C166.15 96.5758 166.907 96.4243 167.362 95.9697L170.544 92.7879C170.998 92.3333 171.15 91.5758 170.847 90.9697L168.574 87.3333C168.877 86.7273 169.18 85.9697 169.483 85.3636L173.574 84.1515C174.18 84 174.635 83.394 174.635 82.7879V78.2424C174.635 77.4849 174.18 76.8788 173.574 76.7273ZM154.786 87.7879C150.695 87.7879 147.362 84.4546 147.362 80.3636C147.362 76.2727 150.695 72.9394 154.786 72.9394C158.877 72.9394 162.21 76.2727 162.21 80.3636C162.21 84.4546 158.877 87.7879 154.786 87.7879ZM131.15 146.273C130.998 146.879 130.998 147.636 130.998 148.242V149.455C127.362 147.788 124.786 144.152 124.786 139.758V115.515C124.786 112.939 123.423 110.667 121.453 109.152V105.818C125.089 107.485 127.665 111.121 127.665 115.515V139.758C127.665 142.485 129.029 144.909 131.15 146.273Z" fill="#FFD84C"/>
</svg>
