<svg width="301" height="301" viewBox="0 0 301 301" fill="none" xmlns="http://www.w3.org/2000/svg">
<path d="M49.1361 57.5873C51.8303 57.5873 54.0143 55.4032 54.0143 52.709C54.0143 50.0148 51.8303 47.8307 49.1361 47.8307C46.4419 47.8307 44.2578 50.0148 44.2578 52.709C44.2578 55.4032 46.4419 57.5873 49.1361 57.5873Z" fill="#FF5151"/>
<path d="M249.699 60.5156C255.218 60.5156 259.693 56.0408 259.693 50.521C259.693 45.0011 255.218 40.5264 249.699 40.5264C244.179 40.5264 239.704 45.0011 239.704 50.521C239.704 56.0408 244.179 60.5156 249.699 60.5156Z" fill="#47F09F"/>
<path d="M56.9557 249.9C59.8588 249.9 62.2123 247.547 62.2123 244.644C62.2123 241.741 59.8588 239.387 56.9557 239.387C54.0526 239.387 51.6992 241.741 51.6992 244.644C51.6992 247.547 54.0526 249.9 56.9557 249.9Z" fill="#FF7FEB"/>
<path d="M151.977 113.379C151.977 106.466 149.173 100.206 144.64 95.6729C140.14 91.1729 133.879 88.3686 126.966 88.3686H28.9768C15.1508 88.3685 3.93359 99.5533 3.93359 113.379C3.93359 120.292 6.73748 126.553 11.2706 131.086C15.8028 135.618 22.0642 138.423 28.9768 138.423H126.966C140.792 138.423 151.977 127.205 151.977 113.379ZM222.118 170.119H96.0532C82.2263 170.119 71.0417 181.303 71.0417 195.129C71.0417 202.042 73.8464 208.303 78.3787 212.803C82.8791 217.336 89.1397 220.14 96.0532 220.14H222.118C235.944 220.14 247.129 208.955 247.129 195.129C247.129 188.216 244.325 181.956 239.792 177.456C235.292 172.923 229.031 170.119 222.118 170.119ZM272.4 88.3685H221.89C208.064 88.3685 196.846 99.5533 196.846 113.379C196.846 127.205 208.064 138.423 221.89 138.423H272.4C286.227 138.423 297.412 127.205 297.412 113.379C297.412 99.5533 286.227 88.3685 272.4 88.3685ZM273.575 181.825C267.346 181.825 262.325 186.879 262.325 193.108C262.325 199.336 267.346 204.358 273.575 204.358C279.803 204.358 284.857 199.336 284.857 193.108C284.857 186.879 279.803 181.825 273.575 181.825Z" fill="#B2D4FF"/>
<path d="M200.47 182.303V127.249L152.793 99.7211L105.112 127.249V182.303L152.793 209.831L200.47 182.303Z" fill="#0F3B7A"/>
<path d="M152.792 185.045C169.51 185.045 183.063 171.492 183.063 154.774C183.063 138.056 169.51 124.504 152.792 124.504C136.074 124.504 122.521 138.056 122.521 154.774C122.521 171.492 136.074 185.045 152.792 185.045Z" fill="white"/>
<path d="M152.793 170.828C161.658 170.828 168.846 163.64 168.846 154.774C168.846 145.908 161.658 138.721 152.793 138.721C143.927 138.721 136.739 145.908 136.739 154.774C136.739 163.64 143.927 170.828 152.793 170.828Z" fill="#0F3B7A"/>
<path d="M243.069 139.89C235.7 139.89 229.607 145.287 228.431 152.329H203.73V125.368L192.266 118.748L207.993 103.018C213.982 107.319 222.031 106.586 227.152 101.465C232.956 95.6614 232.956 86.218 227.152 80.4143C221.336 74.5985 211.921 74.5956 206.103 80.4143C200.894 85.6233 200.4 93.7428 204.541 99.5526L187.883 116.217L155.223 97.3597V79.1367C162.272 77.9671 167.676 71.8738 167.676 64.4985C167.676 56.2906 161 49.6128 152.792 49.6128C144.584 49.6128 137.906 56.2906 137.906 64.4985C137.906 71.8641 143.298 77.9526 150.332 79.1338V97.3762L117.687 116.225L101.03 99.5663C105.182 93.7557 104.692 85.6274 99.4796 80.4143C93.6637 74.5985 84.2492 74.5956 78.4304 80.4143C72.6267 86.218 72.6267 95.6614 78.4304 101.465C83.5306 106.565 91.5704 107.331 97.5761 103.03L113.303 118.756L101.852 125.368V152.329H77.1511C75.9752 145.287 69.8826 139.89 62.513 139.89C54.3051 139.89 47.6289 146.568 47.6289 154.776C47.6289 162.984 54.3051 169.662 62.513 169.662C69.8842 169.662 75.9768 164.263 77.1519 157.22H101.852V184.184L113.318 190.804L97.592 206.535C91.5888 202.223 83.5411 202.976 78.4304 208.087C72.6268 213.89 72.6268 223.334 78.4304 229.137C84.2463 234.953 93.6608 234.956 99.4796 229.137C104.688 223.929 105.182 215.811 101.042 210.001L117.703 193.336L150.332 212.175V230.418C143.298 231.599 137.906 237.688 137.906 245.053C137.906 253.261 144.584 259.939 152.792 259.939C161 259.939 167.676 253.261 167.676 245.053C167.676 237.678 162.272 231.585 155.223 230.415V212.192L187.881 193.335L204.543 209.997C200.4 215.807 200.893 223.928 206.103 229.137C211.919 234.953 221.333 234.956 227.152 229.137C232.956 223.334 232.956 213.89 227.152 208.087C222.118 203.052 214.079 202.164 207.994 206.531L192.266 190.803L203.73 184.184V157.22H228.43C229.605 164.263 235.698 169.662 243.069 169.662C251.277 169.662 257.955 162.984 257.955 154.776C257.955 146.568 251.277 139.89 243.069 139.89ZM209.561 83.8727C213.461 79.9758 219.778 79.9604 223.694 83.8727C227.59 87.7688 227.59 94.1107 223.694 98.0068C219.917 101.78 213.338 101.78 209.561 98.0068C205.665 94.1107 205.665 87.7688 209.561 83.8727ZM81.8887 98.0068C77.9926 94.1107 77.9926 87.7688 81.8887 83.8727C85.7889 79.9758 92.1057 79.9604 96.0213 83.8727C99.9174 87.7688 99.9174 94.1107 96.0213 98.0068C92.2445 101.78 85.6654 101.78 81.8887 98.0068ZM62.513 164.77C57.0023 164.77 52.5202 160.287 52.5202 154.776C52.5202 149.265 57.0023 144.782 62.513 144.782C68.0237 144.782 72.5074 149.265 72.5074 154.776C72.5074 160.287 68.0237 164.77 62.513 164.77ZM96.0213 225.679C92.2445 229.453 85.6654 229.453 81.8887 225.679C77.9926 221.783 77.9926 215.441 81.8887 211.545C85.7889 207.648 92.1057 207.633 96.0213 211.545C99.9174 215.441 99.9174 221.783 96.0213 225.679ZM223.694 211.545C227.59 215.441 227.59 221.783 223.694 225.679C219.917 229.453 213.338 229.453 209.561 225.679C205.665 221.783 205.665 215.441 209.561 211.545C213.461 207.648 219.778 207.633 223.694 211.545ZM142.798 64.4985C142.798 58.9879 147.281 54.5042 152.792 54.5042C158.303 54.5042 162.785 58.9879 162.785 64.4985C162.785 70.0092 158.303 74.4913 152.792 74.4913C147.281 74.4913 142.798 70.0092 142.798 64.4985ZM162.785 245.053C162.785 250.564 158.303 255.048 152.792 255.048C147.281 255.048 142.798 250.564 142.798 245.053C142.798 239.543 147.281 235.06 152.792 235.06C158.303 235.06 162.785 239.543 162.785 245.053ZM197.209 180.42L152.792 206.065L108.374 180.42V129.132L152.792 103.487L197.209 129.132V180.42ZM243.069 164.77C237.559 164.77 233.075 160.287 233.075 154.776C233.075 149.265 237.559 144.782 243.069 144.782C248.58 144.782 253.064 149.265 253.064 154.776C253.064 160.287 248.58 164.77 243.069 164.77Z" fill="#0F3B7A"/>
<path d="M134.292 154.776C134.292 164.977 142.591 173.276 152.792 173.276C162.992 173.276 171.29 164.977 171.29 154.776C171.29 144.575 162.992 136.276 152.792 136.276C142.591 136.276 134.292 144.575 134.292 154.776ZM166.399 154.776C166.399 162.28 160.295 168.385 152.792 168.385C145.288 168.385 139.183 162.28 139.183 154.776C139.183 147.272 145.288 141.167 152.792 141.167C160.295 141.167 166.399 147.272 166.399 154.776Z" fill="#0F3B7A"/>
</svg>
