<svg width="101" height="100" viewBox="0 0 101 100" fill="none" xmlns="http://www.w3.org/2000/svg">
<path d="M52.5065 27.8888L82.4933 23.5333C85.0621 23.1602 87.3847 25.1033 87.4707 27.6976L89.1058 76.9249C89.1839 79.2852 87.366 81.2781 85.0082 81.4164L53.3868 83.2664C50.8863 83.4125 48.7783 81.4242 48.7783 78.9195V32.1977C48.7783 30.0348 50.3661 28.1998 52.5065 27.8888Z" fill="#0F3B7A"/>
<path d="M48.494 27.8888L18.5074 23.5333C15.9386 23.1602 13.616 25.1033 13.5299 27.6976L11.895 76.9249C11.8166 79.2852 13.6345 81.2781 15.9924 81.4164L47.6138 83.2664C50.1142 83.4125 52.2222 81.4242 52.2222 78.9195V32.1977C52.2222 30.0348 50.6345 28.1998 48.494 27.8888Z" fill="#0F3B7A"/>
<path d="M51.8176 26.3488L81.2434 21.3887C82.1122 21.2423 82.9098 21.8973 82.9356 22.7779L84.47 75.7766C84.4927 76.5564 83.8942 77.2145 83.1161 77.2667L52.1559 79.3422C51.318 79.3984 50.6074 78.7336 50.6074 77.8941V27.78C50.6074 27.0715 51.1189 26.4666 51.8176 26.3488Z" fill="white"/>
<path fill-rule="evenodd" clip-rule="evenodd" d="M81.0022 19.9575L51.5765 24.9176C50.1792 25.1531 49.1562 26.363 49.1562 27.78V77.8941C49.1562 79.5734 50.5773 80.9023 52.2531 80.7906L83.2131 78.7148C84.7702 78.6101 85.9662 77.2942 85.9209 75.7346L84.3866 22.7359C84.3358 20.9747 82.7397 19.6647 81.0022 19.9575ZM81.2436 21.3887L51.8177 26.3488C51.1191 26.4665 50.6076 27.0715 50.6076 27.78V77.8941C50.6076 78.7336 51.3181 79.3984 52.156 79.3422L83.1162 77.2667C83.8944 77.2146 84.4928 76.5564 84.4702 75.7766L82.9358 22.7779C82.91 21.8973 82.1123 21.2423 81.2436 21.3887Z" fill="#333333"/>
<path d="M52.3469 26.2322L77.6105 18.2468C78.5293 17.9564 79.4707 18.6254 79.4989 19.5886L81.0301 72.495C81.0512 73.2065 80.5528 73.8279 79.8535 73.9622L53.0584 79.114C52.1633 79.2867 51.333 78.6008 51.333 77.689V27.6161C51.333 26.983 51.7433 26.423 52.3469 26.2322Z" fill="white"/>
<path fill-rule="evenodd" clip-rule="evenodd" d="M77.1732 16.8629L51.9097 24.8484C50.7025 25.2299 49.8818 26.35 49.8818 27.6161V77.689C49.8818 79.5117 51.5425 80.8836 53.3327 80.5398L80.128 75.3875C81.5257 75.1188 82.5225 73.8759 82.4811 72.453L80.9499 19.5466C80.8936 17.6202 79.0108 16.282 77.1732 16.8629ZM77.6107 18.2468L52.3471 26.2322C51.7436 26.4231 51.3332 26.983 51.3332 27.6161V77.689C51.3332 78.6008 52.1636 79.2859 53.0586 79.1141L79.8538 73.9623C80.553 73.8278 81.0514 73.2064 81.0304 72.495L79.4991 19.5887C79.471 18.6255 78.5295 17.9563 77.6107 18.2468Z" fill="#333333"/>
<path d="M57.9609 23.419L62.4166 21.9645V33.8924L60.1888 32.5255L57.9609 34.7534V23.419Z" fill="#BD2122"/>
<path fill-rule="evenodd" clip-rule="evenodd" d="M56.5088 23.419C56.5088 22.791 56.9128 22.2342 57.5098 22.0392L61.9655 20.5849C62.4075 20.4406 62.8918 20.5167 63.2682 20.7898C63.6445 21.0628 63.8672 21.4996 63.8672 21.9646V33.8923C63.8672 34.4178 63.5832 34.9022 63.1246 35.1588C62.6661 35.4154 62.1047 35.4042 61.6568 35.1294L60.4048 34.3613L58.9864 35.7796C58.5714 36.1947 57.9471 36.3188 57.4047 36.0942C56.8624 35.8696 56.5088 35.3403 56.5088 34.7533V23.419ZM62.4158 33.8923L60.188 32.5255L57.9602 34.7533V23.419L62.4158 21.9646V33.8923Z" fill="#BD2122"/>
<path d="M48.538 26.3477L19.3173 21.3908C18.448 21.2433 17.6492 21.8987 17.6238 22.78L16.0992 75.7775C16.0768 76.5569 16.6743 77.2148 17.4523 77.2673L48.1976 79.3414C49.0357 79.3984 49.7467 78.7336 49.7467 77.8934V27.7787C49.7467 27.0708 49.236 26.4662 48.538 26.3477Z" fill="white"/>
<path fill-rule="evenodd" clip-rule="evenodd" d="M19.5593 19.9599L48.78 24.9169C50.1758 25.1537 51.1972 26.3629 51.1972 27.7787V77.8935C51.1972 79.5734 49.7754 80.9023 48.0991 80.7898L17.3539 78.7156C15.7979 78.6101 14.6029 77.2947 14.6477 75.7358L16.1723 22.7383C16.223 20.9756 17.8208 19.665 19.5593 19.9599ZM19.3165 21.3908L48.5373 26.3477C49.2352 26.4662 49.7459 27.0708 49.7459 27.7787V77.8935C49.7459 78.7336 49.035 79.3984 48.1968 79.3414L17.4515 77.2672C16.6736 77.2147 16.0761 76.5569 16.0985 75.7775L17.623 22.78C17.6484 21.8987 18.4473 21.2433 19.3165 21.3908Z" fill="#333333"/>
<path fill-rule="evenodd" clip-rule="evenodd" d="M41.6699 40.7453C42.6275 40.3206 43.722 40.3616 44.5577 40.7562C44.9201 40.9272 45.0752 41.3598 44.9041 41.7222C44.733 42.0847 44.3004 42.2397 43.938 42.0687C43.4815 41.8531 42.8279 41.8194 42.2583 42.072C41.724 42.309 41.2231 42.8158 41.0582 43.7832C40.8943 44.744 41.1116 45.6642 41.5913 46.2748C42.0461 46.8537 42.786 47.2223 43.8781 47.0375C44.2733 46.9706 44.6478 47.2367 44.7147 47.6319C44.7816 48.0271 44.5155 48.4016 44.1203 48.4685C42.5294 48.7378 41.2488 48.1882 40.45 47.1714C39.6762 46.1864 39.4067 44.8337 39.6275 43.5392C39.8715 42.1082 40.677 41.1856 41.6699 40.7453ZM77.9625 37.1165C77.8857 36.7232 77.5045 36.4665 77.1112 36.5434L53.9712 41.0638C53.5778 41.1406 53.3213 41.5218 53.3981 41.9151C53.4749 42.3085 53.8561 42.5651 54.2495 42.4882L77.3895 37.9679C77.7828 37.891 78.0394 37.5098 77.9625 37.1165ZM77.9625 40.453C77.8857 40.0597 77.5045 39.8031 77.1112 39.8799L53.9712 44.4003C53.5778 44.4772 53.3213 44.8583 53.3981 45.2516C53.4749 45.645 53.8561 45.9015 54.2495 45.8247L77.3895 41.3044C77.7828 41.2276 78.0394 40.8464 77.9625 40.453ZM77.9625 53.8528C77.8857 53.4594 77.5045 53.2029 77.1112 53.2797L53.9712 57.8001C53.5778 57.8769 53.3213 58.2581 53.3981 58.6515C53.4749 59.0448 53.8561 59.3014 54.2495 59.2245L77.3895 54.7041C77.7828 54.6273 78.0394 54.2462 77.9625 53.8528ZM77.9625 43.8972C77.8857 43.5039 77.5045 43.2473 77.1112 43.3241L53.9712 47.8445C53.5778 47.9213 53.3213 48.3025 53.3981 48.6958C53.4749 49.0892 53.8561 49.3458 54.2495 49.269L77.3895 44.7486C77.7828 44.6717 78.0394 44.2905 77.9625 43.8972ZM77.9625 57.297C77.8857 56.9037 77.5045 56.6471 77.1112 56.7239L53.9712 61.2443C53.5778 61.3212 53.3213 61.7023 53.3981 62.0956C53.4749 62.489 53.8561 62.7456 54.2495 62.6687L77.3895 58.1483C77.7828 58.0715 78.0394 57.6904 77.9625 57.297ZM77.9625 47.476C77.8857 47.0826 77.5045 46.8261 77.1112 46.9029L53.9712 51.4233C53.5778 51.5001 53.3213 51.8812 53.3981 52.2746C53.4749 52.6679 53.8561 52.9245 54.2495 52.8477L77.3895 48.3273C77.7828 48.2505 78.0394 47.8694 77.9625 47.476ZM77.9625 60.8758C77.8857 60.4825 77.5045 60.2259 77.1112 60.3028L53.9712 64.8232C53.5778 64.9 53.3213 65.2812 53.3981 65.6745C53.4749 66.0679 53.8561 66.3244 54.2495 66.2476L77.3895 61.7272C77.7828 61.6504 78.0394 61.2692 77.9625 60.8758ZM67.4715 66.6763C67.4034 66.2814 67.0281 66.0164 66.6331 66.0844L53.9868 68.2641C53.5918 68.3322 53.3268 68.7076 53.3949 69.1025C53.463 69.4975 53.8384 69.7625 54.2333 69.6944L66.8796 67.5147C67.2745 67.4466 67.5395 67.0713 67.4715 66.6763ZM20.8797 52.7012C20.9163 52.302 21.2695 52.0082 21.6686 52.0448L45.1315 54.1973C45.5306 54.234 45.8245 54.5872 45.7878 54.9863C45.7513 55.3854 45.3981 55.6793 44.9989 55.6426L21.536 53.4901C21.1369 53.4535 20.8431 53.1002 20.8797 52.7012ZM20.8797 62.3851C20.9163 61.9859 21.2695 61.6921 21.6686 61.7287L45.1315 63.8812C45.5306 63.9179 45.8245 64.2711 45.7878 64.6702C45.7513 65.0693 45.3981 65.3632 44.9989 65.3265L21.536 63.174C21.1369 63.1373 20.8431 62.7841 20.8797 62.3851ZM20.8783 56.1569C20.9052 55.757 21.2511 55.4547 21.651 55.4815L34.4588 56.3426C34.8586 56.3694 35.161 56.7154 35.1341 57.1153C35.1072 57.5151 34.7613 57.8176 34.3613 57.7907L21.5537 56.9297C21.1538 56.9028 20.8514 56.5568 20.8783 56.1569ZM20.8784 65.8389C20.9064 65.4391 21.2532 65.1377 21.653 65.1657L40.0338 66.4524C40.4336 66.4804 40.7351 66.8272 40.707 67.2269C40.6791 67.6268 40.3323 67.9282 39.9325 67.9002L21.5517 66.6135C21.1518 66.5855 20.8504 66.2387 20.8784 65.8389ZM20.8783 68.9305C20.9052 68.5307 21.2511 68.2283 21.651 68.2551L34.4588 69.1161C34.8586 69.1431 35.161 69.489 35.1341 69.8889C35.1072 70.2888 34.7613 70.5912 34.3613 70.5643L21.5537 69.7033C21.1538 69.6764 20.8514 69.3305 20.8783 68.9305ZM25.6492 31.5801C25.9588 31.5948 26.2249 31.8046 26.3114 32.1022L30.6165 46.901C30.7285 47.2858 30.5073 47.6886 30.1224 47.8005C29.7376 47.9125 29.3349 47.6912 29.2229 47.3064L25.5081 34.5365L20.6385 46.78C20.4903 47.1524 20.0684 47.3342 19.696 47.1861C19.3235 47.038 19.1417 46.616 19.2899 46.2436L24.9403 32.0367C25.0549 31.7487 25.3396 31.5652 25.6492 31.5801Z" fill="#333333"/>
<path fill-rule="evenodd" clip-rule="evenodd" d="M28.7888 41.4804C28.7888 41.8812 28.4638 42.2061 28.063 42.2061H22.0089C21.6081 42.2061 21.2832 41.8812 21.2832 41.4804C21.2832 41.0796 21.6081 40.7547 22.0089 40.7547L28.063 40.7548C28.4638 40.7548 28.7888 41.0796 28.7888 41.4804ZM33.766 37.525V40.4898C33.9566 40.4973 34.161 40.5184 34.367 40.55C34.6499 40.5271 34.9593 40.4773 35.2514 40.3856C35.5952 40.2777 35.8606 40.1285 36.033 39.9493C36.1895 39.7867 36.2969 39.5736 36.2969 39.2469C36.2969 38.6121 35.9222 38.1865 35.237 37.885C34.7801 37.684 34.247 37.5733 33.766 37.525ZM36.6453 41.3189C36.7991 41.2146 36.9453 41.0944 37.0787 40.9558C37.4924 40.526 37.7483 39.9534 37.7483 39.2469C37.7483 37.8152 36.7955 36.9852 35.8215 36.5566C34.8631 36.1349 33.7523 36.0263 33.0208 36.046C32.6277 36.0567 32.3147 36.3783 32.3147 36.7715V47.2114C32.3147 47.5326 32.5257 47.8155 32.8335 47.907C33.6196 48.1407 34.9043 48.2261 36.066 47.8564C36.6576 47.6681 37.248 47.3518 37.7177 46.8452C38.1941 46.3313 38.5132 45.6563 38.605 44.8147C38.7966 43.0581 37.754 41.9471 36.6453 41.3189ZM33.766 42.0131C33.9289 42.0192 34.1067 42.0185 34.2936 42.0092C34.73 42.0885 35.2361 42.2353 35.7028 42.4624C36.6555 42.9259 37.2758 43.6161 37.1622 44.6573C37.1023 45.2066 36.9061 45.5859 36.6533 45.8585C36.3937 46.1385 36.0413 46.3412 35.6259 46.4734C35.0017 46.672 34.3063 46.6888 33.766 46.6203V42.0131Z" fill="#333333"/>
</svg>
