<svg width="85" height="85" viewBox="0 0 85 85" fill="none" xmlns="http://www.w3.org/2000/svg">
<path fill-rule="evenodd" clip-rule="evenodd" d="M31.9859 16.2597C30.8768 16.2433 30.8768 17.9167 31.9859 17.9003H36.8946C38.0037 17.9167 38.0037 16.2433 36.8946 16.2597H31.9859ZM30.3452 12.9785C29.2345 12.962 29.2345 14.6355 30.3452 14.6191H41.8165C42.9256 14.6355 42.9256 12.962 41.8165 12.9785H30.3452Z" fill="#F6F9FE"/>
<path fill-rule="evenodd" clip-rule="evenodd" d="M33.671 14.6208C33.8886 14.6239 34.096 14.7132 34.2477 14.8692C34.3994 15.0251 34.4829 15.235 34.4798 15.4525C34.4768 15.6701 34.3875 15.8774 34.2315 16.0291C34.0755 16.1808 33.8656 16.2645 33.648 16.2614H36.9195C36.7019 16.2691 36.4902 16.1898 36.331 16.0413C36.1718 15.8929 36.078 15.6873 36.0704 15.4698C36.0628 15.2522 36.1419 15.0406 36.2904 14.8814C36.4388 14.7221 36.6445 14.6284 36.862 14.6208H33.671ZM27.0757 9.69894C25.965 9.68254 25.965 11.356 27.0757 11.3396H28.7163C29.8254 11.356 29.8254 9.68254 28.7163 9.69894H27.0757ZM31.9976 9.69894C31.78 9.69894 31.5714 9.78523 31.4175 9.93907C31.2637 10.0929 31.1773 10.3017 31.1773 10.5193C31.1773 10.7368 31.2637 10.9454 31.4175 11.0992C31.5714 11.2531 31.78 11.3396 31.9976 11.3396H40.2007C40.4183 11.3396 40.6269 11.2531 40.7808 11.0992C40.9346 10.9454 41.021 10.7368 41.021 10.5193C41.021 10.3017 40.9346 10.0929 40.7808 9.93907C40.6269 9.78523 40.4183 9.69894 40.2007 9.69894H31.9976Z" fill="#F6F9FE"/>
<path fill-rule="evenodd" clip-rule="evenodd" d="M35.2525 9.6973C35.0349 9.6973 34.8263 9.78378 34.6724 9.93762C34.5186 10.0915 34.4322 10.3 34.4322 10.5176C34.4322 10.7352 34.5186 10.944 34.6724 11.0978C34.8263 11.2516 35.0349 11.3379 35.2525 11.3379H43.4556C43.6732 11.3379 43.8818 11.2516 44.0357 11.0978C44.1895 10.944 44.2759 10.7352 44.2759 10.5176C44.2759 10.3 44.1895 10.0915 44.0357 9.93762C43.8818 9.78378 43.6732 9.6973 43.4556 9.6973H35.2525ZM32.8277 11.3397C33.0452 11.3428 33.2527 11.4321 33.4043 11.5881C33.556 11.7441 33.6395 11.9539 33.6365 12.1715C33.6334 12.389 33.5441 12.5963 33.3881 12.748C33.2321 12.8997 33.0222 12.9834 32.8047 12.9803H36.0761C35.8585 12.988 35.6469 12.9087 35.4876 12.7602C35.3284 12.6118 35.2347 12.4062 35.2271 12.1887C35.2195 11.9711 35.2986 11.7595 35.447 11.6003C35.5955 11.4411 35.8011 11.3473 36.0187 11.3397H32.8277ZM37.7594 11.3397C37.8671 11.3412 37.9735 11.3638 38.0724 11.4064C38.1714 11.449 38.261 11.5108 38.3361 11.5881C38.4112 11.6653 38.4703 11.7565 38.5101 11.8566C38.55 11.9567 38.5697 12.0637 38.5682 12.1715C38.5667 12.2792 38.544 12.3855 38.5014 12.4845C38.4587 12.5834 38.3971 12.6729 38.3198 12.748C38.2426 12.8231 38.1513 12.8824 38.0512 12.9223C37.9511 12.9621 37.8441 12.9819 37.7364 12.9803H41.0078C40.7903 12.988 40.5786 12.9087 40.4194 12.7602C40.2601 12.6118 40.1664 12.4062 40.1588 12.1887C40.1512 11.9711 40.2303 11.7595 40.3787 11.6003C40.5272 11.4411 40.7328 11.3473 40.9504 11.3397H37.7594ZM40.176 16.2616C39.067 16.2452 39.067 17.9186 40.176 17.9022C41.2851 17.9186 41.2851 16.2452 40.176 16.2616Z" fill="#F6F9FE"/>
<path fill-rule="evenodd" clip-rule="evenodd" d="M0.699707 84.2425C0.699707 84.2425 5.67244 62.3433 13.9035 61.569C19.7244 61.3623 24.2361 66.5237 23.6356 71.3012C22.817 79.5404 0.699707 84.2425 0.699707 84.2425Z" fill="#FFD84C"/>
<path fill-rule="evenodd" clip-rule="evenodd" d="M11.0308 73.9985C11.0308 73.9985 11.5476 62.8784 16.7057 62.3912C20.3512 62.2632 23.1779 65.4967 22.8022 68.4892C22.2904 73.6523 11.0308 73.9985 11.0308 73.9985Z" fill="#FF9800"/>
<path fill-rule="evenodd" clip-rule="evenodd" d="M78.0402 7.35294C43.2376 7.35294 24.6756 35.1943 18.876 52.5964C24.6756 53.7563 31.6368 60.7176 32.7967 66.5189C50.1971 60.7176 78.0402 42.1555 78.0402 7.35294Z" fill="white"/>
<path fill-rule="evenodd" clip-rule="evenodd" d="M0.699707 84.2425C0.699707 84.2425 5.67244 62.3433 13.9035 61.569C19.7244 61.3623 24.2361 66.5237 23.6356 71.3012C22.817 79.5404 0.699707 84.2425 0.699707 84.2425Z" fill="#FFD84C"/>
<path fill-rule="evenodd" clip-rule="evenodd" d="M11.0308 73.9985C11.0308 73.9985 11.5476 62.8784 16.7057 62.3912C20.3512 62.2632 23.1779 65.4967 22.8022 68.4892C22.2904 73.6523 11.0308 73.9985 11.0308 73.9985Z" fill="#FF9800"/>
<path fill-rule="evenodd" clip-rule="evenodd" d="M26.7707 36.4756C23.7897 41.2957 20.4051 47.4973 18.9154 52.5963C17.7243 52.1238 17.767 51.425 15.4422 51.4151C13.1207 51.3987 9.52445 54.7621 6.56641 56.4356C8.49578 49.0527 13.2208 35.1599 16.7038 34.7464C19.0286 34.0361 24.8216 35.2304 26.7723 36.4756H26.7707ZM48.9208 58.657C44.1876 61.5117 37.8892 65.0045 32.7869 66.486C33.2577 67.6771 33.9468 67.6458 33.9632 69.9607C33.973 72.2805 30.6048 75.8736 28.9265 78.8283C36.3142 76.9104 50.2136 72.2084 50.6336 68.727C51.3489 66.4039 50.1627 60.6075 48.9208 58.6552V58.657Z" fill="#BD2122"/>
<path fill-rule="evenodd" clip-rule="evenodd" d="M18.4265 54.6127C21.5519 55.3445 23.9259 57.2196 26.0111 59.2885C28.0996 61.354 29.8961 63.6181 30.4769 66.5171L27.8666 67.8953L17.2305 57.4035L18.4265 54.6127Z" fill="#263238"/>
<path fill-rule="evenodd" clip-rule="evenodd" d="M78.0401 7.35455C70.7131 7.35455 64.1162 8.6015 58.1968 10.7097L74.6851 27.1963C76.7933 21.2769 78.0385 14.6799 78.0385 7.35455H78.0401Z" fill="#BD2122"/>
<path d="M50.4521 30.7369C51.256 33.7372 54.3399 35.5176 57.3401 34.7137C60.3404 33.9098 62.1209 30.826 61.317 27.8257C60.513 24.8255 57.4291 23.0449 54.4289 23.8488C51.4286 24.6528 49.6482 27.7367 50.4521 30.7369Z" fill="#3B8CF7"/>
<path d="M58.1969 10.7097C57.0616 11.1149 55.9411 11.5415 54.855 12.009L73.3858 30.5383C73.8538 29.4383 74.2866 28.3237 74.6836 27.1962L58.1969 10.7097Z" fill="#263238"/>
<path d="M58.7696 24.4515C58.285 24.1623 57.7595 23.9478 57.211 23.815C57.8659 24.4971 58.3382 25.3333 58.5842 26.2464C58.7755 26.9598 58.8244 27.704 58.7281 28.4363C58.6317 29.1687 58.392 29.8749 58.0228 30.5147C57.6535 31.1544 57.1618 31.715 56.5757 32.1647C55.9897 32.6144 55.3208 32.9443 54.6073 33.1354C53.6983 33.3787 52.7427 33.3899 51.8281 33.1682C52.5244 33.8957 53.4033 34.423 54.373 34.6948C55.3427 34.9667 56.3676 34.9732 57.3406 34.7137C58.7813 34.3276 60.0095 33.3851 60.7553 32.0935C61.5011 30.8019 61.7033 29.267 61.3175 27.8263C60.9392 26.4134 60.0252 25.2034 58.7696 24.4531V24.4515Z" fill="#B2D4FF"/>
<path d="M60.5264 24.6402C59.2941 23.4131 57.6258 22.7242 55.8867 22.7242C54.1477 22.7242 52.4794 23.4131 51.247 24.6402C50.02 25.8725 49.3311 27.5408 49.3311 29.2799C49.3311 31.019 50.02 32.6872 51.247 33.9196C52.4794 35.1466 54.1477 35.8356 55.8867 35.8356C57.6258 35.8356 59.2941 35.1466 60.5264 33.9196C61.7535 32.6872 62.4424 31.019 62.4424 29.2799C62.4424 27.5408 61.7535 25.8725 60.5264 24.6402ZM59.2008 25.9658C59.6377 26.4 59.9845 26.9165 60.2211 27.4852C60.4577 28.054 60.5795 28.6639 60.5795 29.2799C60.5795 29.8959 60.4577 30.5058 60.2211 31.0746C59.9845 31.6434 59.6377 32.1597 59.2008 32.594C58.7665 33.0309 58.2502 33.3776 57.6814 33.6143C57.1127 33.8509 56.5027 33.9726 55.8867 33.9726C55.2707 33.9726 54.6608 33.8509 54.092 33.6143C53.5233 33.3776 53.0069 33.0309 52.5727 32.594C52.1358 32.1597 51.789 31.6434 51.5524 31.0746C51.3158 30.5058 51.194 29.8959 51.194 29.2799C51.194 28.6639 51.3158 28.054 51.5524 27.4852C51.789 26.9165 52.1358 26.4 52.5727 25.9658C53.0069 25.5289 53.5233 25.1822 54.092 24.9456C54.6608 24.709 55.2707 24.5871 55.8867 24.5871C56.5027 24.5871 57.1127 24.709 57.6814 24.9456C58.2502 25.1822 58.7665 25.5289 59.2008 25.9658Z" fill="#607D8B"/>
<path fill-rule="evenodd" clip-rule="evenodd" d="M78.0404 7.35454C77.389 7.35454 76.7558 7.38252 76.1159 7.4022C75.1283 40.236 49.1801 58.1352 32.0651 64.2236C32.3933 64.9996 32.6459 65.7691 32.7952 66.5205C50.199 60.7192 78.0404 42.1555 78.0404 7.35294V7.35454ZM25.6995 55.9433C23.7636 54.0074 21.511 52.398 19.2945 51.4546C19.16 51.832 18.9976 52.2305 18.8745 52.598C21.4257 53.1082 24.1787 54.772 26.5854 56.9327C26.2901 56.6029 26.0145 56.2567 25.6995 55.9433Z" fill="#B0BEC5"/>
<path fill-rule="evenodd" clip-rule="evenodd" d="M78.0404 7.35455C77.389 7.35455 76.7557 7.38253 76.1159 7.40222C75.919 13.9598 74.7115 19.9136 72.792 25.3047L74.6836 27.1963C75.435 25.0913 76.07 22.8979 76.5851 20.6174C76.6179 20.4649 76.6573 20.3139 76.6918 20.158C76.8082 19.6183 76.91 19.067 77.0133 18.5174C77.1737 17.6604 77.3149 16.8 77.4366 15.9367C77.5022 15.4642 77.5629 14.9851 77.6171 14.5061C77.6696 14.0598 77.7188 13.6135 77.7615 13.1607C77.8123 12.6029 77.855 12.0386 77.8927 11.4709C77.9173 11.0887 77.9468 10.7081 77.9649 10.3209C78.0125 9.33283 78.0371 8.34374 78.0387 7.35455H78.0404Z" fill="#BD2122"/>
<path fill-rule="evenodd" clip-rule="evenodd" d="M72.7901 25.3047C72.3909 26.4301 71.9559 27.5424 71.4858 28.64L73.3856 30.5383C73.3889 30.5383 73.3889 30.5219 73.3922 30.5169C73.8565 29.4374 74.2814 28.325 74.6833 27.1962L72.7917 25.303L72.7901 25.3047ZM26.0109 59.2869C25.7779 59.0555 25.5237 58.8424 25.2825 58.616C26.9674 60.4338 28.3619 62.4272 28.8558 64.8947L26.2422 66.2743L17.2385 57.3887L17.2319 57.4051L27.8648 67.8969L30.4767 66.5189C29.8976 63.6182 28.1011 61.3524 26.0109 59.2869Z" fill="#455A64"/>
<path fill-rule="evenodd" clip-rule="evenodd" d="M35.084 53.8269C36.4736 52.0123 37.8681 47.5614 37.8681 47.5614C37.8681 47.5614 33.4187 48.9592 31.6042 50.3471C25.2714 55.1886 16.5039 68.8895 16.5039 68.8895C16.5039 68.8895 30.2359 60.1548 35.084 53.8269Z" fill="#BD2122"/>
<path fill-rule="evenodd" clip-rule="evenodd" d="M21.1762 64.5582C20.9276 64.3014 20.6653 64.0583 20.3904 63.8298C21.926 65.6345 22.7528 67.9233 22.4739 70.1332C21.7488 77.4405 5.05051 81.7536 1.10645 82.6838C0.981759 83.1809 0.696289 84.2359 0.696289 84.2359C0.696289 84.2359 22.8168 79.5338 23.6355 71.293C23.9341 68.9058 22.9563 66.4204 21.1762 64.5566V64.5582Z" fill="#FFD84C"/>
<path fill-rule="evenodd" clip-rule="evenodd" d="M21.2633 64.263C21.0337 64.0235 20.7695 63.8167 20.5021 63.6149C21.3421 64.7076 21.8015 66.0299 21.639 67.3228C21.219 71.5523 13.8887 72.512 11.1456 72.7351C11.0882 73.329 11.0308 73.9918 11.0308 73.9918C11.0308 73.9918 22.2887 73.6474 22.8006 68.4843C22.9893 66.9881 22.379 65.4295 21.2633 64.263Z" fill="#F57C00"/>
<path fill-rule="evenodd" clip-rule="evenodd" d="M37.8698 47.5614C37.8698 47.5614 36.9166 47.8944 36.07 48.2012C35.5417 49.6647 34.8051 51.517 33.9241 52.6671C30.6067 56.9951 23.342 62.2761 18.9517 65.2916C17.5539 67.3161 16.5039 68.8895 16.5039 68.8895C16.5039 68.8895 30.2359 60.1548 35.084 53.8269C36.4736 52.0123 37.8698 47.5614 37.8698 47.5614ZM48.921 58.6552C48.7668 58.7487 48.583 58.8523 48.4255 58.9474C49.3705 61.492 50.058 65.6738 49.4755 67.5687C49.0949 70.7171 37.7418 74.8401 30.0998 77.0237C29.6798 77.6373 29.2565 78.2509 28.9284 78.8284C36.3145 76.9121 50.2155 72.2117 50.6338 68.7287C51.3491 66.4056 50.163 60.6076 48.921 58.6552Z" fill="#BD2122"/>
<path fill-rule="evenodd" clip-rule="evenodd" d="M64.7984 63.8378C63.6893 63.8214 63.6893 65.4949 64.7984 65.4785H69.7071C70.8162 65.4949 70.8162 63.8214 69.7071 63.8378H64.7984ZM63.1577 60.5566C62.047 60.5402 62.047 62.2136 63.1577 62.1972H74.629C75.7381 62.2136 75.7381 60.5402 74.629 60.5566H63.1577Z" fill="#F6F9FE"/>
<path fill-rule="evenodd" clip-rule="evenodd" d="M66.4835 62.1989C66.7011 62.202 66.9085 62.2913 67.0602 62.4473C67.2119 62.6033 67.2954 62.8131 67.2923 63.0307C67.2893 63.2482 67.2 63.4556 67.044 63.6073C66.888 63.7589 66.6781 63.8426 66.4605 63.8396H69.732C69.5144 63.8472 69.3027 63.7679 69.1435 63.6195C68.9843 63.471 68.8905 63.2655 68.8829 63.0479C68.8753 62.8303 68.9544 62.6187 69.1029 62.4595C69.2513 62.3003 69.457 62.2066 69.6745 62.1989H66.4835ZM59.8882 57.2771C58.7775 57.2607 58.7775 58.9341 59.8882 58.9177H61.5288C62.6379 58.9341 62.6379 57.2607 61.5288 57.2771H59.8882ZM64.8101 57.2771C64.5925 57.2771 64.3839 57.3634 64.23 57.5172C64.0762 57.671 63.9898 57.8798 63.9898 58.0974C63.9898 58.3149 64.0762 58.5235 64.23 58.6774C64.3839 58.8312 64.5925 58.9177 64.8101 58.9177H73.0132C73.2308 58.9177 73.4394 58.8312 73.5933 58.6774C73.7471 58.5235 73.8335 58.3149 73.8335 58.0974C73.8335 57.8798 73.7471 57.671 73.5933 57.5172C73.4394 57.3634 73.2308 57.2771 73.0132 57.2771H64.8101Z" fill="#F6F9FE"/>
<path fill-rule="evenodd" clip-rule="evenodd" d="M68.065 57.2754C67.8474 57.2754 67.6388 57.3619 67.4849 57.5157C67.3311 57.6696 67.2447 57.8782 67.2447 58.0957C67.2447 58.3133 67.3311 58.5221 67.4849 58.6759C67.6388 58.8298 67.8474 58.916 68.065 58.916H76.2681C76.4857 58.916 76.6943 58.8298 76.8482 58.6759C77.002 58.5221 77.0884 58.3133 77.0884 58.0957C77.0884 57.8782 77.002 57.6696 76.8482 57.5157C76.6943 57.3619 76.4857 57.2754 76.2681 57.2754H68.065ZM65.6402 58.9178C65.8577 58.9209 66.0652 59.0102 66.2168 59.1662C66.3685 59.3222 66.452 59.532 66.449 59.7496C66.4459 59.9671 66.3566 60.1745 66.2006 60.3262C66.0446 60.4778 65.8347 60.5615 65.6172 60.5585H68.8886C68.671 60.5661 68.4594 60.4868 68.3001 60.3384C68.1409 60.1899 68.0472 59.9844 68.0396 59.7668C68.032 59.5492 68.1111 59.3376 68.2595 59.1784C68.408 59.0192 68.6136 58.9255 68.8312 58.9178H65.6402ZM70.5719 58.9178C70.6796 58.9194 70.786 58.9419 70.8849 58.9845C70.9839 59.0272 71.0735 59.0889 71.1486 59.1662C71.2237 59.2434 71.2828 59.3346 71.3226 59.4347C71.3625 59.5349 71.3822 59.6419 71.3807 59.7496C71.3792 59.8573 71.3565 59.9637 71.3139 60.0626C71.2712 60.1615 71.2096 60.2511 71.1323 60.3262C71.0551 60.4013 70.9638 60.4606 70.8637 60.5004C70.7636 60.5402 70.6566 60.56 70.5489 60.5585H73.8203C73.6028 60.5661 73.3911 60.4868 73.2319 60.3384C73.0726 60.1899 72.9789 59.9844 72.9713 59.7668C72.9637 59.5492 73.0428 59.3376 73.1912 59.1784C73.3397 59.0192 73.5453 58.9255 73.7629 58.9178H70.5719ZM72.9885 63.8397C71.8795 63.8233 71.8795 65.4968 72.9885 65.4803C74.0976 65.4968 74.0976 63.8233 72.9885 63.8397Z" fill="#F6F9FE"/>
<path d="M43.4575 2.31619H46.7388M45.0981 0.675568V3.95682" stroke="#FF7FEB" stroke-linecap="round" stroke-linejoin="round"/>
<path d="M19.811 9.56612L22.1325 7.24628M19.8127 7.24628L22.1325 9.56612" stroke="#47F09F" stroke-linecap="round" stroke-linejoin="round"/>
<path d="M24.2676 26.4508C24.9083 27.0915 25.9471 27.0915 26.5878 26.4508C27.2285 25.8101 27.2285 24.7713 26.5878 24.1306C25.9471 23.4899 24.9083 23.4899 24.2676 24.1306C23.6269 24.7713 23.6269 25.8101 24.2676 26.4508Z" stroke="#FFD84C" stroke-linecap="round" stroke-linejoin="round"/>
<path d="M66.0081 73.8836L63.1665 75.5242M65.4076 76.1246L63.767 73.2831" stroke="#FF7FEB" stroke-linecap="round" stroke-linejoin="round"/>
<path d="M84.4766 57.41L82.1567 59.7299M84.4766 59.7299L82.1567 57.41" stroke="#47F09F" stroke-linecap="round" stroke-linejoin="round"/>
<path d="M70.1439 45.0291C69.2687 44.7946 68.3691 45.314 68.1346 46.1892C67.9001 47.0644 68.4195 47.9641 69.2947 48.1986C70.1699 48.4331 71.0695 47.9137 71.304 47.0385C71.5385 46.1633 71.0191 45.2636 70.1439 45.0291Z" stroke="#FFD84C" stroke-linecap="round" stroke-linejoin="round"/>
</svg>
